<svg id="Layer_1" data-name="Layer 1" xmlns="http://www.w3.org/2000/svg" viewBox="0 0 16 16"><defs><style>.cls-1{fill:#fff;}</style></defs><title>Iconografia - 16x16</title><path class="cls-1" d="M12.19,2.77H10.78V2.25a0.38,0.38,0,0,0-.38-0.38H9.34V1.21A0.38,0.38,0,0,0,9,.83H7a0.38,0.38,0,0,0-.38.38V1.87H5.61a0.38,0.38,0,0,0-.38.38V2.77H3.81a0.38,0.38,0,0,0-.38.38V14.79a0.38,0.38,0,0,0,.38.38h8.38a0.38,0.38,0,0,0,.38-0.38V3.16A0.38,0.38,0,0,0,12.19,2.77ZM6,2.63H7a0.38,0.38,0,0,0,.38-0.38V1.59H8.57V2.25A0.38,0.38,0,0,0,9,2.63H10V3.49H6V2.63ZM11.8,14.41H4.2V3.54h1V3.88a0.38,0.38,0,0,0,.38.38h4.79a0.38,0.38,0,0,0,.38-0.38V3.54h1V14.41Z"/><path class="cls-1" d="M10.1,7.08L7.59,10,6.41,8.52a0.38,0.38,0,0,0-.6.48l1.47,1.8,0.06,0.07h0l0,0,0,0h0l0.07,0H7.71l0,0,0,0,0.1-.08v0l2.79-3.23A0.38,0.38,0,0,0,10.1,7.08Z"/></svg>