<svg id="Layer_1" data-name="Layer 1" xmlns="http://www.w3.org/2000/svg" viewBox="0 0 16 16"><defs><style>.cls-1{fill:#fff;}</style></defs><title>Iconografia - 16x16</title><path class="cls-1" d="M12.34,12.48a6.64,6.64,0,1,0-8.69,0L3,14.68a0.38,0.38,0,0,0,.26.48l0.11,0a0.38,0.38,0,0,0,.37-0.28L4.31,13a6.62,6.62,0,0,0,7.38,0l0.55,1.92a0.38,0.38,0,0,0,.37.28l0.11,0A0.38,0.38,0,0,0,13,14.68ZM8,13.34a5.87,5.87,0,1,1,5.87-5.87A5.88,5.88,0,0,1,8,13.34Z"/><path class="cls-1" d="M8,2.9a4.57,4.57,0,1,0,4.57,4.57A4.57,4.57,0,0,0,8,2.9Zm0,8.36a3.8,3.8,0,1,1,3.8-3.8A3.8,3.8,0,0,1,8,11.26Z"/><path class="cls-1" d="M9.5,7.25h0L8.34,4.87a0.38,0.38,0,0,0-.69,0C6.87,6.48,6.6,7,6.51,7.25h0a1.85,1.85,0,0,0-.14,1.5,1.94,1.94,0,0,0,.79.92l0.05,0L7.31,9.76l0.07,0h0l0.06,0h0A1.71,1.71,0,0,0,8,9.91a1.74,1.74,0,0,0,.5-0.08H8.58L8.43,9.45,8.6,9.8h0l0.07,0L8.8,9.71l0.08,0a1.92,1.92,0,0,0,.77-0.91h0A1.83,1.83,0,0,0,9.5,7.25ZM8.93,8.47A1.13,1.13,0,0,1,8.49,9L8.43,9l0,0-0.09,0h0a0.89,0.89,0,0,1-.55,0h0l-0.09,0,0,0,0,0a1.13,1.13,0,0,1-.45-0.54,1.11,1.11,0,0,1,.11-0.89h0L8,5.91C8.55,7,8.74,7.43,8.82,7.58h0A1.1,1.1,0,0,1,8.93,8.47Z"/></svg>