<svg id="Layer_1" data-name="Layer 1" xmlns="http://www.w3.org/2000/svg" viewBox="0 0 16 16"><defs><style>.cls-1{fill:#fff;}</style></defs><title>Iconografia - 16x16</title><path class="cls-1" d="M15.15,5.06a0.38,0.38,0,0,0-.69-0.23L12.9,6.95,11.37,5.13A0.38,0.38,0,0,0,10.87,5L9.37,6,7.72,2.86a0.38,0.38,0,0,0-.38-0.2A0.38,0.38,0,0,0,7,2.93L5.43,8.21,4,5.63a0.39,0.39,0,0,0-.34-0.2H2.6V4.35h0V1.21h0A0.38,0.38,0,0,0,2.22.83h-1a0.38,0.38,0,0,0,0,.77H1.84V4H1.23a0.38,0.38,0,0,0,0,.77H1.84V7.1H1.23a0.38,0.38,0,0,0,0,.77H1.84v2.37H1.23a0.38,0.38,0,1,0,0,.77H1.84v2.37H1.23a0.38,0.38,0,0,0,0,.77H1.84v0.65a0.38,0.38,0,0,0,.77,0V14.14H5v0.65a0.38,0.38,0,0,0,.77,0V14.14H8.11v0.65a0.38,0.38,0,0,0,.77,0V14.14h2.37v0.65a0.38,0.38,0,0,0,.77,0V14.14h2.37v0.65a0.38,0.38,0,0,0,.77,0V5.06Zm-0.77,8.32H2.6V11H4.3l2.88,1.94,0.09,0H7.49l0,0h0l0,0h0l0.06-.06,2.66-3.25,2.6,1.8a0.39,0.39,0,0,0,.3.06l1.13-.26v2.17Zm0-3-1.14.26L10.5,8.78a0.38,0.38,0,0,0-.52.07L7.32,12.11,4.63,10.3a0.37,0.37,0,0,0-.21-0.07H2.6V7.49h0V6.19H3.45L5.19,9.38A0.38,0.38,0,0,0,5.9,9.31L7.47,4,8.89,6.71a0.39,0.39,0,0,0,.24.19,0.38,0.38,0,0,0,.3,0l1.57-1,1.63,1.94a0.39,0.39,0,0,0,.3.14,0.38,0.38,0,0,0,.3-0.16l1.16-1.57v4.2Z"/></svg>