<svg id="Layer_1" data-name="Layer 1" xmlns="http://www.w3.org/2000/svg" viewBox="0 0 16 16"><defs><style>.cls-1{fill:#fff;}</style></defs><title>Iconografia - 16x16</title><path class="cls-1" d="M10.93,9.3H5.06a0.38,0.38,0,0,0-.38.38v5.1a0.38,0.38,0,0,0,.38.38h5.87a0.38,0.38,0,0,0,.38-0.38V9.69A0.38,0.38,0,0,0,10.93,9.3Zm-0.38,5.1H5.45V10.07h5.1v4.34Z"/><path class="cls-1" d="M13.6,4.2H11.32v-3A0.38,0.38,0,0,0,10.93.83H5.06a0.38,0.38,0,0,0-.38.38v3H2.4A0.38,0.38,0,0,0,2,4.58v5.67a0.38,0.38,0,0,0,.38.38H3.84a0.38,0.38,0,0,0,.38-0.38V8.72h7.55v1.52a0.38,0.38,0,0,0,.38.38H13.6A0.38,0.38,0,0,0,14,10.25V4.58A0.38,0.38,0,0,0,13.6,4.2ZM5.45,1.59h5.1V4.2H5.45V1.59Zm7.77,8.27H12.54V8.34A0.38,0.38,0,0,0,12.16,8H3.84a0.38,0.38,0,0,0-.38.38V9.86H2.79V5H13.21v4.9Z"/></svg>