<svg id="Layer_1" data-name="Layer 1" xmlns="http://www.w3.org/2000/svg" viewBox="0 0 16 16"><defs><style>.cls-1{fill:#fff;}</style></defs><title>Iconografia - 16x16</title><path class="cls-1" d="M7.69,0.83H2.53a0.38,0.38,0,0,0-.38.38V14.79a0.38,0.38,0,0,0,.38.38H7.69a0.38,0.38,0,0,0,.38-0.38V1.21A0.38,0.38,0,0,0,7.69.83ZM7.31,2.52H5.69a0.38,0.38,0,0,0,0,.77H7.31V4.22H4.74a0.38,0.38,0,1,0,0,.77H7.31V5.92H5.69a0.38,0.38,0,0,0,0,.77H7.31V7.62H4.74a0.38,0.38,0,0,0,0,.77H7.31V9.31H5.69a0.38,0.38,0,0,0,0,.77H7.31V11H4.74a0.38,0.38,0,0,0,0,.77H7.31v0.93H5.69a0.38,0.38,0,1,0,0,.77H7.31v0.93H2.92V1.59H7.31V2.52Z"/><path class="cls-1" d="M13.51,7.54h0L11.83,4.09a0.38,0.38,0,0,0-.69,0C9.94,6.53,9.57,7.28,9.46,7.54h0a2.49,2.49,0,0,0-.2,2,2.6,2.6,0,0,0,1.07,1.25l0.08,0L10.55,11l0.08,0,0,0h0l0.07,0h0a2.28,2.28,0,0,0,.67.1A2.4,2.4,0,0,0,12.17,11h0l0.11,0,0.09,0,0.15-.07,0.11-.06a2.62,2.62,0,0,0,1.05-1.25h0A2.5,2.5,0,0,0,13.51,7.54ZM13,9.3a1.82,1.82,0,0,1-.72.86l-0.1.05-0.08,0,0,0-0.1,0h0a1.44,1.44,0,0,1-.91,0H11l-0.06,0,0,0-0.08,0-0.07,0A1.82,1.82,0,0,1,10,9.3a1.76,1.76,0,0,1,.17-1.43h0l1.34-2.74c1,2,1.25,2.55,1.35,2.74h0A1.8,1.8,0,0,1,13,9.3Z"/></svg>