<svg id="Layer_1" data-name="Layer 1" xmlns="http://www.w3.org/2000/svg" viewBox="0 0 16 16"><defs><style>.cls-1{fill:#fff;}</style></defs><title>Iconografia - 16x16</title><path class="cls-1" d="M11.1,10.06a5.14,5.14,0,1,0-6.21,0L3.53,13.7a0.38,0.38,0,0,0,.52.48l1.4-.65,0.63,1.41a0.38,0.38,0,0,0,.35.23h0a0.39,0.39,0,0,0,.35-0.25L8,11.71l1.2,3.21a0.38,0.38,0,0,0,.35.25h0a0.38,0.38,0,0,0,.35-0.23l0.63-1.41,1.4,0.65a0.38,0.38,0,0,0,.52-0.48Zm-0.59,2.62a0.38,0.38,0,0,0-.3,0,0.38,0.38,0,0,0-.22.2l-0.41.92-1-2.72,0.21,0,0.09,0L9,11h0l0.21,0h0l0.46-.15h0L10,10.7l0.25-.11,0.21-.11h0l1,2.61ZM6,12.86a0.38,0.38,0,0,0-.21-0.2l-0.13,0a0.4,0.4,0,0,0-.16,0l-0.91.42,1-2.62,0,0,0.08,0L5.8,10.6l0.34,0.15,0.17,0.06h0l0.16,0.05,0.26,0.07L6.9,11,7.22,11l0.21,0-1,2.72ZM8,1.59a4.37,4.37,0,0,1,0,8.74H8A4.37,4.37,0,0,1,8,1.59Z"/><path class="cls-1" d="M4.68,5.41L6.06,6.76,5.74,8.66a0.38,0.38,0,0,0,.56.4L8,8.17l1.71,0.9a0.38,0.38,0,0,0,.18,0,0.38,0.38,0,0,0,.38-0.45L9.94,6.76l1.38-1.35a0.38,0.38,0,0,0-.21-0.65L9.2,4.48,8.34,2.75a0.38,0.38,0,0,0-.69,0L6.8,4.48l-1.91.28A0.38,0.38,0,0,0,4.68,5.41ZM7.4,5L8,3.79,8.6,5a0.38,0.38,0,0,0,.29.21l1.34,0.2-1,.94a0.39,0.39,0,0,0-.11.34L9.38,8,8.18,7.4a0.38,0.38,0,0,0-.36,0L6.62,8,6.85,6.69a0.39,0.39,0,0,0-.11-0.34l-1-.94,1.34-.2A0.38,0.38,0,0,0,7.4,5Z"/></svg>