<svg id="Layer_1" data-name="Layer 1" xmlns="http://www.w3.org/2000/svg" viewBox="0 0 16 16"><defs><style>.cls-1{fill:#fff;}</style></defs><title>Iconografia - 16x16</title><path class="cls-1" d="M3.42,4.43H5.56a0.38,0.38,0,1,0,0-.77H3.42A0.38,0.38,0,0,0,3.42,4.43Z"/><path class="cls-1" d="M3.42,6.55H5.56a0.38,0.38,0,1,0,0-.77H3.42A0.38,0.38,0,0,0,3.42,6.55Z"/><path class="cls-1" d="M3.42,8.67H5.56a0.38,0.38,0,1,0,0-.77H3.42A0.38,0.38,0,0,0,3.42,8.67Z"/><path class="cls-1" d="M9.61,10H3.42a0.38,0.38,0,0,0,0,.77H9.61A0.38,0.38,0,0,0,9.61,10Z"/><path class="cls-1" d="M9.61,12.14H3.42a0.38,0.38,0,0,0,0,.77H9.61A0.38,0.38,0,0,0,9.61,12.14Z"/><path class="cls-1" d="M14.6,11.3L13.06,8.72a3.77,3.77,0,0,0,0-5.29,3.71,3.71,0,0,0-1.24-.82V1.21A0.38,0.38,0,0,0,11.41.83H1.63a0.38,0.38,0,0,0-.38.38V14.79a0.38,0.38,0,0,0,.38.38h9.78a0.38,0.38,0,0,0,.38-0.38V10.85l0.93,1.56a1.09,1.09,0,0,0,1.5.39A1.09,1.09,0,0,0,14.6,11.3ZM14,11.94a0.32,0.32,0,0,1-.15.2h0a0.29,0.29,0,0,1-.16,0A0.33,0.33,0,0,1,13.38,12L11.9,9.54l0.1,0,0.18-.09,0.16-.09,0.1-.07,0,0,1.47,2.47A0.32,0.32,0,0,1,14,11.94ZM12.48,8.22l-0.16.15a2.94,2.94,0,0,1-1.1.61A3,3,0,1,1,12.48,8.22ZM11,14.41H2V1.59h9v0.8a3.77,3.77,0,1,0-.66,7.47A3.81,3.81,0,0,0,11,9.81v4.6Z"/></svg>