<?xml version="1.0" encoding="UTF-8" standalone="no"?>
<svg
   xmlns:dc="http://purl.org/dc/elements/1.1/"
   xmlns:cc="http://creativecommons.org/ns#"
   xmlns:rdf="http://www.w3.org/1999/02/22-rdf-syntax-ns#"
   xmlns:svg="http://www.w3.org/2000/svg"
   xmlns="http://www.w3.org/2000/svg"
   version="1.1"
   id="svg4717"
   viewBox="0 0 432.28325 134.37613"
   height="37.923931mm"
   width="121.99994mm">
  <defs
     id="defs4719" />
  <metadata
     id="metadata4722">
    <rdf:RDF>
      <cc:Work
         rdf:about="">
        <dc:format>image/svg+xml</dc:format>
        <dc:type
           rdf:resource="http://purl.org/dc/dcmitype/StillImage" />
        <dc:title></dc:title>
      </cc:Work>
    </rdf:RDF>
  </metadata>
  <g
     transform="translate(-286.71552,-153.74557)"
     id="layer1">
    <g
       transform="matrix(1.25,0,0,-1.25,301.4399,285.38232)"
       id="g26">
      <path
         id="path28"
         style="fill:#000000;fill-opacity:1;fill-rule:nonzero;stroke:none"
         d="m 0,0 c 0.399,-0.145 0.816,-0.271 1.25,-0.38 0.435,-0.109 0.966,-0.163 1.594,-0.163 0.991,0 1.73,0.202 2.219,0.607 0.489,0.404 0.734,0.951 0.734,1.64 0,0.337 -0.052,0.627 -0.154,0.868 C 5.54,2.815 5.386,3.022 5.181,3.197 4.976,3.373 4.719,3.533 4.411,3.678 4.103,3.823 3.744,3.979 3.334,4.148 L 2.301,4.565 C 1.95,4.71 1.63,4.87 1.34,5.045 1.051,5.22 0.8,5.434 0.59,5.689 0.378,5.942 0.211,6.235 0.091,6.567 -0.03,6.899 -0.09,7.294 -0.09,7.753 c 0,1.099 0.373,1.959 1.123,2.581 0.748,0.622 1.799,0.933 3.152,0.933 0.58,0 1.128,-0.048 1.648,-0.145 C 6.352,11.025 6.811,10.905 7.209,10.76 7.149,10.253 7.017,9.751 6.811,9.257 6.485,9.377 6.107,9.486 5.679,9.583 5.25,9.679 4.765,9.727 4.221,9.727 3.46,9.727 2.874,9.574 2.464,9.266 2.053,8.957 1.847,8.495 1.847,7.88 1.847,7.627 1.899,7.4 2.002,7.201 2.104,7.002 2.24,6.826 2.41,6.675 2.579,6.525 2.778,6.388 3.007,6.268 3.236,6.147 3.479,6.038 3.732,5.942 L 4.746,5.544 C 5.229,5.35 5.658,5.148 6.032,4.937 6.407,4.725 6.727,4.477 6.992,4.194 7.258,3.91 7.46,3.575 7.599,3.189 7.738,2.802 7.807,2.349 7.807,1.83 7.807,0.586 7.379,-0.395 6.521,-1.114 5.664,-1.832 4.462,-2.191 2.916,-2.191 2.542,-2.191 2.204,-2.18 1.903,-2.155 1.6,-2.131 1.32,-2.094 1.06,-2.047 0.8,-1.998 0.549,-1.938 0.308,-1.866 c -0.242,0.073 -0.489,0.152 -0.743,0.236 0.025,0.266 0.079,0.538 0.163,0.816 C -0.187,-0.538 -0.096,-0.265 0,0" />
    </g>
    <g
       transform="matrix(1.25,0,0,-1.25,317.7649,282.07657)"
       id="g30">
      <path
         id="path32"
         style="fill:#000000;fill-opacity:1;fill-rule:nonzero;stroke:none"
         d="M 0,0 3.968,0 1.975,6.648 0,0 Z m 4.456,-1.612 -4.945,0 -0.887,-3.007 c -0.158,-0.024 -0.315,-0.042 -0.471,-0.054 -0.157,-0.012 -0.314,-0.018 -0.471,-0.018 -0.17,0 -0.335,0.006 -0.499,0.018 -0.162,0.012 -0.31,0.03 -0.443,0.054 L 0.979,8.405 C 1.136,8.429 1.305,8.447 1.486,8.46 1.667,8.472 1.854,8.478 2.048,8.478 2.216,8.478 2.392,8.472 2.572,8.46 2.754,8.447 2.928,8.429 3.098,8.405 L 7.319,-4.619 C 7.174,-4.643 7.01,-4.661 6.83,-4.673 6.648,-4.685 6.473,-4.691 6.304,-4.691 c -0.157,0 -0.317,0.006 -0.48,0.018 -0.163,0.012 -0.317,0.03 -0.462,0.054 l -0.906,3.007 z" />
    </g>
    <g
       transform="matrix(1.25,0,0,-1.25,330.42315,271.5702)"
       id="g34">
      <path
         id="path36"
         style="fill:#000000;fill-opacity:1;fill-rule:nonzero;stroke:none"
         d="M 0,0 C 0.132,0.024 0.275,0.042 0.425,0.055 0.577,0.067 0.718,0.072 0.851,0.072 0.983,0.072 1.126,0.067 1.276,0.055 1.428,0.042 1.57,0.024 1.703,0 L 7.372,-9.781 7.372,0 C 7.517,0.024 7.668,0.042 7.825,0.055 7.982,0.067 8.138,0.072 8.296,0.072 8.428,0.072 8.568,0.067 8.713,0.055 8.858,0.042 8.996,0.024 9.129,0 l 0,-13.024 c -0.133,-0.024 -0.274,-0.042 -0.426,-0.054 -0.15,-0.012 -0.292,-0.018 -0.425,-0.018 -0.133,0 -0.275,0.006 -0.426,0.018 -0.151,0.012 -0.293,0.03 -0.425,0.054 l -5.689,9.728 0,-9.728 c -0.133,-0.024 -0.274,-0.042 -0.425,-0.054 -0.151,-0.012 -0.299,-0.018 -0.443,-0.018 -0.158,0 -0.312,0.006 -0.463,0.018 -0.151,0.012 -0.287,0.03 -0.407,0.054 L 0,0 Z" />
    </g>
    <g
       transform="matrix(1.25,0,0,-1.25,346.9524,271.5702)"
       id="g38">
      <path
         id="path40"
         style="fill:#000000;fill-opacity:1;fill-rule:nonzero;stroke:none"
         d="M 0,0 7.155,0 C 7.191,-0.242 7.209,-0.507 7.209,-0.797 7.209,-0.93 7.206,-1.068 7.2,-1.213 7.194,-1.358 7.179,-1.491 7.155,-1.612 l -5.308,0 0,-3.732 4.238,0 C 6.11,-5.464 6.128,-5.594 6.141,-5.733 6.153,-5.872 6.158,-6.008 6.158,-6.14 6.158,-6.273 6.153,-6.413 6.141,-6.558 6.128,-6.701 6.11,-6.835 6.085,-6.956 l -4.238,0 0,-4.456 5.453,0 c 0.036,-0.241 0.054,-0.506 0.054,-0.796 0,-0.133 -0.003,-0.273 -0.009,-0.418 -0.006,-0.145 -0.021,-0.278 -0.045,-0.398 l -7.3,0 L 0,0 Z" />
    </g>
    <g
       transform="matrix(1.25,0,0,-1.25,362.66503,282.07657)"
       id="g42">
      <path
         id="path44"
         style="fill:#000000;fill-opacity:1;fill-rule:nonzero;stroke:none"
         d="M 0,0 3.968,0 1.975,6.648 0,0 Z m 4.456,-1.612 -4.945,0 -0.887,-3.007 c -0.158,-0.024 -0.315,-0.042 -0.472,-0.054 -0.156,-0.012 -0.313,-0.018 -0.47,-0.018 -0.17,0 -0.335,0.006 -0.499,0.018 -0.162,0.012 -0.31,0.03 -0.443,0.054 L 0.979,8.405 C 1.136,8.429 1.305,8.447 1.486,8.46 1.667,8.472 1.854,8.478 2.048,8.478 2.216,8.478 2.392,8.472 2.572,8.46 2.754,8.447 2.928,8.429 3.098,8.405 L 7.319,-4.619 C 7.174,-4.643 7.01,-4.661 6.83,-4.673 6.648,-4.685 6.473,-4.691 6.304,-4.691 c -0.157,0 -0.317,0.006 -0.48,0.018 -0.163,0.012 -0.317,0.03 -0.462,0.054 l -0.906,3.007 z" />
    </g>
    <g
       transform="matrix(1.25,0,0,-1.25,375.77615,271.5702)"
       id="g46">
      <path
         id="path48"
         style="fill:#000000;fill-opacity:1;fill-rule:nonzero;stroke:none"
         d="M 0,0 C 0.145,0.024 0.31,0.042 0.498,0.055 0.685,0.067 0.863,0.072 1.032,0.072 1.201,0.072 1.386,0.067 1.585,0.055 1.784,0.042 1.949,0.024 2.082,0 L 5.452,-8.151 8.839,0 c 0.12,0.024 0.272,0.042 0.454,0.055 0.18,0.012 0.355,0.017 0.524,0.017 0.157,0 0.332,-0.005 0.526,-0.017 C 10.535,0.042 10.699,0.024 10.832,0 l 0.615,-13.024 c -0.145,-0.024 -0.292,-0.042 -0.443,-0.054 -0.152,-0.012 -0.305,-0.018 -0.462,-0.018 -0.157,0 -0.312,0.006 -0.462,0.018 -0.151,0.012 -0.293,0.03 -0.426,0.054 L 9.237,-2.898 6.05,-10.325 c -0.243,-0.036 -0.489,-0.054 -0.743,-0.054 -0.23,0 -0.459,0.018 -0.688,0.054 L 1.539,-2.843 1.123,-13.024 C 0.99,-13.048 0.851,-13.066 0.706,-13.078 0.561,-13.09 0.422,-13.096 0.29,-13.096 c -0.158,0 -0.308,0.006 -0.453,0.018 -0.145,0.012 -0.285,0.03 -0.417,0.054 L 0,0 Z" />
    </g>
    <g
       transform="matrix(1.25,0,0,-1.25,394.93115,271.5702)"
       id="g50">
      <path
         id="path52"
         style="fill:#000000;fill-opacity:1;fill-rule:nonzero;stroke:none"
         d="M 0,0 7.155,0 C 7.191,-0.242 7.209,-0.507 7.209,-0.797 7.209,-0.93 7.206,-1.068 7.2,-1.213 7.194,-1.358 7.179,-1.491 7.155,-1.612 l -5.307,0 0,-3.732 4.237,0 C 6.11,-5.464 6.128,-5.594 6.141,-5.733 6.153,-5.872 6.158,-6.008 6.158,-6.14 6.158,-6.273 6.153,-6.413 6.141,-6.558 6.128,-6.701 6.11,-6.835 6.085,-6.956 l -4.237,0 0,-4.456 5.452,0 c 0.036,-0.241 0.054,-0.506 0.054,-0.796 0,-0.133 -0.003,-0.273 -0.009,-0.418 -0.006,-0.145 -0.021,-0.278 -0.045,-0.398 l -7.3,0 L 0,0 Z" />
    </g>
    <g
       transform="matrix(1.25,0,0,-1.25,408.19927,271.5702)"
       id="g54">
      <path
         id="path56"
         style="fill:#000000;fill-opacity:1;fill-rule:nonzero;stroke:none"
         d="M 0,0 C 0.132,0.024 0.275,0.042 0.425,0.055 0.577,0.067 0.718,0.072 0.851,0.072 0.983,0.072 1.126,0.067 1.276,0.055 1.428,0.042 1.569,0.024 1.703,0 L 7.372,-9.781 7.372,0 C 7.517,0.024 7.668,0.042 7.825,0.055 7.982,0.067 8.138,0.072 8.296,0.072 8.428,0.072 8.568,0.067 8.713,0.055 8.858,0.042 8.996,0.024 9.129,0 l 0,-13.024 c -0.133,-0.024 -0.274,-0.042 -0.426,-0.054 -0.15,-0.012 -0.292,-0.018 -0.425,-0.018 -0.133,0 -0.275,0.006 -0.426,0.018 -0.151,0.012 -0.293,0.03 -0.425,0.054 l -5.689,9.728 0,-9.728 c -0.133,-0.024 -0.274,-0.042 -0.425,-0.054 -0.151,-0.012 -0.299,-0.018 -0.443,-0.018 -0.158,0 -0.312,0.006 -0.463,0.018 -0.151,0.012 -0.287,0.03 -0.407,0.054 L 0,0 Z" />
    </g>
    <g
       transform="matrix(1.25,0,0,-1.25,427.5354,273.58545)"
       id="g58">
      <path
         id="path60"
         style="fill:#000000;fill-opacity:1;fill-rule:nonzero;stroke:none"
         d="m 0,0 -3.387,0 c -0.025,0.121 -0.043,0.254 -0.055,0.399 -0.012,0.145 -0.017,0.284 -0.017,0.417 0,0.133 0.005,0.268 0.017,0.407 0.012,0.139 0.03,0.269 0.055,0.389 l 8.622,0 C 5.259,1.492 5.277,1.364 5.289,1.232 5.301,1.099 5.308,0.966 5.308,0.834 5.308,0.701 5.301,0.559 5.289,0.408 5.277,0.256 5.259,0.121 5.235,0 l -3.387,0 0,-11.412 c -0.278,-0.035 -0.58,-0.054 -0.906,-0.054 -0.338,0 -0.652,0.019 -0.942,0.054 L 0,0 Z" />
    </g>
    <g
       transform="matrix(1.25,0,0,-1.25,443.1804,286.12869)"
       id="g62">
      <path
         id="path64"
         style="fill:#000000;fill-opacity:1;fill-rule:nonzero;stroke:none"
         d="M 0,0 C 0.605,0 1.126,0.118 1.567,0.353 2.008,0.588 2.373,0.929 2.663,1.376 2.953,1.823 3.17,2.36 3.315,2.989 3.46,3.616 3.533,4.329 3.533,5.126 3.533,5.911 3.46,6.621 3.315,7.255 3.17,7.889 2.953,8.425 2.663,8.866 2.373,9.308 2.008,9.645 1.567,9.881 1.126,10.117 0.605,10.234 0,10.234 -0.604,10.234 -1.126,10.117 -1.566,9.881 -2.008,9.645 -2.372,9.308 -2.662,8.866 -2.952,8.425 -3.169,7.889 -3.314,7.255 -3.459,6.621 -3.532,5.911 -3.532,5.126 c 0,-0.797 0.073,-1.51 0.218,-2.137 C -3.169,2.36 -2.952,1.823 -2.662,1.376 -2.372,0.929 -2.008,0.588 -1.566,0.353 -1.126,0.118 -0.604,0 0,0 m 0,-1.594 c -0.941,0 -1.757,0.166 -2.445,0.498 -0.689,0.332 -1.259,0.796 -1.712,1.395 -0.453,0.598 -0.791,1.306 -1.014,2.128 -0.223,0.821 -0.335,1.721 -0.335,2.699 0,0.978 0.112,1.878 0.335,2.699 0.223,0.821 0.561,1.53 1.014,2.129 0.453,0.598 1.023,1.065 1.712,1.404 0.688,0.337 1.504,0.506 2.445,0.506 0.942,0 1.758,-0.169 2.446,-0.506 C 3.135,11.019 3.705,10.552 4.158,9.954 4.61,9.355 4.945,8.646 5.163,7.825 5.38,7.004 5.489,6.104 5.489,5.126 5.489,4.148 5.38,3.248 5.163,2.427 4.945,1.605 4.61,0.897 4.158,0.299 3.705,-0.3 3.135,-0.764 2.446,-1.096 1.758,-1.428 0.942,-1.594 0,-1.594" />
    </g>
    <g
       transform="matrix(1.25,0,0,-1.25,461.49977,271.5702)"
       id="g66">
      <path
         id="path68"
         style="fill:#000000;fill-opacity:1;fill-rule:nonzero;stroke:none"
         d="M 0,0 C 0.145,0.024 0.31,0.042 0.498,0.055 0.685,0.067 0.863,0.072 1.032,0.072 1.201,0.072 1.386,0.067 1.585,0.055 1.784,0.042 1.949,0.024 2.082,0 L 5.452,-8.151 8.839,0 c 0.12,0.024 0.272,0.042 0.454,0.055 0.18,0.012 0.355,0.017 0.524,0.017 0.157,0 0.332,-0.005 0.526,-0.017 C 10.535,0.042 10.699,0.024 10.832,0 l 0.615,-13.024 c -0.145,-0.024 -0.292,-0.042 -0.443,-0.054 -0.152,-0.012 -0.305,-0.018 -0.462,-0.018 -0.157,0 -0.312,0.006 -0.462,0.018 -0.151,0.012 -0.293,0.03 -0.426,0.054 L 9.237,-2.898 6.05,-10.325 c -0.243,-0.036 -0.489,-0.054 -0.743,-0.054 -0.23,0 -0.459,0.018 -0.688,0.054 L 1.539,-2.843 1.123,-13.024 C 0.99,-13.048 0.851,-13.066 0.706,-13.078 0.561,-13.09 0.422,-13.096 0.29,-13.096 c -0.158,0 -0.308,0.006 -0.453,0.018 -0.145,0.012 -0.285,0.03 -0.417,0.054 L 0,0 Z" />
    </g>
    <g
       transform="matrix(1.25,0,0,-1.25,480.49527,271.5702)"
       id="g70">
      <path
         id="path72"
         style="fill:#000000;fill-opacity:1;fill-rule:nonzero;stroke:none"
         d="M 0,0 C 0.29,0.036 0.605,0.055 0.942,0.055 1.269,0.055 1.571,0.036 1.849,0 l 0,-7.391 c 0,-0.748 0.047,-1.388 0.144,-1.919 0.097,-0.532 0.254,-0.963 0.471,-1.295 0.217,-0.333 0.504,-0.578 0.86,-0.735 0.357,-0.157 0.794,-0.234 1.314,-0.234 0.518,0 0.953,0.077 1.304,0.234 0.35,0.157 0.633,0.402 0.851,0.735 0.217,0.332 0.374,0.763 0.471,1.295 0.097,0.531 0.145,1.171 0.145,1.919 L 7.409,0 C 7.711,0.036 8.018,0.055 8.333,0.055 8.671,0.055 8.985,0.036 9.275,0 l 0,-7.716 c 0,-0.87 -0.082,-1.649 -0.244,-2.338 -0.163,-0.688 -0.43,-1.267 -0.797,-1.738 -0.369,-0.471 -0.849,-0.831 -1.441,-1.078 -0.592,-0.247 -1.31,-0.371 -2.155,-0.371 -0.846,0 -1.564,0.124 -2.156,0.371 -0.591,0.247 -1.072,0.607 -1.44,1.078 -0.368,0.471 -0.634,1.05 -0.796,1.738 C 0.082,-9.365 0,-8.586 0,-7.716 L 0,0 Z" />
    </g>
    <g
       transform="matrix(1.25,0,0,-1.25,497.0489,271.5702)"
       id="g74">
      <path
         id="path76"
         style="fill:#000000;fill-opacity:1;fill-rule:nonzero;stroke:none"
         d="M 0,0 C 0.132,0.024 0.275,0.042 0.425,0.055 0.577,0.067 0.718,0.072 0.851,0.072 0.983,0.072 1.126,0.067 1.276,0.055 1.428,0.042 1.569,0.024 1.703,0 L 7.372,-9.781 7.372,0 C 7.517,0.024 7.668,0.042 7.825,0.055 7.982,0.067 8.138,0.072 8.296,0.072 8.428,0.072 8.568,0.067 8.713,0.055 8.858,0.042 8.996,0.024 9.129,0 l 0,-13.024 c -0.133,-0.024 -0.274,-0.042 -0.426,-0.054 -0.15,-0.012 -0.292,-0.018 -0.425,-0.018 -0.133,0 -0.275,0.006 -0.426,0.018 -0.151,0.012 -0.293,0.03 -0.425,0.054 l -5.689,9.728 0,-9.728 c -0.133,-0.024 -0.274,-0.042 -0.425,-0.054 -0.151,-0.012 -0.299,-0.018 -0.443,-0.018 -0.158,0 -0.312,0.006 -0.463,0.018 -0.151,0.012 -0.287,0.03 -0.407,0.054 L 0,0 Z" />
    </g>
    <g
       transform="matrix(1.25,0,0,-1.25,513.57678,271.5702)"
       id="g78">
      <path
         id="path80"
         style="fill:#000000;fill-opacity:1;fill-rule:nonzero;stroke:none"
         d="m 0,0 c 0.145,0.024 0.295,0.042 0.452,0.055 0.157,0.012 0.315,0.017 0.472,0.017 0.157,0 0.313,-0.005 0.47,-0.017 C 1.551,0.042 1.703,0.024 1.848,0 l 0,-13.024 c -0.145,-0.024 -0.294,-0.042 -0.444,-0.054 -0.151,-0.012 -0.312,-0.018 -0.48,-0.018 -0.157,0 -0.317,0.006 -0.481,0.018 -0.163,0.012 -0.311,0.03 -0.443,0.054 L 0,0 Z" />
    </g>
    <g
       transform="matrix(1.25,0,0,-1.25,531.3959,285.47295)"
       id="g82">
      <path
         id="path84"
         style="fill:#000000;fill-opacity:1;fill-rule:nonzero;stroke:none"
         d="M 0,0 C 0.266,-0.519 0.435,-1.02 0.507,-1.504 0,-1.721 -0.519,-1.878 -1.05,-1.974 -1.581,-2.07 -2.156,-2.119 -2.771,-2.119 c -0.942,0 -1.79,0.154 -2.545,0.462 -0.755,0.308 -1.392,0.748 -1.912,1.323 -0.519,0.573 -0.917,1.27 -1.195,2.092 -0.278,0.821 -0.416,1.744 -0.416,2.771 0,1.038 0.138,1.977 0.416,2.817 0.278,0.839 0.676,1.554 1.195,2.147 0.52,0.59 1.153,1.047 1.903,1.367 0.748,0.32 1.588,0.48 2.518,0.48 0.688,0 1.28,-0.048 1.775,-0.145 C -0.538,11.098 -0.096,10.983 0.29,10.85 0.266,10.573 0.214,10.316 0.136,10.081 0.057,9.845 -0.036,9.594 -0.145,9.329 -0.326,9.39 -0.501,9.444 -0.67,9.493 -0.839,9.54 -1.02,9.583 -1.214,9.619 -1.406,9.655 -1.62,9.682 -1.856,9.7 -2.092,9.719 -2.36,9.727 -2.662,9.727 c -1.316,0 -2.341,-0.446 -3.071,-1.34 -0.731,-0.893 -1.096,-2.179 -1.096,-3.858 0,-0.858 0.103,-1.6 0.309,-2.228 0.204,-0.628 0.494,-1.148 0.868,-1.558 0.375,-0.411 0.825,-0.718 1.35,-0.924 0.526,-0.205 1.114,-0.308 1.767,-0.308 0.507,0 0.966,0.042 1.377,0.127 C -0.749,-0.278 -0.362,-0.157 0,0" />
    </g>
    <g
       transform="matrix(1.25,0,0,-1.25,536.12952,271.5702)"
       id="g86">
      <path
         id="path88"
         style="fill:#000000;fill-opacity:1;fill-rule:nonzero;stroke:none"
         d="m 0,0 c 0.145,0.024 0.295,0.042 0.452,0.055 0.157,0.012 0.315,0.017 0.472,0.017 0.157,0 0.313,-0.005 0.47,-0.017 C 1.551,0.042 1.703,0.024 1.848,0 l 0,-13.024 c -0.145,-0.024 -0.294,-0.042 -0.444,-0.054 -0.151,-0.012 -0.312,-0.018 -0.48,-0.018 -0.157,0 -0.317,0.006 -0.481,0.018 -0.163,0.012 -0.311,0.03 -0.443,0.054 L 0,0 Z" />
    </g>
    <g
       transform="matrix(1.25,0,0,-1.25,545.8659,279.94695)"
       id="g90">
      <path
         id="path92"
         style="fill:#000000;fill-opacity:1;fill-rule:nonzero;stroke:none"
         d="m 0,0 c 0.193,-0.025 0.362,-0.043 0.507,-0.055 0.145,-0.012 0.356,-0.017 0.634,-0.017 0.374,0 0.745,0.038 1.114,0.116 0.368,0.079 0.697,0.221 0.987,0.427 0.29,0.205 0.522,0.485 0.697,0.842 0.176,0.356 0.263,0.818 0.263,1.386 0,0.494 -0.075,0.912 -0.226,1.249 C 3.825,4.287 3.616,4.558 3.351,4.764 3.085,4.969 2.765,5.114 2.391,5.199 2.016,5.283 1.612,5.325 1.177,5.325 0.73,5.325 0.337,5.307 0,5.271 L 0,0 Z m -1.847,6.72 c 0.18,0.024 0.394,0.048 0.642,0.072 0.248,0.024 0.507,0.046 0.779,0.064 0.271,0.018 0.544,0.033 0.815,0.045 C 0.661,6.913 0.924,6.919 1.177,6.919 1.841,6.919 2.473,6.852 3.07,6.72 3.668,6.587 4.194,6.358 4.646,6.031 5.099,5.706 5.458,5.273 5.724,4.737 5.989,4.199 6.122,3.525 6.122,2.716 6.122,1.871 5.981,1.168 5.697,0.607 5.413,0.044 5.038,-0.406 4.573,-0.743 4.108,-1.082 3.58,-1.32 2.989,-1.459 2.397,-1.598 1.793,-1.667 1.177,-1.667 0.948,-1.667 0.745,-1.665 0.57,-1.658 0.395,-1.652 0.206,-1.637 0,-1.613 l 0,-4.709 c -0.29,-0.036 -0.598,-0.054 -0.924,-0.054 -0.145,0 -0.299,0.003 -0.462,0.008 -0.163,0.007 -0.317,0.022 -0.461,0.046 l 0,13.042 z" />
    </g>
    <g
       transform="matrix(1.25,0,0,-1.25,558.79327,282.07657)"
       id="g94">
      <path
         id="path96"
         style="fill:#000000;fill-opacity:1;fill-rule:nonzero;stroke:none"
         d="M 0,0 3.968,0 1.975,6.648 0,0 Z m 4.456,-1.612 -4.945,0 -0.887,-3.007 c -0.158,-0.024 -0.315,-0.042 -0.472,-0.054 -0.156,-0.012 -0.313,-0.018 -0.47,-0.018 -0.17,0 -0.335,0.006 -0.499,0.018 -0.162,0.012 -0.31,0.03 -0.443,0.054 L 0.979,8.405 C 1.136,8.429 1.304,8.447 1.486,8.46 1.667,8.472 1.854,8.478 2.048,8.478 2.216,8.478 2.392,8.472 2.572,8.46 2.754,8.447 2.928,8.429 3.098,8.405 L 7.319,-4.619 C 7.174,-4.643 7.01,-4.661 6.83,-4.673 6.648,-4.685 6.473,-4.691 6.304,-4.691 c -0.157,0 -0.317,0.006 -0.48,0.018 -0.163,0.012 -0.317,0.03 -0.462,0.054 l -0.906,3.007 z" />
    </g>
    <g
       transform="matrix(1.25,0,0,-1.25,571.45152,271.5702)"
       id="g98">
      <path
         id="path100"
         style="fill:#000000;fill-opacity:1;fill-rule:nonzero;stroke:none"
         d="m 0,0 c 0.132,0.024 0.275,0.042 0.425,0.055 0.152,0.012 0.312,0.017 0.48,0.017 0.157,0 0.314,-0.005 0.471,-0.017 C 1.533,0.042 1.684,0.024 1.829,0 l 0,-11.394 5.109,0 c 0.024,-0.133 0.039,-0.271 0.044,-0.416 0.007,-0.145 0.01,-0.278 0.01,-0.398 0,-0.29 -0.018,-0.563 -0.054,-0.816 L 0,-13.024 0,0 Z" />
    </g>
    <g
       transform="matrix(1.25,0,0,-1.25,592.6224,285.94757)"
       id="g102">
      <path
         id="path104"
         style="fill:#000000;fill-opacity:1;fill-rule:nonzero;stroke:none"
         d="m 0,0 c 0.169,-0.025 0.376,-0.045 0.624,-0.064 0.248,-0.018 0.511,-0.027 0.789,-0.027 0.711,0 1.36,0.081 1.947,0.245 C 3.945,0.317 4.449,0.592 4.872,0.978 5.295,1.364 5.62,1.886 5.851,2.545 6.08,3.203 6.195,4.027 6.195,5.017 6.195,5.923 6.08,6.696 5.851,7.336 5.62,7.976 5.298,8.498 4.882,8.903 4.465,9.307 3.966,9.6 3.387,9.782 c -0.58,0.18 -1.22,0.271 -1.92,0.271 -0.23,0 -0.481,-0.003 -0.752,-0.009 C 0.443,10.038 0.204,10.016 0,9.981 L 0,0 Z m -1.849,11.502 c 0.411,0.048 0.907,0.093 1.487,0.136 0.579,0.042 1.146,0.063 1.702,0.063 2.282,0 3.988,-0.579 5.118,-1.739 C 7.586,8.803 8.15,7.137 8.15,4.963 8.15,2.692 7.574,1.008 6.421,-0.091 5.268,-1.19 3.55,-1.739 1.268,-1.739 c -0.568,0 -1.13,0.021 -1.686,0.063 -0.554,0.043 -1.031,0.094 -1.431,0.154 l 0,13.024 z" />
    </g>
    <g
       transform="matrix(1.25,0,0,-1.25,613.52028,286.12869)"
       id="g106">
      <path
         id="path108"
         style="fill:#000000;fill-opacity:1;fill-rule:nonzero;stroke:none"
         d="M 0,0 C 0.605,0 1.126,0.118 1.567,0.353 2.008,0.588 2.373,0.929 2.663,1.376 2.953,1.823 3.17,2.36 3.315,2.989 3.46,3.616 3.533,4.329 3.533,5.126 3.533,5.911 3.46,6.621 3.315,7.255 3.17,7.889 2.953,8.425 2.663,8.866 2.373,9.308 2.008,9.645 1.567,9.881 1.126,10.117 0.605,10.234 0,10.234 -0.604,10.234 -1.126,10.117 -1.566,9.881 -2.008,9.645 -2.372,9.308 -2.662,8.866 -2.952,8.425 -3.169,7.889 -3.314,7.255 -3.459,6.621 -3.532,5.911 -3.532,5.126 c 0,-0.797 0.073,-1.51 0.218,-2.137 C -3.169,2.36 -2.952,1.823 -2.662,1.376 -2.372,0.929 -2.008,0.588 -1.566,0.353 -1.126,0.118 -0.604,0 0,0 m 0,-1.594 c -0.941,0 -1.757,0.166 -2.445,0.498 -0.689,0.332 -1.259,0.796 -1.712,1.395 -0.453,0.598 -0.791,1.306 -1.014,2.128 -0.223,0.821 -0.335,1.721 -0.335,2.699 0,0.978 0.112,1.878 0.335,2.699 0.223,0.821 0.561,1.53 1.014,2.129 0.453,0.598 1.023,1.065 1.712,1.404 0.688,0.337 1.504,0.506 2.445,0.506 0.942,0 1.758,-0.169 2.446,-0.506 C 3.135,11.019 3.705,10.552 4.158,9.954 4.61,9.355 4.945,8.646 5.163,7.825 5.38,7.004 5.49,6.104 5.49,5.126 5.49,4.148 5.38,3.248 5.163,2.427 4.945,1.605 4.61,0.897 4.158,0.299 3.705,-0.3 3.135,-0.764 2.446,-1.096 1.758,-1.428 0.942,-1.594 0,-1.594" />
    </g>
    <g
       transform="matrix(1.25,0,0,-1.25,633.69477,286.06107)"
       id="g110">
      <path
         id="path112"
         style="fill:#000000;fill-opacity:1;fill-rule:nonzero;stroke:none"
         d="m 0,0 c 0.169,-0.025 0.383,-0.042 0.643,-0.054 0.259,-0.013 0.517,-0.018 0.77,-0.018 0.434,0 0.842,0.035 1.222,0.108 0.381,0.072 0.716,0.197 1.006,0.372 0.29,0.174 0.519,0.41 0.688,0.706 0.169,0.295 0.254,0.673 0.254,1.133 0,0.445 -0.079,0.823 -0.236,1.131 C 4.19,3.686 3.976,3.934 3.704,4.121 3.432,4.308 3.109,4.44 2.736,4.519 2.36,4.598 1.956,4.637 1.522,4.637 L 0,4.637 0,0 Z m 1.322,6.159 c 0.821,0 1.449,0.177 1.884,0.534 0.435,0.356 0.652,0.891 0.652,1.603 0,0.688 -0.232,1.202 -0.697,1.54 -0.466,0.338 -1.096,0.507 -1.893,0.507 -0.242,0 -0.474,-0.007 -0.698,-0.018 C 0.347,10.313 0.157,10.294 0,10.27 l 0,-4.111 1.322,0 z m -3.152,5.434 c 0.302,0.06 0.725,0.108 1.269,0.145 0.543,0.036 1.092,0.054 1.648,0.054 0.688,0 1.315,-0.06 1.883,-0.181 C 3.538,11.49 4.024,11.295 4.428,11.022 4.833,10.751 5.147,10.4 5.37,9.972 5.594,9.542 5.706,9.021 5.706,8.405 5.706,8.03 5.648,7.683 5.534,7.363 5.419,7.043 5.264,6.759 5.072,6.512 4.878,6.264 4.656,6.06 4.401,5.896 4.148,5.733 3.889,5.615 3.622,5.542 3.961,5.507 4.302,5.416 4.646,5.271 4.99,5.126 5.301,4.921 5.579,4.656 5.856,4.389 6.083,4.054 6.259,3.65 6.433,3.245 6.521,2.753 6.521,2.174 6.521,1.473 6.382,0.878 6.104,0.389 5.826,-0.1 5.449,-0.495 4.972,-0.797 4.495,-1.099 3.933,-1.316 3.287,-1.449 2.641,-1.581 1.95,-1.648 1.214,-1.648 c -0.46,0 -0.961,0.021 -1.504,0.063 -0.544,0.043 -1.057,0.093 -1.54,0.154 l 0,13.024 z" />
    </g>
    <g
       transform="matrix(1.25,0,0,-1.25,646.03528,271.5472)"
       id="g114">
      <path
         id="path116"
         style="fill:#000000;fill-opacity:1;fill-rule:nonzero;stroke:none"
         d="m 0,0 c 0.266,0.024 0.507,0.048 0.725,0.072 0.217,0.024 0.431,0.046 0.643,0.064 0.211,0.018 0.432,0.033 0.661,0.045 0.23,0.012 0.483,0.018 0.761,0.018 0.616,0 1.225,-0.061 1.83,-0.181 0.603,-0.121 1.141,-0.332 1.612,-0.634 0.47,-0.302 0.854,-0.71 1.149,-1.222 0.297,-0.514 0.445,-1.163 0.445,-1.948 0,-0.471 -0.079,-0.899 -0.236,-1.286 C 7.433,-5.459 7.234,-5.803 6.992,-6.104 6.751,-6.406 6.476,-6.669 6.168,-6.893 5.86,-7.116 5.561,-7.3 5.271,-7.445 l -0.217,-0.109 3.785,-5.488 c -0.325,-0.036 -0.694,-0.054 -1.104,-0.054 -0.327,0 -0.652,0.018 -0.978,0.054 l -4.166,6.032 0,0.073 0.145,0.035 c 0.325,0.085 0.67,0.199 1.031,0.344 0.363,0.145 0.698,0.336 1.006,0.571 0.309,0.235 0.565,0.52 0.771,0.852 0.204,0.332 0.307,0.733 0.307,1.204 0,0.869 -0.257,1.515 -0.769,1.938 -0.514,0.423 -1.205,0.634 -2.075,0.634 -0.205,0 -0.396,-0.006 -0.57,-0.017 C 2.262,-1.389 2.065,-1.407 1.848,-1.432 l 0,-11.61 c -0.134,-0.012 -0.281,-0.024 -0.444,-0.036 -0.163,-0.012 -0.317,-0.018 -0.462,-0.018 -0.145,0 -0.302,0.003 -0.47,0.008 -0.17,0.007 -0.327,0.022 -0.472,0.046 L 0,0 Z" />
    </g>
    <g
       transform="matrix(1.25,0,0,-1.25,663.08377,282.07657)"
       id="g118">
      <path
         id="path120"
         style="fill:#000000;fill-opacity:1;fill-rule:nonzero;stroke:none"
         d="M 0,0 3.968,0 1.975,6.648 0,0 Z m 4.456,-1.612 -4.945,0 -0.887,-3.007 c -0.158,-0.024 -0.315,-0.042 -0.471,-0.054 -0.157,-0.012 -0.314,-0.018 -0.471,-0.018 -0.17,0 -0.335,0.006 -0.499,0.018 -0.162,0.012 -0.31,0.03 -0.443,0.054 L 0.979,8.405 C 1.136,8.429 1.305,8.447 1.486,8.46 1.667,8.472 1.854,8.478 2.048,8.478 2.216,8.478 2.392,8.472 2.572,8.46 2.754,8.447 2.928,8.429 3.098,8.405 L 7.319,-4.619 C 7.174,-4.643 7.01,-4.661 6.83,-4.673 6.648,-4.685 6.473,-4.691 6.304,-4.691 c -0.157,0 -0.317,0.006 -0.48,0.018 -0.163,0.012 -0.317,0.03 -0.462,0.054 l -0.906,3.007 z" />
    </g>
    <g
       transform="matrix(1.25,0,0,-1.25,675.33365,285.38232)"
       id="g122">
      <path
         id="path124"
         style="fill:#000000;fill-opacity:1;fill-rule:nonzero;stroke:none"
         d="m 0,0 c 0.399,-0.145 0.816,-0.271 1.25,-0.38 0.435,-0.109 0.966,-0.163 1.594,-0.163 0.99,0 1.73,0.202 2.219,0.607 0.489,0.404 0.734,0.951 0.734,1.64 0,0.337 -0.052,0.627 -0.154,0.868 C 5.54,2.815 5.386,3.022 5.181,3.197 4.976,3.373 4.719,3.533 4.411,3.678 4.103,3.823 3.744,3.979 3.334,4.148 L 2.301,4.565 C 1.95,4.71 1.63,4.87 1.34,5.045 1.051,5.22 0.8,5.434 0.589,5.689 0.378,5.942 0.211,6.235 0.091,6.567 -0.03,6.899 -0.09,7.294 -0.09,7.753 c 0,1.099 0.373,1.959 1.123,2.581 0.748,0.622 1.799,0.933 3.152,0.933 0.58,0 1.128,-0.048 1.648,-0.145 C 6.352,11.025 6.811,10.905 7.209,10.76 7.149,10.253 7.017,9.751 6.811,9.257 6.485,9.377 6.107,9.486 5.679,9.583 5.25,9.679 4.765,9.727 4.221,9.727 3.46,9.727 2.874,9.574 2.464,9.266 2.053,8.957 1.847,8.495 1.847,7.88 1.847,7.627 1.899,7.4 2.002,7.201 2.104,7.002 2.24,6.826 2.41,6.675 2.579,6.525 2.778,6.388 3.007,6.268 3.236,6.147 3.479,6.038 3.732,5.942 L 4.746,5.544 C 5.229,5.35 5.658,5.148 6.032,4.937 6.407,4.725 6.727,4.477 6.992,4.194 7.258,3.91 7.46,3.575 7.599,3.189 7.738,2.802 7.807,2.349 7.807,1.83 7.807,0.586 7.379,-0.395 6.521,-1.114 5.664,-1.832 4.462,-2.191 2.916,-2.191 2.542,-2.191 2.204,-2.18 1.903,-2.155 1.6,-2.131 1.32,-2.094 1.06,-2.047 0.8,-1.998 0.549,-1.938 0.308,-1.866 c -0.242,0.073 -0.489,0.152 -0.743,0.236 0.025,0.266 0.079,0.538 0.164,0.816 C -0.187,-0.538 -0.096,-0.265 0,0" />
    </g>
    <g
       transform="matrix(1.25,0,0,-1.25,689.21415,271.5702)"
       id="g126">
      <path
         id="path128"
         style="fill:#000000;fill-opacity:1;fill-rule:nonzero;stroke:none"
         d="m 0,0 c 0.145,0.024 0.295,0.042 0.452,0.055 0.157,0.012 0.315,0.017 0.472,0.017 0.157,0 0.313,-0.005 0.47,-0.017 C 1.551,0.042 1.703,0.024 1.848,0 l 0,-13.024 c -0.145,-0.024 -0.294,-0.042 -0.444,-0.054 -0.151,-0.012 -0.311,-0.018 -0.48,-0.018 -0.157,0 -0.317,0.006 -0.48,0.018 -0.164,0.012 -0.312,0.03 -0.444,0.054 L 0,0 Z" />
    </g>
    <g
       transform="matrix(1.25,0,0,-1.25,696.64115,271.5702)"
       id="g130">
      <path
         id="path132"
         style="fill:#000000;fill-opacity:1;fill-rule:nonzero;stroke:none"
         d="m 0,0 c 0.132,0.024 0.275,0.042 0.425,0.055 0.152,0.012 0.312,0.017 0.48,0.017 0.157,0 0.314,-0.005 0.471,-0.017 C 1.533,0.042 1.684,0.024 1.829,0 l 0,-11.394 5.109,0 c 0.024,-0.133 0.039,-0.271 0.044,-0.416 0.007,-0.145 0.01,-0.278 0.01,-0.398 0,-0.29 -0.018,-0.563 -0.054,-0.816 L 0,-13.024 0,0 Z" />
    </g>
    <g
       transform="matrix(1.25,0,0,-1.25,429.13328,223.55107)"
       id="g134">
      <path
         id="path136"
         style="fill:#dcda05;fill-opacity:1;fill-rule:nonzero;stroke:none"
         d="m 0,0 c -5.338,-4.495 -11.987,-6.967 -18.991,-6.967 -6.912,0 -13.392,2.397 -18.58,6.705 l -0.019,0.037 -0.018,0.038 c 5.338,4.495 11.986,6.967 18.991,6.967 6.911,0 13.392,-2.397 18.58,-6.705 L 0,0 Z" />
    </g>
    <g
       transform="matrix(1.25,0,0,-1.25,689.6404,219.90432)"
       id="g138">
      <path
         id="path140"
         style="fill:#43beee;fill-opacity:1;fill-rule:nonzero;stroke:none"
         d="m 0,0 c -1.274,-3.146 -3.484,-5.712 -6.199,-7.361 -0.206,-0.112 -0.412,-0.224 -0.618,-0.337 -0.263,-0.149 -0.544,-0.281 -0.806,-0.393 -0.262,-0.112 -0.543,-0.206 -0.824,-0.318 -0.15,-0.057 -0.318,-0.132 -0.468,-0.188 -0.075,-0.018 -0.15,-0.037 -0.225,-0.056 -1.236,-0.374 -2.547,-0.599 -3.877,-0.599 -1.348,0 -2.641,0.225 -3.877,0.599 -0.075,0.019 -0.15,0.038 -0.225,0.056 -0.168,0.056 -0.318,0.131 -0.468,0.188 -0.281,0.112 -0.562,0.206 -0.824,0.318 -0.262,0.112 -0.543,0.244 -0.805,0.393 l -0.618,0.337 c -2.716,1.649 -4.926,4.215 -6.2,7.361 -1.535,4.12 -0.543,8.26 1.311,12.024 0,0.019 11.706,23.936 11.706,23.936 0,0 11.687,-23.917 11.706,-23.936 C 0.524,8.26 1.536,4.12 0,0" />
    </g>
    <g
       transform="matrix(1.25,0,0,-1.25,326.40677,196.74182)"
       id="g142">
      <path
         id="path144"
         style="fill:#000000;fill-opacity:1;fill-rule:nonzero;stroke:none"
         d="m 0,0 c -16.775,3.596 -19.844,7.528 -19.844,13.976 l 0,0.212 c 0,6.773 6.312,11.504 15.349,11.504 7.058,0 12.918,-1.975 19.001,-6.409 0.826,-0.589 1.685,-0.852 2.783,-0.852 2.547,0 4.618,2.072 4.618,4.618 0,2.109 -1.426,3.406 -2.048,3.872 -7.189,5.171 -14.634,7.476 -24.141,7.476 -14.556,0 -25.12,-8.813 -25.12,-20.956 l 0,-0.213 c 0,-11.926 7.158,-18.126 25.538,-22.123 15.964,-3.363 18.99,-7.392 18.99,-13.651 l 0,-0.214 c 0,-7.15 -6.62,-12.145 -16.098,-12.145 -9.076,0 -16.024,2.612 -23.201,8.699 -0.694,0.695 -1.827,1.125 -2.96,1.125 -2.59,0 -4.62,-2.075 -4.62,-4.725 0,-1.514 0.684,-2.881 1.832,-3.66 8.596,-6.826 17.961,-10.143 28.629,-10.143 15.358,0 26.084,8.925 26.084,21.705 l 0,0.212 C 24.792,-10.274 17.378,-3.786 0,0" />
    </g>
    <g
       transform="matrix(1.25,0,0,-1.25,531.07265,155.23669)"
       id="g146">
      <path
         id="path148"
         style="fill:#000000;fill-opacity:1;fill-rule:nonzero;stroke:none"
         d="M 0,0 C -10.34,0 -20.459,-12.761 -26.124,-21.401 -31.784,-12.761 -41.895,0 -52.235,0 c -2.638,0 -4.776,-2.138 -4.776,-4.776 l 0,-65.16 c 0,-2.638 2.138,-4.776 4.776,-4.776 2.637,0 4.775,2.138 4.775,4.776 l 0,58.425 c 5.934,-4.156 13.143,-14.13 17.145,-21.424 0.838,-1.527 2.443,-2.479 4.187,-2.479 l 0.001,0 c 1.742,0 3.348,0.95 4.187,2.477 4.006,7.292 11.227,17.292 17.164,21.451 l 0,-58.45 c 0,-2.638 2.139,-4.776 4.776,-4.776 2.637,0 4.776,2.138 4.776,4.776 l 0,65.16 C 4.776,-2.138 2.637,0 0,0" />
    </g>
    <g
       transform="matrix(1.25,0,0,-1.25,405.3939,232.26007)"
       id="g150">
      <path
         id="path152"
         style="fill:#000000;fill-opacity:1;fill-rule:nonzero;stroke:none"
         d="m 0,0 c -6.911,0 -13.391,2.397 -18.579,6.705 l -0.019,0.037 -0.019,0.038 c 5.338,4.495 11.987,6.967 18.992,6.967 6.911,0 13.391,-2.397 18.579,-6.705 L 18.991,6.967 C 13.654,2.472 7.005,0 0,0 M 0.281,45.624 11.949,21.501 c -3.689,1.161 -7.585,1.761 -11.574,1.761 -4.083,0 -8.11,-0.637 -11.987,-1.929 L 0.281,45.624 Z m 35.923,-52.273 -5.732,11.8 c 0.019,0.018 0.019,0.037 0.038,0.056 l -0.824,1.723 -3.933,8.072 c -0.019,-0.019 -0.019,-0.037 -0.038,-0.056 l -0.018,0.056 -1.33,2.735 -19.554,40.267 -0.262,0.544 c -0.861,1.629 -2.472,2.659 -4.27,2.659 -1.817,0 -3.521,-1.03 -4.289,-2.659 l -0.169,-0.356 -19.778,-40.399 -1.442,-2.96 -3.914,-8.016 -0.88,-1.816 -5.657,-11.556 c -1.142,-2.285 -0.187,-5.132 2.192,-6.275 2.378,-1.236 5.225,-0.187 6.368,2.098 l 0.505,1.049 0.281,0.581 2.51,5.113 0.993,2.041 0.018,0.019 c 0.019,0 0.019,-0.019 0.038,-0.019 0.487,-0.374 0.992,-0.712 1.498,-1.067 3.053,-2.042 6.368,-3.634 9.87,-4.739 3.69,-1.161 7.586,-1.76 11.575,-1.76 4.083,0 8.11,0.636 11.987,1.929 1.086,0.356 2.154,0.768 3.221,1.217 2.341,0.993 4.551,2.191 6.649,3.596 0.468,0.3 0.937,0.618 1.386,0.955 l 1.086,-2.229 3.559,-7.379 c 0.506,-0.449 0.786,-0.712 0.805,-0.73 0.862,-0.862 2.098,-1.349 3.24,-1.349 0.937,0 1.986,0.3 2.847,0.955 1.798,1.33 2.472,3.802 1.424,5.9" />
    </g>
    <g
       transform="matrix(1.25,0,0,-1.25,689.6404,219.90432)"
       id="g154">
      <path
         id="path156"
         style="fill:#000000;fill-opacity:1;fill-rule:nonzero;stroke:none"
         d="m 0,0 c -1.274,-3.146 -3.484,-5.712 -6.199,-7.361 -0.206,-0.112 -0.412,-0.224 -0.618,-0.337 -0.263,-0.149 -0.544,-0.281 -0.806,-0.393 -0.262,-0.112 -0.543,-0.206 -0.824,-0.318 -0.15,-0.057 -0.318,-0.132 -0.468,-0.188 -0.075,-0.018 -0.15,-0.037 -0.225,-0.056 -1.236,-0.374 -2.547,-0.599 -3.877,-0.599 -1.348,0 -2.641,0.225 -3.877,0.599 -0.075,0.019 -0.15,0.038 -0.225,0.056 -0.168,0.056 -0.318,0.131 -0.468,0.188 -0.281,0.112 -0.562,0.206 -0.824,0.318 -0.262,0.112 -0.543,0.244 -0.805,0.393 l -0.618,0.337 c -2.716,1.649 -4.926,4.215 -6.2,7.361 -1.535,4.12 -0.543,8.26 1.311,12.024 0,0.019 11.706,23.936 11.706,23.936 0,0 11.687,-23.917 11.706,-23.936 C 0.524,8.26 1.536,4.12 0,0 m 23.018,-16.032 -31.409,64.559 -0.262,0.544 c -0.861,1.629 -2.472,2.659 -4.27,2.659 -0.038,0 -0.056,-0.019 -0.094,-0.019 -0.037,0 -0.056,0.019 -0.093,0.019 -1.799,0 -3.409,-1.03 -4.271,-2.659 l -0.262,-0.544 -31.409,-64.559 c -0.337,-0.656 -0.468,-1.367 -0.468,-2.06 -0.038,-1.143 0.356,-2.248 1.068,-3.128 0.243,-0.3 0.524,-0.562 0.842,-0.805 0.637,-0.487 1.405,-0.787 2.136,-0.9 0.243,-0.037 0.468,-0.056 0.711,-0.056 1.143,0 2.379,0.487 3.24,1.349 0,0 0.019,0.056 0.075,0.15 0.375,0.374 0.712,0.786 0.955,1.273 l 6.855,14.01 c 4.121,-7.529 11.818,-12.605 20.621,-12.605 8.803,0 16.501,5.076 20.621,12.605 l 6.855,-14.01 c 0.243,-0.487 0.581,-0.899 0.955,-1.273 0.056,-0.094 0.075,-0.15 0.075,-0.15 0.862,-0.862 2.098,-1.349 3.24,-1.349 0.693,0 1.461,0.169 2.173,0.525 0.225,0.131 0.449,0.262 0.674,0.431 0.318,0.243 0.599,0.505 0.824,0.805 0.73,0.88 1.105,1.985 1.086,3.128 0,0.693 -0.131,1.404 -0.468,2.06" />
    </g>
    <g
       transform="matrix(1.25,0,0,-1.25,608.48752,231.6657)"
       id="g158">
      <path
         id="path160"
         style="fill:#000000;fill-opacity:1;fill-rule:nonzero;stroke:none"
         d="m 0,0 c -2.8,-2.787 -6.506,-4.322 -10.433,-4.322 l -25.604,0 c 0.005,0 -0.01,3.746 0.003,4.213 0.257,9.404 5.559,17.386 13.574,22.093 7.083,4.16 16.219,5.064 22.444,-1.131 C 2.771,18.052 4.307,14.347 4.307,10.418 4.307,6.475 2.775,2.773 0,0 m -36.037,51.286 24.554,0 c 4.577,0 8.299,-3.722 8.299,-8.296 0,-7.723 -8.239,-7.81 -13.745,-8.948 -3.649,-0.755 -7.199,-2.008 -10.477,-3.785 -1.636,-0.886 -3.203,-1.9 -4.678,-3.036 -0.687,-0.53 -3.964,-2.705 -3.967,-3.582 0.032,9.215 0.014,18.431 0.014,27.647 M 6.738,27.607 c -1.48,1.473 -3.128,2.708 -4.88,3.739 2.841,3.119 4.509,7.2 4.509,11.643 0,9.842 -8.008,17.848 -17.85,17.848 l -29.33,0 c -2.637,0 -4.775,-2.138 -4.775,-4.776 l 0,-56.505 0,-8.654 c 0,-2.637 2.138,-4.775 4.775,-4.775 l 30.38,0 c 6.469,0 12.567,2.522 17.178,7.109 4.588,4.586 7.114,10.687 7.114,17.182 0,6.471 -2.523,12.569 -7.121,17.189" />
    </g>
  </g>
</svg>
