<?xml version="1.0" encoding="UTF-8" standalone="no"?>
<svg
   xmlns:dc="http://purl.org/dc/elements/1.1/"
   xmlns:cc="http://creativecommons.org/ns#"
   xmlns:rdf="http://www.w3.org/1999/02/22-rdf-syntax-ns#"
   xmlns:svg="http://www.w3.org/2000/svg"
   xmlns="http://www.w3.org/2000/svg"
   version="1.1"
   id="svg10453"
   viewBox="0 0 165.34144 37.294999"
   height="10.525477mm"
   width="46.663029mm">
  <defs
     id="defs10455" />
  <metadata
     id="metadata10458">
    <rdf:RDF>
      <cc:Work
         rdf:about="">
        <dc:format>image/svg+xml</dc:format>
        <dc:type
           rdf:resource="http://purl.org/dc/dcmitype/StillImage" />
        <dc:title></dc:title>
      </cc:Work>
    </rdf:RDF>
  </metadata>
  <g
     transform="translate(-225.90071,-425.14328)"
     id="layer1">
    <g
       transform="matrix(1.25,0,0,-1.25,241.08196,441.58828)"
       id="g1962">
      <path
         id="path1964"
         style="fill:#ffffff;fill-opacity:1;fill-rule:nonzero;stroke:none"
         d="m 0,0 c -6.416,1.375 -7.59,2.879 -7.59,5.345 l 0,0.082 c 0,2.59 2.414,4.4 5.871,4.4 2.699,0 4.941,-0.756 7.267,-2.451 C 5.864,7.15 6.193,7.05 6.613,7.05 c 0.974,0 1.766,0.792 1.766,1.766 0,0.807 -0.546,1.303 -0.783,1.481 -2.75,1.978 -5.598,2.859 -9.234,2.859 -5.567,0 -9.608,-3.37 -9.608,-8.015 l 0,-0.082 c 0,-4.561 2.738,-6.932 9.768,-8.461 6.106,-1.287 7.264,-2.828 7.264,-5.222 l 0,-0.081 c 0,-2.735 -2.533,-4.646 -6.158,-4.646 -3.471,0 -6.129,0.999 -8.874,3.328 -0.265,0.265 -0.699,0.43 -1.132,0.43 -0.991,0 -1.767,-0.794 -1.767,-1.807 0,-0.579 0.262,-1.102 0.701,-1.4 3.288,-2.611 6.87,-3.88 10.95,-3.88 5.874,0 9.976,3.414 9.976,8.302 l 0,0.081 C 9.482,-3.93 6.647,-1.448 0,0" />
    </g>
    <g
       transform="matrix(1.25,0,0,-1.25,319.36347,425.71328)"
       id="g1966">
      <path
         id="path1968"
         style="fill:#ffffff;fill-opacity:1;fill-rule:nonzero;stroke:none"
         d="M 0,0 C -3.955,0 -7.825,-4.881 -9.992,-8.186 -12.157,-4.881 -16.024,0 -19.979,0 c -1.009,0 -1.827,-0.818 -1.827,-1.827 l 0,-24.923 c 0,-1.008 0.818,-1.826 1.827,-1.826 1.009,0 1.826,0.818 1.826,1.826 l 0,22.347 c 2.27,-1.589 5.027,-5.404 6.558,-8.194 0.321,-0.584 0.935,-0.948 1.602,-0.948 l 0,0 c 0.666,0 1.281,0.363 1.601,0.947 1.533,2.789 4.295,6.614 6.565,8.205 l 0,-22.357 c 0,-1.008 0.818,-1.826 1.827,-1.826 1.009,0 1.827,0.818 1.827,1.826 l 0,24.923 C 1.827,-0.818 1.009,0 0,0" />
    </g>
    <g
       transform="matrix(1.25,0,0,-1.25,271.29334,455.17353)"
       id="g1970">
      <path
         id="path1972"
         style="fill:#ffffff;fill-opacity:1;fill-rule:nonzero;stroke:none"
         d="m 0,0 c -2.643,0 -5.122,0.917 -7.106,2.565 l -0.008,0.014 -0.007,0.014 c 2.042,1.72 4.585,2.665 7.264,2.665 2.644,0 5.122,-0.917 7.107,-2.564 L 7.264,2.665 C 5.222,0.946 2.679,0 0,0 M 0.107,17.451 4.57,8.224 C 3.159,8.668 1.669,8.897 0.143,8.897 c -1.561,0 -3.102,-0.243 -4.584,-0.738 l 4.548,9.292 z M 13.847,-2.543 11.655,1.97 c 0.007,0.007 0.007,0.014 0.015,0.021 L 11.354,2.651 9.85,5.738 C 9.843,5.731 9.843,5.724 9.836,5.717 L 9.828,5.738 9.32,6.784 1.841,22.186 l -0.1,0.208 c -0.33,0.623 -0.946,1.017 -1.634,1.017 -0.694,0 -1.346,-0.394 -1.64,-1.017 L -1.597,22.257 -9.162,6.805 -9.714,5.674 l -1.497,-3.066 -0.337,-0.695 -2.163,-4.42 c -0.437,-0.874 -0.072,-1.963 0.838,-2.4 0.91,-0.473 1.999,-0.072 2.436,0.802 l 0.193,0.401 0.107,0.222 0.96,1.956 0.38,0.781 0.007,0.007 c 0.007,0 0.007,-0.007 0.015,-0.007 0.186,-0.143 0.379,-0.272 0.573,-0.408 1.167,-0.781 2.435,-1.39 3.775,-1.813 1.411,-0.444 2.901,-0.673 4.427,-0.673 1.562,0 3.102,0.243 4.585,0.738 0.415,0.136 0.824,0.293 1.232,0.465 0.895,0.38 1.741,0.839 2.543,1.376 0.179,0.114 0.358,0.236 0.53,0.365 l 0.416,-0.852 1.361,-2.823 c 0.193,-0.172 0.3,-0.272 0.308,-0.279 0.329,-0.33 0.802,-0.516 1.239,-0.516 0.358,0 0.759,0.115 1.089,0.365 0.688,0.509 0.945,1.455 0.544,2.257" />
    </g>
    <g
       transform="matrix(1.25,0,0,-1.25,380.01309,450.44765)"
       id="g1974">
      <path
         id="path1976"
         style="fill:#ffffff;fill-opacity:1;fill-rule:nonzero;stroke:none"
         d="m 0,0 c -0.487,-1.203 -1.332,-2.185 -2.371,-2.815 l -0.237,-0.129 c -0.1,-0.058 -0.207,-0.108 -0.308,-0.151 -0.1,-0.043 -0.207,-0.078 -0.315,-0.121 -0.057,-0.022 -0.122,-0.051 -0.179,-0.072 -0.029,-0.007 -0.057,-0.014 -0.086,-0.022 -0.473,-0.143 -0.974,-0.229 -1.483,-0.229 -0.516,0 -1.01,0.086 -1.483,0.229 -0.028,0.008 -0.057,0.015 -0.086,0.022 -0.064,0.021 -0.121,0.05 -0.179,0.072 -0.107,0.043 -0.215,0.078 -0.315,0.121 -0.1,0.043 -0.208,0.093 -0.308,0.151 l -0.236,0.129 c -1.039,0.63 -1.884,1.612 -2.371,2.815 -0.588,1.576 -0.208,3.159 0.501,4.599 0,0.007 4.477,9.155 4.477,9.155 0,0 4.47,-9.148 4.478,-9.155 C 0.201,3.159 0.587,1.576 0,0 M 8.804,-6.132 -3.209,18.561 -3.31,18.769 c -0.329,0.623 -0.945,1.017 -1.633,1.017 -0.014,0 -0.021,-0.007 -0.036,-0.007 -0.014,0 -0.021,0.007 -0.036,0.007 -0.687,0 -1.303,-0.394 -1.633,-1.017 l -0.1,-0.208 -12.014,-24.693 c -0.129,-0.251 -0.179,-0.523 -0.179,-0.788 -0.014,-0.437 0.136,-0.86 0.409,-1.196 0.093,-0.115 0.2,-0.215 0.322,-0.308 0.244,-0.187 0.537,-0.301 0.817,-0.344 0.093,-0.015 0.179,-0.022 0.272,-0.022 0.437,0 0.91,0.187 1.239,0.516 0,0 0.007,0.022 0.029,0.057 0.143,0.144 0.272,0.301 0.365,0.487 l 2.622,5.359 c 1.576,-2.88 4.52,-4.821 7.887,-4.821 3.367,0 6.311,1.941 7.887,4.821 L 5.53,-7.73 c 0.093,-0.186 0.222,-0.343 0.366,-0.487 0.021,-0.035 0.028,-0.057 0.028,-0.057 0.33,-0.329 0.803,-0.516 1.24,-0.516 0.265,0 0.558,0.065 0.831,0.201 0.086,0.05 0.172,0.1 0.258,0.165 0.121,0.093 0.229,0.193 0.315,0.308 0.279,0.336 0.422,0.759 0.415,1.196 0,0.265 -0.05,0.537 -0.179,0.788" />
    </g>
    <g
       transform="matrix(1.25,0,0,-1.25,348.97334,454.94615)"
       id="g1978">
      <path
         id="path1980"
         style="fill:#ffffff;fill-opacity:1;fill-rule:nonzero;stroke:none"
         d="m 0,0 c -1.071,-1.066 -2.488,-1.653 -3.99,-1.653 l -9.794,0 c 0.002,0 -0.003,1.433 0.002,1.611 0.098,3.597 2.126,6.65 5.191,8.451 2.71,1.591 6.204,1.937 8.585,-0.433 C 1.06,6.905 1.647,5.487 1.647,3.985 1.647,2.476 1.061,1.061 0,0 m -13.784,19.616 9.392,0 c 1.75,0 3.174,-1.424 3.174,-3.173 0,-2.954 -3.151,-2.987 -5.257,-3.423 -1.396,-0.288 -2.753,-0.768 -4.007,-1.447 -0.626,-0.339 -1.225,-0.727 -1.789,-1.161 -0.264,-0.203 -1.517,-1.035 -1.518,-1.37 0.012,3.524 0.005,7.049 0.005,10.574 M 2.577,10.559 c -0.566,0.564 -1.196,1.036 -1.866,1.43 1.086,1.193 1.724,2.754 1.724,4.454 0,3.764 -3.063,6.826 -6.827,6.826 l -11.218,0 c -1.009,0 -1.827,-0.818 -1.827,-1.826 l 0,-21.613 0,-3.31 c 0,-1.008 0.818,-1.826 1.827,-1.826 l 11.62,0 c 2.474,0 4.806,0.964 6.57,2.719 1.755,1.754 2.721,4.088 2.721,6.572 0,2.475 -0.965,4.807 -2.724,6.574" />
    </g>
  </g>
</svg>
