<svg id="Layer_1" data-name="Layer 1" xmlns="http://www.w3.org/2000/svg" viewBox="0 0 265 265"><title>Iconografia - 256x256</title><path d="M207.23,39.24H182.06V29.91a6.86,6.86,0,0,0-6.84-6.84H156.42V11.34a6.84,6.84,0,0,0-6.84-6.84H115.39a6.86,6.86,0,0,0-6.84,6.84V23.07H89.78a6.84,6.84,0,0,0-6.84,6.84v9.33H57.77a6.84,6.84,0,0,0-6.84,6.84V253.66a6.86,6.86,0,0,0,6.84,6.84H207.23a6.84,6.84,0,0,0,6.84-6.84V46.08A6.81,6.81,0,0,0,207.23,39.24ZM96.61,36.74h18.77a6.81,6.81,0,0,0,6.84-6.84V18.18h20.52V29.91a6.84,6.84,0,0,0,6.84,6.84h18.81V52.06H96.61V36.74ZM200.39,246.82H64.61V52.92H82.94v6a6.81,6.81,0,0,0,6.84,6.84h85.45a6.84,6.84,0,0,0,6.84-6.84v-6h18.33V246.82Z"/><path d="M170,116l-44.76,51.84-21.2-26.09a6.84,6.84,0,0,0-10.63,8.62l26.16,32.14a5.64,5.64,0,0,0,1.06,1.16c0.1,0.07.21,0.17,0.31,0.24s0.48,0.34.72,0.48a4.6,4.6,0,0,0,.82.41,1.71,1.71,0,0,0,.44.17,4.43,4.43,0,0,0,1.16.27,5.21,5.21,0,0,0,1,.1,6.29,6.29,0,0,0,1.13-.1,5.22,5.22,0,0,0,1-.24,7.79,7.79,0,0,0,.79-0.34,4.07,4.07,0,0,0,.55-0.27,7.49,7.49,0,0,0,1.71-1.44l0.24-.31L180.39,125A6.85,6.85,0,0,0,170,116Z"/></svg>