<svg id="Layer_1" data-name="Layer 1" xmlns="http://www.w3.org/2000/svg" viewBox="0 0 265 265"><title>Iconografia - 256x256</title><path d="M162.27,139.41l-40.46,46.85-19-23.32a6.83,6.83,0,1,0-10.6,8.62l23.87,29.34a6.79,6.79,0,0,0,1.06,1.16,6.88,6.88,0,0,0,2.15,1.27,6.24,6.24,0,0,0,.85.24,2.35,2.35,0,0,0,.44.07,5.22,5.22,0,0,0,1,.1,6.29,6.29,0,0,0,1.13-.1,5.22,5.22,0,0,0,1-.24,0.9,0.9,0,0,0,.27-0.1,5.47,5.47,0,0,0,.92-0.41,0.26,0.26,0,0,0,.14-0.07c0.31-.21.58-0.41,0.85-0.62a6.43,6.43,0,0,0,.85-0.82l0.24-.31,45.58-52.73A6.84,6.84,0,0,0,162.27,139.41Z"/><path d="M262.54,88.28a6.76,6.76,0,0,0-5-2.19h-4.21V27.58a6.84,6.84,0,0,0-6.84-6.84H121.17v-9.4a6.84,6.84,0,0,0-6.84-6.84H18.47a6.84,6.84,0,0,0-6.84,6.84V86.09H7.46a6.83,6.83,0,0,0-5,2.19,6.75,6.75,0,0,0-1.78,5.2L13.14,254.21A6.83,6.83,0,0,0,20,260.5H245a6.82,6.82,0,0,0,6.81-6.29L264.35,93.48A6.91,6.91,0,0,0,262.54,88.28ZM25.31,18.18h82.18v9.4a6.84,6.84,0,0,0,6.84,6.84H239.66V58H121.17v-9.4a6.86,6.86,0,0,0-6.84-6.84h-89V18.18Zm0,37.21h82.18v9.4a6.82,6.82,0,0,0,6.84,6.84H239.66V86.09H25.31V55.39ZM238.7,246.82H26.31l-11.46-147H250.13Z"/></svg>