<svg id="Layer_1" data-name="Layer 1" xmlns="http://www.w3.org/2000/svg" viewBox="0 0 265 265"><title>Iconografia - 256x256</title><path d="M250.7,38.53L193.32,5.4a7,7,0,0,0-6.84,0L129.1,38.53a6.86,6.86,0,0,0-3.42,6v63.74L78.56,81a6.79,6.79,0,0,0-6.84,0L14.3,114.14a6.92,6.92,0,0,0-3.42,5.92V220.52a6.84,6.84,0,0,0,3.42,5.92l57.42,33.14a0.51,0.51,0,0,0,.24.1,4.91,4.91,0,0,0,1.16.48,1.46,1.46,0,0,0,.41.14,6.28,6.28,0,0,0,1.61.21,6.68,6.68,0,0,0,1.61-.21,1.93,1.93,0,0,0,.41-0.14,5.32,5.32,0,0,0,1.13-.48,0.89,0.89,0,0,0,.27-0.1l54-31.15,54,31.15a0.72,0.72,0,0,0,.24.1,4.91,4.91,0,0,0,1.16.48,1.94,1.94,0,0,0,.41.14,6.28,6.28,0,0,0,1.61.21,6.48,6.48,0,0,0,1.61-.21,1.94,1.94,0,0,0,.41-0.14,5.58,5.58,0,0,0,1.16-.48,0.72,0.72,0,0,0,.24-0.1l57.38-33.14a6.77,6.77,0,0,0,3.42-5.92v-176A6.86,6.86,0,0,0,250.7,38.53ZM68.3,241.83L24.56,216.59v-84.7L68.3,157.16v84.67Zm6.84-96.54L31.4,120.06,75.14,94.82l43.7,25.24Zm50.54,71.3L82,241.83V157.16l43.7-25.27v84.7Zm57.38,25.24-43.7-25.24V56.32l43.7,25.24V241.83ZM189.9,69.72L146.2,44.48l43.7-25.24,43.7,25.24Zm50.54,146.87-43.7,25.24V81.55l43.7-25.24V216.59Z"/></svg>