<svg id="Layer_1" data-name="Layer 1" xmlns="http://www.w3.org/2000/svg" viewBox="0 0 265 265"><title>Iconografia - 256x256</title><path d="M260.12,80a6.85,6.85,0,0,0-12.35-4.07l-27.84,37.82L192.58,81.2a6.84,6.84,0,0,0-8.86-1.4L157,96.59,127.44,40.85a6.78,6.78,0,0,0-6.74-3.59,6.87,6.87,0,0,0-5.88,4.82L86.57,136.16l-25.1-46a6.92,6.92,0,0,0-6-3.56H36.2V11.34A6.82,6.82,0,0,0,29.36,4.5H11.72a6.84,6.84,0,0,0,0,13.68H22.52v42.3H11.72a6.84,6.84,0,1,0,0,13.68H22.52v42.3H11.72a6.84,6.84,0,0,0,0,13.68H22.52v42.3H11.72a6.84,6.84,0,0,0,0,13.68H22.52v42.3H11.72a6.84,6.84,0,0,0,0,13.68H22.52v11.56a6.84,6.84,0,0,0,13.68,0V242.1H78.5v11.56a6.84,6.84,0,0,0,13.68,0V242.1h42.3v11.56a6.84,6.84,0,0,0,13.68,0V242.1h42.3v11.56a6.84,6.84,0,0,0,13.68,0V242.1h42.3v11.56a6.84,6.84,0,0,0,13.68,0V236c0-.14,0-0.24,0-0.38s0-.27,0-0.38V80ZM246.44,228.42H36.2v-42.3H66.4l51.43,34.57a8.28,8.28,0,0,0,1.68.79l0.34,0.1a7.64,7.64,0,0,0,1.74.24,0.12,0.12,0,0,0,.07,0c0.1,0,.17,0,0.27,0l1-.1a3.17,3.17,0,0,0,.44-0.14,8.77,8.77,0,0,0,.89-0.27l0.41-.21a7.06,7.06,0,0,0,.85-0.51l0.34-.24a7.51,7.51,0,0,0,1.06-1l47.5-58.07,46.34,32.11a7,7,0,0,0,5.44,1.06l20.21-4.65v38.64Zm0-52.7-20.35,4.68-49-34a6.86,6.86,0,0,0-9.2,1.3l-47.57,58.14-48-32.25a6.65,6.65,0,0,0-3.83-1.16H36.2V100.25H51.38l31,56.84A6.85,6.85,0,0,0,95,155.79L123.13,62l25.17,47.5a7,7,0,0,0,4.27,3.42,6.82,6.82,0,0,0,5.4-.82l28-17.54,29.14,34.61a7,7,0,0,0,5.44,2.46,6.77,6.77,0,0,0,5.3-2.8l20.62-28v74.93Z"/></svg>