<svg id="Layer_1" data-name="Layer 1" xmlns="http://www.w3.org/2000/svg" viewBox="0 0 265 265"><title>Iconografia - 256x256</title><path d="M82.21,135.75a6.86,6.86,0,0,0,6.84,6.84h9.34c-7,14.4-10,20.38-11.15,23.19l-0.14-.07c-3.73,7.52-4.41,14.64-1.92,21.27a27,27,0,0,0,11.15,13l0.72,0.38a15.9,15.9,0,0,0,1.71.85c0.31,0.14.62,0.24,0.92,0.34l0.41,0.17a6.37,6.37,0,0,0,.85.34c0.14,0,.44.1,0.65,0.17a23.89,23.89,0,0,0,13.85,0c0.27-.07.55-0.17,0.79-0.24l0.62-.27a1.72,1.72,0,0,0,.44-0.17,4.39,4.39,0,0,0,.89-0.34,15.32,15.32,0,0,0,1.68-.79l1.06-.62A26.72,26.72,0,0,0,131.8,187a0.49,0.49,0,0,0,.07-0.21c2.39-6.39,1.74-13.47-1.95-21.07,0,0,0-.07-0.07-0.1-0.48-1-6.91-14.12-11.25-23h9.47a6.86,6.86,0,0,0,6.84-6.84A70.08,70.08,0,0,0,74.14,66.36V48.79h4.55a22.14,22.14,0,1,0,0-44.29H25.27a22.14,22.14,0,1,0,0,44.29h4.55V65.71H10a6.84,6.84,0,1,0,0,13.68H64.88a56.44,56.44,0,0,1,55.95,49.52H95.14A31.06,31.06,0,0,0,64.88,104.7H10a6.84,6.84,0,0,0,0,13.68H64.88A17.37,17.37,0,0,1,82.21,135.75Zm36.9,46.17a13.19,13.19,0,0,1-5,6.09l-0.89.48c-0.1.07-.21,0.1-0.31,0.17s-0.34.14-.38,0.14l-0.79.31-0.14,0a10,10,0,0,1-6.16,0,1.48,1.48,0,0,0-.17,0,0.37,0.37,0,0,1-.17-0.1l-1-.34a4.51,4.51,0,0,0-.41-0.21l-0.55-.31A13.21,13.21,0,0,1,97.91,182c-0.65-1.81-1.23-4.82,1.47-10.29,0,0,0-.07,0-0.1,0.38-.79,5-10.26,9.06-18.57,5.68,11.59,8.07,16.41,9.23,18.6l-0.1,0C119.62,175.86,120.1,179.11,119.11,181.91ZM16.79,26.63a8.47,8.47,0,0,1,8.48-8.45H78.69a8.46,8.46,0,1,1,0,16.93H25.27A8.48,8.48,0,0,1,16.79,26.63ZM43.5,48.79h17V65.71h-17V48.79Z"/><path d="M255.56,158.46L194.72,154a6.94,6.94,0,0,0-5.23,1.92c-0.38.34-38.44,36.83-54.1,52.22a18.29,18.29,0,0,0-5.16,9.54H89.5a6.49,6.49,0,0,0-1.4.14c-4,.82-7.73,3.56-10.43,7.66-3.32,5.1-4.75,11.83-3.59,17.17,1.88,8.89,9,17.89,19,17.89H168.9a6.87,6.87,0,0,0,4.45-1.64l49.41-42.51,33.31-4.92a6.82,6.82,0,0,0,5.81-6.77V165.29A6.86,6.86,0,0,0,255.56,158.46Zm-7.35,40.32-29.41,4.34a6.43,6.43,0,0,0-3.45,1.57l-49,42.13H93.12c-2.46,0-5-3.73-5.68-7a10.6,10.6,0,0,1,1.68-6.87,5.05,5.05,0,0,1,1.47-1.57h42.64a17.8,17.8,0,0,0,1.81,2.15,18.21,18.21,0,0,0,25.2.89c1.44-1.27,7.52-7.18,15.94-15.39l6.7-6.57a6.83,6.83,0,1,0-9.51-9.81l-6.74,6.6c-1.71,1.68-3.69,3.59-5.64,5.47-4.51,4.38-8.93,8.62-9.81,9.44a4.48,4.48,0,0,1-6.33-.14,4.86,4.86,0,0,1-.72-1,4.38,4.38,0,0,0-.38-1.13c0-.07-0.07-0.17-0.1-0.24a4.28,4.28,0,0,1,1.3-3.73c13.44-13.2,43.43-42,51.81-50l51.43,3.76v27.15Z"/></svg>