<svg id="Layer_1" data-name="Layer 1" xmlns="http://www.w3.org/2000/svg" viewBox="0 0 265 265"><title>Iconografia - 256x256</title><path d="M248.86,125.8l-0.85-.38-61.66-30-4.17-2-0.07,0a0.13,0.13,0,0,1,.07-0.07l-12.35-6-2.67-1.27a0.13,0.13,0,0,1-.07.07L149,77.34A7.25,7.25,0,0,0,140,79.53a7.34,7.34,0,0,0-1.44,4.34,7.2,7.2,0,0,0,2.05,5s0.44,0.48,1.13,1.27L153,95.53l3.42,1.68c-0.51.68-1,1.4-1.47,2.12a60.52,60.52,0,0,0-5.51,10.16c-0.68,1.64-1.3,3.28-1.85,5a57.49,57.49,0,0,0-3,18.33,58.83,58.83,0,0,0,2.7,17.71,59.78,59.78,0,0,0,7.25,15.12c0.55,0.79,1.06,1.57,1.64,2.29,0,0,0,0,0,.07l0,0-3.11,1.5-7.83,3.86-0.89.41-1.61.79a7.24,7.24,0,0,0-3.21,9.75,7.15,7.15,0,0,0,9.61,3.35L166.85,179l2.8-1.33,12.24-6,4.55-2.19,61.86-30.3,0.55-.24a7.29,7.29,0,0,0,4.07-6.57A7.45,7.45,0,0,0,248.86,125.8Zm-79.27,35.5-0.07,0,0,0a44.23,44.23,0,0,1-10.29-28.45,45,45,0,0,1,10.67-29.07l0.14,0.07a44.17,44.17,0,0,1,10.26,28.42A45,45,0,0,1,169.59,161.29Zm22.26-10.74a57.7,57.7,0,0,0,3-18.36,59,59,0,0,0-2.7-17.71l36.93,17.89Z"/><path d="M111,4.5H18.91a6.82,6.82,0,0,0-6.84,6.84V253.66a6.82,6.82,0,0,0,6.84,6.84H111a6.84,6.84,0,0,0,6.84-6.84V11.34A6.84,6.84,0,0,0,111,4.5Zm-6.84,30.26H75.34a6.84,6.84,0,0,0,0,13.68h28.83V65.06H58.24a6.84,6.84,0,0,0,0,13.68h45.93V95.36H75.34a6.84,6.84,0,1,0,0,13.68h28.83v16.62H58.24a6.84,6.84,0,1,0,0,13.68h45.93V156H75.34a6.84,6.84,0,0,0,0,13.68h28.83v16.62H58.24a6.84,6.84,0,0,0,0,13.68h45.93v16.59H75.34a6.84,6.84,0,1,0,0,13.68h28.83v16.62H25.75V18.18h78.41V34.76Z"/></svg>