<svg id="Layer_1" data-name="Layer 1" xmlns="http://www.w3.org/2000/svg" viewBox="0 0 265 265"><title>Iconografia - 256x256</title><path d="M17.15,179.84a33.59,33.59,0,0,0,67.19,0,32.74,32.74,0,0,0-1.78-10.74l43.12-25.3V194a33.58,33.58,0,1,0,13.68,0V143.8l43.08,25.3a33.72,33.72,0,1,0,6.94-11.8L146,131.87l43.39-25.44a33.52,33.52,0,1,0-8.75-22.5,34.29,34.29,0,0,0,1.81,10.7l-43.12,25.3V71a33.61,33.61,0,1,0-13.68,0v48.93L82.53,94.63a33.84,33.84,0,1,0-6.94,11.76L119,131.87,75.65,157.31A33.58,33.58,0,0,0,17.15,179.84ZM70.66,83.93A19.75,19.75,0,0,1,67.93,94,19.91,19.91,0,1,1,70.66,83.93Zm123.67,0a20,20,0,1,1,2.8,10.12,0.13,0.13,0,0,1-.07-0.07v0A19.68,19.68,0,0,1,194.34,83.93Zm0,95.91a19.92,19.92,0,1,1,19.93,19.9A19.9,19.9,0,0,1,194.34,179.84ZM132.52,207a19.92,19.92,0,1,1-19.93,19.9A19.92,19.92,0,0,1,132.52,207ZM112.58,38.11a19.92,19.92,0,1,1,34,14.09A19.74,19.74,0,0,1,132.52,58,20,20,0,0,1,112.58,38.11ZM30.83,179.84a19.92,19.92,0,0,1,29.82-17.3,20.44,20.44,0,0,1,7.28,7.21A19.92,19.92,0,1,1,30.83,179.84Z"/></svg>