<svg id="Layer_1" data-name="Layer 1" xmlns="http://www.w3.org/2000/svg" viewBox="0 0 265 265"><title>Iconografia - 256x256</title><path d="M237.13,116.83a6.8,6.8,0,0,0-9.57,1.33L139.35,234.75a30.42,30.42,0,0,1-42.57,5.91,30.42,30.42,0,0,1-8-39.32,30.91,30.91,0,0,0,13.3,3,36.45,36.45,0,0,0,4.31-.27,30.53,30.53,0,0,0,20.34-12l15.69-20.72a6.68,6.68,0,0,0,1.3-5.06,6.78,6.78,0,0,0-2.63-4.51l-5.27-4,9.92-13.1a6.85,6.85,0,1,0-10.91-8.27l-9.92,13.1-7.52-5.68,9.92-13.1a6.85,6.85,0,1,0-10.91-8.27l-9.92,13.1-5.27-4A6.82,6.82,0,0,0,91.65,133L76,153.76a30.86,30.86,0,0,0,1.81,39.35A44,44,0,0,0,115,260.5a41.4,41.4,0,0,0,6.15-.44,43.8,43.8,0,0,0,29.1-17L238.47,126.4A6.82,6.82,0,0,0,237.13,116.83ZM86.86,162l11.56-15.25,29,21.88-11.56,15.28a17.16,17.16,0,0,1-24,3.32L90.18,186A17.19,17.19,0,0,1,86.86,162Z"/><path d="M185,75.15A44.06,44.06,0,1,0,114.76,22L26.52,138.61a6.86,6.86,0,0,0,1.33,9.57,6.94,6.94,0,0,0,4.14,1.4,6.82,6.82,0,0,0,5.44-2.74L125.67,30.22a30.41,30.41,0,0,1,42.53-5.88,30.4,30.4,0,0,1,5.91,42.53,5.94,5.94,0,0,0-.38.62,30.87,30.87,0,0,0-38,9.16L120.1,97.41a6.79,6.79,0,0,0,1.33,9.57l39.87,30.16a6.78,6.78,0,0,0,9.57-1.33l15.69-20.72a30.88,30.88,0,0,0-1.95-39.49C184.75,75.42,184.89,75.32,185,75.15Zm-9.37,31.7-11.59,15.25-28.93-21.88L146.7,84.93a17.21,17.21,0,0,1,24-3.35l1.57,1.23A17.2,17.2,0,0,1,175.66,106.85Z"/></svg>