<svg id="Layer_1" data-name="Layer 1" xmlns="http://www.w3.org/2000/svg" viewBox="0 0 265 265"><title>Iconografia - 256x256</title><path d="M274.26,128.31a13,13,0,0,0-12-8h-4.74C251.38,60.44,202.88,11,142.11,5.12c-4.32-.42-8.7-0.62-13-0.62A128.4,128.4,0,0,0,31.58,48.78a13.1,13.1,0,0,0-3,10.65A13,13,0,0,0,35,68.52l20.84,12a12.93,12.93,0,0,0,15.87-2.27,79.46,79.46,0,0,1,84-20.19c26.52,9.38,49.86,38.3,52.52,62.33h-3.77a13,13,0,0,0-9.25,22.07l0.39,0.42c9.61,9.74,19.22,19.51,28.27,28.7a12.93,12.93,0,0,0,9.19,3.86h0.06a13,13,0,0,0,9.15-3.77q14.36-14.32,29.25-29.25A13,13,0,0,0,274.26,128.31Zm-41.19,34.15c-9.19-9.28-18.93-19.18-28.66-29.09h16.23c5.94-31.75-23.92-74.56-60.67-87.55A92.38,92.38,0,0,0,62.29,69.3l-20.84-12A115.83,115.83,0,0,1,129.1,17.49c3.86,0,7.79.16,11.75,0.55,56,5.42,104.4,53.79,104.36,115.24h17.07C252.39,143.21,242.61,153,233.07,162.46Z"/><path d="M229.92,196.35l-21-12.11A13,13,0,0,0,193,186.58a79.9,79.9,0,0,1-57.65,24.87,78.55,78.55,0,0,1-27.2-4.87c-32.53-11.91-48.11-40.54-51-62h2.56A13,13,0,0,0,69,122.37L40.54,93.94a13,13,0,0,0-18.34,0L-6.43,122.47a13,13,0,0,0-2.86,14.15,13,13,0,0,0,12,8.05H7.3a130,130,0,0,0,32.43,73,128.24,128.24,0,0,0,76.48,41.39,136.38,136.38,0,0,0,19.51,1.43A128,128,0,0,0,233.3,216,13,13,0,0,0,229.92,196.35Zm-94.2,51.16a121.91,121.91,0,0,1-17.63-1.3c-52.52-7.73-97.84-53.37-98.55-114.52H2.72c9.64-9.64,19.38-19.35,28.63-28.57l28.44,28.44H44.08c-3,27.11,15.48,71,59.63,87.22a92.06,92.06,0,0,0,98.75-23.27l21,12.08A115.85,115.85,0,0,1,135.72,247.51Z"/><path d="M112.22,154.38a6.49,6.49,0,0,0-13,0c0,13.76,11.56,25.26,26.78,27.82v9.38a6.49,6.49,0,1,0,13,0V182.2c15.22-2.56,26.78-14.06,26.78-27.82S154.22,129.12,139,126.56V96c8,2.08,13.8,7.82,13.8,14.58a6.49,6.49,0,0,0,13,0c0-13.76-11.56-25.26-26.78-27.82V73.42a6.49,6.49,0,1,0-13,0V82.8c-15.22,2.56-26.78,14.06-26.78,27.82s11.56,25.26,26.78,27.82V169C118,166.91,112.22,161.13,112.22,154.38Zm40.58,0c0,6.75-5.78,12.5-13.8,14.58V139.8C147,141.85,152.79,147.59,152.79,154.38Zm-40.58-43.76c0-6.75,5.78-12.53,13.8-14.58V125.2C118,123.15,112.22,117.37,112.22,110.62Z"/></svg>