<svg id="Layer_1" data-name="Layer 1" xmlns="http://www.w3.org/2000/svg" viewBox="0 0 16 16"><defs><style>.cls-1{fill:#1d1e1c;}.cls-2{fill:#dddb05;}.cls-3{fill:#43bfef;}</style></defs><title>Iconografia - 16x16</title><path class="cls-1" d="M12.19,2.77H10.78V2.25a0.38,0.38,0,0,0-.38-0.38H9.34V1.21A0.38,0.38,0,0,0,9,.83H7a0.38,0.38,0,0,0-.38.38V1.87H5.61a0.38,0.38,0,0,0-.38.38V2.77H3.81a0.38,0.38,0,0,0-.38.38V14.79a0.38,0.38,0,0,0,.38.38h8.38a0.38,0.38,0,0,0,.38-0.38V3.16A0.38,0.38,0,0,0,12.19,2.77ZM6,2.63H7a0.38,0.38,0,0,0,.38-0.38V1.59H8.57V2.25A0.38,0.38,0,0,0,9,2.63H10V3.49H6V2.63ZM11.8,14.41H4.2V3.54h1V3.88a0.38,0.38,0,0,0,.38.38h4.79a0.38,0.38,0,0,0,.38-0.38V3.54h1V14.41Z"/><path class="cls-2" d="M10.78,3.54V3.88a0.38,0.38,0,0,1-.38.38H5.61a0.38,0.38,0,0,1-.38-0.38V3.54h-1V14.41H11.8V3.54h-1Zm-0.09,4L7.89,10.81v0l-0.1.08,0,0,0,0H7.53l-0.07,0h0l0,0,0,0h0L7.28,10.8,5.81,9a0.38,0.38,0,0,1,.6-0.48L7.59,10l2.51-2.9A0.38,0.38,0,0,1,10.68,7.58Z"/><path class="cls-3" d="M10,2.63V3.49H6V2.63H7a0.38,0.38,0,0,0,.38-0.38V1.59H8.57V2.25A0.38,0.38,0,0,0,9,2.63H10Z"/><path class="cls-1" d="M10.68,7.58L7.89,10.81v0l-0.1.08,0,0,0,0H7.53l-0.07,0h0l0,0,0,0h0L7.28,10.8,5.81,9a0.38,0.38,0,0,1,.6-0.48L7.59,10l2.51-2.9A0.38,0.38,0,0,1,10.68,7.58Z"/></svg>