<svg id="Layer_1" data-name="Layer 1" xmlns="http://www.w3.org/2000/svg" viewBox="0 0 16 16"><defs><style>.cls-1{fill:#1d1e1c;}.cls-2{fill:#dddb05;}.cls-3{fill:#43bfef;}</style></defs><title>Iconografia - 16x16</title><path class="cls-1" d="M14.52,7.62l0,0L11,5.92l-0.23-.11h0l-0.69-.34L9.94,5.4h0l-1-.49A0.41,0.41,0,0,0,8.42,5a0.41,0.41,0,0,0-.08.24,0.4,0.4,0,0,0,.11.28L8.52,5.62l0.63,0.3L9.34,6l-0.08.12a3.39,3.39,0,0,0-.31.57c0,0.09-.07.18-0.1,0.28a3.22,3.22,0,0,0-.17,1,3.3,3.3,0,0,0,.15,1,3.35,3.35,0,0,0,.41.85L9.33,10h0l-0.17.08-0.44.22,0,0-0.09,0a0.41,0.41,0,0,0-.18.55,0.4,0.4,0,0,0,.54.19l1-.48,0.16-.07,0.69-.34L11,10.07l3.47-1.7h0A0.41,0.41,0,0,0,14.75,8,0.42,0.42,0,0,0,14.52,7.62Zm-4.44,2h0A2.48,2.48,0,0,1,9.5,8a2.52,2.52,0,0,1,.6-1.63h0A2.48,2.48,0,0,1,10.68,8,2.52,2.52,0,0,1,10.08,9.61ZM11.33,9a3.23,3.23,0,0,0,.17-1,3.31,3.31,0,0,0-.15-1l2.07,1Z"/><path class="cls-2" d="M10.68,8a2.52,2.52,0,0,1-.6,1.63h0A2.48,2.48,0,0,1,9.5,8a2.52,2.52,0,0,1,.6-1.63h0A2.48,2.48,0,0,1,10.68,8Z"/><path class="cls-1" d="M6.8,0.83H1.63a0.38,0.38,0,0,0-.38.38V14.79a0.38,0.38,0,0,0,.38.38H6.8a0.38,0.38,0,0,0,.38-0.38V1.21A0.38,0.38,0,0,0,6.8.83ZM6.41,2.52H4.8a0.38,0.38,0,1,0,0,.77H6.41V4.22H3.84a0.38,0.38,0,0,0,0,.77H6.41V5.92H4.8a0.38,0.38,0,1,0,0,.77H6.41V7.62H3.84a0.38,0.38,0,0,0,0,.77H6.41V9.31H4.8a0.38,0.38,0,1,0,0,.77H6.41V11H3.84a0.38,0.38,0,0,0,0,.77H6.41v0.93H4.8a0.38,0.38,0,1,0,0,.77H6.41v0.93H2V1.59H6.41V2.52Z"/><path class="cls-3" d="M4.41,2.91a0.38,0.38,0,0,0,.38.38H6.41V4.22H3.84a0.38,0.38,0,0,0,0,.77H6.41V5.92H4.8a0.38,0.38,0,1,0,0,.77H6.41V7.62H3.84a0.38,0.38,0,0,0,0,.77H6.41V9.31H4.8a0.38,0.38,0,1,0,0,.77H6.41V11H3.84a0.38,0.38,0,0,0,0,.77H6.41v0.93H4.8a0.38,0.38,0,1,0,0,.77H6.41v0.93H2V1.59H6.41V2.52H4.8A0.38,0.38,0,0,0,4.41,2.91Z"/></svg>