<svg id="Layer_1" data-name="Layer 1" xmlns="http://www.w3.org/2000/svg" viewBox="0 0 16 16"><defs><style>.cls-1{fill:#1d1e1c;}.cls-2{fill:#43bfef;}.cls-3{fill:#dddb05;}</style></defs><title>Iconografia - 16x16</title><path class="cls-1" d="M13.82,0.83H2.18a0.38,0.38,0,0,0-.38.38V11.49a0.38,0.38,0,0,0,.38.38H5.92L4.37,14.6a0.38,0.38,0,0,0,.14.52,0.4,0.4,0,0,0,.19,0A0.39,0.39,0,0,0,5,15l1.76-3.1H9.2L11,15a0.39,0.39,0,0,0,.34.2,0.39,0.39,0,0,0,.19,0,0.38,0.38,0,0,0,.14-0.52l-1.55-2.73h3.73a0.38,0.38,0,0,0,.38-0.38V1.21A0.38,0.38,0,0,0,13.82.83ZM13.44,11.11H2.56V3.17H13.44v7.93Zm0-8.7H2.56V1.59H13.44V2.41Z"/><path class="cls-2" d="M2.56,3.17v7.93H13.44V3.17H2.56ZM4.5,9.85a0.38,0.38,0,0,1-.77,0v-2a0.38,0.38,0,0,1,.77,0v2Zm1.94,0a0.38,0.38,0,0,1-.77,0V6.67a0.38,0.38,0,0,1,.77,0V9.85Zm1.94,0a0.38,0.38,0,0,1-.77,0V5.36a0.38,0.38,0,0,1,.77,0V9.85Zm1.94,0a0.38,0.38,0,0,1-.77,0V4.54a0.38,0.38,0,1,1,.77,0V9.85Zm1.94,0a0.38,0.38,0,0,1-.77,0V6.67a0.38,0.38,0,1,1,.77,0V9.85Z"/><rect class="cls-3" x="2.56" y="1.59" width="10.87" height="0.81"/><path class="cls-1" d="M4.5,7.82v2a0.38,0.38,0,0,1-.77,0v-2A0.38,0.38,0,0,1,4.5,7.82Z"/><path class="cls-1" d="M6.44,6.67V9.85a0.38,0.38,0,0,1-.77,0V6.67A0.38,0.38,0,0,1,6.44,6.67Z"/><path class="cls-1" d="M8.38,5.36V9.85a0.38,0.38,0,0,1-.77,0V5.36A0.38,0.38,0,0,1,8.38,5.36Z"/><path class="cls-1" d="M10.32,4.54V9.85a0.38,0.38,0,0,1-.77,0V4.54A0.38,0.38,0,1,1,10.32,4.54Z"/><path class="cls-1" d="M12.26,6.67V9.85a0.38,0.38,0,0,1-.77,0V6.67A0.38,0.38,0,1,1,12.26,6.67Z"/></svg>