<svg id="Layer_1" data-name="Layer 1" xmlns="http://www.w3.org/2000/svg" viewBox="0 0 16 16"><defs><style>.cls-1{fill:#1d1e1c;}.cls-2{fill:#dddb05;}.cls-3{fill:#43bfef;}</style></defs><title>Iconografia - 16x16</title><path class="cls-1" d="M14.6,4.95a0.38,0.38,0,0,0-.38,0l-3,1.74-0.59-.34a3.79,3.79,0,0,0,.77-2.13,3.39,3.39,0,0,0-6.77,0,3.79,3.79,0,0,0,.77,2.13l-0.59.34-3-1.74a0.38,0.38,0,0,0-.57.33v7.66a0.38,0.38,0,0,0,.19.33l3.2,1.85,0,0a0.37,0.37,0,0,0,.16,0,0.38,0.38,0,0,0,.16,0l0,0,3-1.74,3,1.74,0,0a0.37,0.37,0,0,0,.16,0,0.38,0.38,0,0,0,.16,0l0,0,3.21-1.85a0.38,0.38,0,0,0,.19-0.33V5.28A0.38,0.38,0,0,0,14.6,4.95ZM4.41,14.13L2,12.72V5.94L4.41,7.35v6.78Zm3.21-1.41L5.18,14.13V7.35L5.83,7,7.62,9.48v3.24Zm0-4.56L6.5,6.59,6.27,6.28,6,6H6a3.08,3.08,0,0,1-.66-1.74,2.62,2.62,0,0,1,5.24,0A3.1,3.1,0,0,1,10,6h0l-0.22.31L9.5,6.59,8.38,8.16,8,8.7Zm3.21,6L8.38,12.72V9.48L10.17,7l0.65,0.38v6.78ZM14,12.72l-2.44,1.41V7.35L14,5.94v6.78Z"/><path class="cls-2" d="M8,1.59A2.62,2.62,0,0,0,5.38,4.21,3.08,3.08,0,0,0,6,6H6L6.27,6.28,6.5,6.59,7.62,8.16,8,8.7l0.38-.54L9.5,6.59l0.22-.31L9.95,6h0a3.1,3.1,0,0,0,.66-1.74A2.62,2.62,0,0,0,8,1.59Zm1.24,4A1.82,1.82,0,0,1,8.45,6L8.38,6A1.79,1.79,0,0,1,8,6a1.82,1.82,0,0,1-.38,0L7.55,6A1.82,1.82,0,0,1,7.1,5.8a1.76,1.76,0,0,1-.34-0.25A1.83,1.83,0,1,1,9.24,5.55Z"/><path class="cls-1" d="M8,2.39A1.82,1.82,0,0,0,6.76,5.55a1.76,1.76,0,0,0,.34.25A1.82,1.82,0,0,0,7.55,6L7.62,6A1.82,1.82,0,0,0,8,6a1.79,1.79,0,0,0,.38,0L8.45,6a1.82,1.82,0,0,0,.79-0.43A1.82,1.82,0,0,0,8,2.39ZM8.52,5.14L8.37,5.2a1,1,0,0,1-.75,0L7.48,5.14A1.06,1.06,0,1,1,8.52,5.14Z"/><path class="cls-3" d="M9.06,4.21a1.06,1.06,0,0,1-.54.92L8.37,5.2a1,1,0,0,1-.75,0L7.48,5.14A1.06,1.06,0,1,1,9.06,4.21Z"/></svg>