<svg id="Layer_1" data-name="Layer 1" xmlns="http://www.w3.org/2000/svg" viewBox="0 0 16 16"><defs><style>.cls-1{fill:#1d1e1c;}.cls-2{fill:#dddb05;}.cls-3{fill:#43bfef;}</style></defs><title>Iconografia - 16x16</title><path class="cls-1" d="M7.32,12A2.39,2.39,0,0,0,6,11.22a2.36,2.36,0,0,0,.43-2.57A2,2,0,0,0,3,8.65a2.36,2.36,0,0,0,.43,2.57A2.4,2.4,0,0,0,2.08,12c-0.51.77-.23,2.48-0.16,2.82a0.38,0.38,0,0,0,.38.31H7.11a0.38,0.38,0,0,0,.38-0.31C7.55,14.53,7.83,12.81,7.32,12ZM6.78,14.41H2.62a3.81,3.81,0,0,1,.1-1.94,1.93,1.93,0,0,1,1-.54c0.16-.05.33-0.11,0.48-0.18a0.38,0.38,0,0,0,.13-0.61c-0.76-.85-1-1.55-0.67-2.15A1.19,1.19,0,0,1,5.76,9c0.3,0.59.08,1.3-.67,2.14a0.38,0.38,0,0,0,.13.61c0.15,0.07.32,0.12,0.48,0.18a1.92,1.92,0,0,1,1,.54A3.81,3.81,0,0,1,6.78,14.41Z"/><path class="cls-2" d="M6.78,14.41H2.62a3.81,3.81,0,0,1,.1-1.94,1.93,1.93,0,0,1,1-.54c0.16-.05.33-0.11,0.48-0.18a0.38,0.38,0,0,0,.13-0.61c-0.76-.85-1-1.55-0.67-2.15A1.19,1.19,0,0,1,5.76,9c0.3,0.59.08,1.3-.67,2.14a0.38,0.38,0,0,0,.13.61c0.15,0.07.32,0.12,0.48,0.18a1.92,1.92,0,0,1,1,.54A3.81,3.81,0,0,1,6.78,14.41Z"/><path class="cls-1" d="M13.92,12a2.39,2.39,0,0,0-1.31-.82A2.36,2.36,0,0,0,13,8.65a2,2,0,0,0-3.47,0A2.36,2.36,0,0,0,10,11.22,2.39,2.39,0,0,0,8.68,12c-0.51.77-.23,2.48-0.16,2.82a0.38,0.38,0,0,0,.38.31h4.82a0.38,0.38,0,0,0,.38-0.31C14.15,14.53,14.43,12.81,13.92,12Zm-0.54,2.36H9.22a3.81,3.81,0,0,1,.1-1.94,2,2,0,0,1,1-.54c0.16-.05.33-0.11,0.48-0.18a0.38,0.38,0,0,0,.13-0.61c-0.75-.85-1-1.55-0.67-2.14a1.19,1.19,0,0,1,2.11,0c0.3,0.59.08,1.3-.67,2.14a0.38,0.38,0,0,0,.13.61c0.15,0.07.32,0.12,0.48,0.18a2,2,0,0,1,1,.54A3.81,3.81,0,0,1,13.38,14.41Z"/><path class="cls-3" d="M13.38,14.41H9.22a3.81,3.81,0,0,1,.1-1.94,2,2,0,0,1,1-.54c0.16-.05.33-0.11,0.48-0.18a0.38,0.38,0,0,0,.13-0.61c-0.75-.85-1-1.55-0.67-2.14a1.19,1.19,0,0,1,2.11,0c0.3,0.59.08,1.3-.67,2.14a0.38,0.38,0,0,0,.13.61c0.15,0.07.32,0.12,0.48,0.18a2,2,0,0,1,1,.54A3.81,3.81,0,0,1,13.38,14.41Z"/><path class="cls-1" d="M2.48,5.93H3.54L4.47,6.86a0.38,0.38,0,0,0,.54,0l0.93-.93H10.1L11,6.86A0.38,0.38,0,0,0,11.3,7a0.38,0.38,0,0,0,.27-0.11l0.93-.93h1a0.38,0.38,0,0,0,.38-0.38V1.21A0.38,0.38,0,0,0,13.52.83h-11a0.38,0.38,0,0,0-.38.38V5.55A0.38,0.38,0,0,0,2.48,5.93ZM2.86,1.59H13.14V5.16h-0.8a0.38,0.38,0,0,0-.27.11L11.3,6l-0.77-.77a0.38,0.38,0,0,0-.27-0.11H5.78a0.38,0.38,0,0,0-.27.11L4.74,6,4,5.28A0.38,0.38,0,0,0,3.7,5.16H2.86V1.59Z"/></svg>