<svg id="Layer_1" data-name="Layer 1" xmlns="http://www.w3.org/2000/svg" viewBox="0 0 16 16"><defs><style>.cls-1{fill:#1d1e1c;}.cls-2{fill:#43bfef;}.cls-3{fill:#dddb05;}</style></defs><title>Iconografia - 16x16</title><path class="cls-1" d="M7.45,3.66A0.38,0.38,0,0,1,7.06,4H4.4a0.38,0.38,0,0,1,0-.77H7.06A0.38,0.38,0,0,1,7.45,3.66Z"/><path class="cls-1" d="M10.12,5.48a0.38,0.38,0,0,1-.38.38H4.4a0.38,0.38,0,0,1,0-.77H9.73A0.38,0.38,0,0,1,10.12,5.48Z"/><path class="cls-1" d="M10.12,7.31a0.38,0.38,0,0,1-.38.38H4.4a0.38,0.38,0,0,1,0-.77H9.73A0.38,0.38,0,0,1,10.12,7.31Z"/><path class="cls-1" d="M10.12,9.14a0.38,0.38,0,0,1-.38.38H4.4a0.38,0.38,0,0,1,0-.77H9.73A0.38,0.38,0,0,1,10.12,9.14Z"/><path class="cls-1" d="M10.12,11a0.38,0.38,0,0,1-.38.38H4.4a0.38,0.38,0,1,1,0-.77H9.73A0.38,0.38,0,0,1,10.12,11Z"/><path class="cls-1" d="M13.15,2.15H11.66V1.21A0.38,0.38,0,0,0,11.28.83H2.85a0.38,0.38,0,0,0-.38.38V12.92a0.38,0.38,0,0,0,.38.38H3.79v1.49a0.38,0.38,0,0,0,.38.38h9a0.38,0.38,0,0,0,.38-0.38V2.53A0.38,0.38,0,0,0,13.15,2.15ZM3.23,12.53V1.59h7.66V12.53H3.23Zm9.54,1.87H4.55V13.3h6.72a0.38,0.38,0,0,0,.38-0.38v-10h1.11V14.41Z"/><path class="cls-2" d="M12.77,2.91V14.41H4.55V13.3h6.72a0.38,0.38,0,0,0,.38-0.38v-10h1.11Z"/><path class="cls-3" d="M3.23,1.59V12.53h7.66V1.59H3.23ZM4.4,3.27H7.06a0.38,0.38,0,0,1,0,.77H4.4A0.38,0.38,0,0,1,4.4,3.27Zm5.34,8.08H4.4a0.38,0.38,0,1,1,0-.77H9.73A0.38,0.38,0,1,1,9.73,11.35Zm0-1.83H4.4a0.38,0.38,0,0,1,0-.77H9.73A0.38,0.38,0,0,1,9.73,9.52Zm0-1.83H4.4a0.38,0.38,0,0,1,0-.77H9.73A0.38,0.38,0,0,1,9.73,7.69Zm0-1.83H4.4a0.38,0.38,0,0,1,0-.77H9.73A0.38,0.38,0,0,1,9.73,5.87Z"/></svg>