<svg id="Layer_1" data-name="Layer 1" xmlns="http://www.w3.org/2000/svg" viewBox="0 0 16 16"><defs><style>.cls-1{fill:#1d1e1c;}.cls-2{fill:#dddb05;}.cls-3{fill:#43bfef;}</style></defs><title>Iconografia - 16x16</title><path class="cls-1" d="M12.71,6.44H11.22V3.6A3,3,0,0,0,8,.83,3,3,0,0,0,4.78,3.6V6.44H3.29a0.38,0.38,0,0,0-.38.38v8a0.38,0.38,0,0,0,.38.38h9.42a0.38,0.38,0,0,0,.38-0.38v-8A0.38,0.38,0,0,0,12.71,6.44ZM5.55,3.6A2.27,2.27,0,0,1,8,1.59a2.27,2.27,0,0,1,2.46,2V6.44H5.55V3.6Zm6.78,10.81H3.67V7.2h8.65v7.2Z"/><path class="cls-2" d="M3.67,7.2v7.2h8.65V7.2H3.67Zm5.82,5.42a0.38,0.38,0,0,1-.31.16H6.82a0.38,0.38,0,0,1-.36-0.52L7,10.76a1.21,1.21,0,1,1,2,0l0.56,1.51A0.39,0.39,0,0,1,9.49,12.62Z"/><path class="cls-1" d="M9.54,12.27L9,10.76a1.22,1.22,0,1,0-2,0L6.46,12.27a0.38,0.38,0,0,0,.36.52H9.18a0.38,0.38,0,0,0,.31-0.16A0.39,0.39,0,0,0,9.54,12.27ZM7.37,12L7.82,10.8a0.38,0.38,0,0,0-.11-0.42,0.45,0.45,0,1,1,.58,0,0.38,0.38,0,0,0-.11.42L8.63,12H7.37Z"/><path class="cls-3" d="M7.82,10.8a0.38,0.38,0,0,0-.11-0.42,0.45,0.45,0,1,1,.58,0,0.38,0.38,0,0,0-.11.42L8.63,12H7.37Z"/></svg>