<svg id="Layer_1" data-name="Layer 1" xmlns="http://www.w3.org/2000/svg" viewBox="0 0 265 265"><defs><style>.cls-1{fill:#1d1e1c;}.cls-2{fill:#dddb05;}.cls-3{fill:#43bfef;}</style></defs><title>Iconografia - 256x256</title><path class="cls-1" d="M207.23,39.24H182.06V29.91a6.86,6.86,0,0,0-6.84-6.84H156.42V11.34a6.84,6.84,0,0,0-6.84-6.84H115.39a6.86,6.86,0,0,0-6.84,6.84V23.07H89.78a6.84,6.84,0,0,0-6.84,6.84v9.33H57.77a6.84,6.84,0,0,0-6.84,6.84V253.66a6.86,6.86,0,0,0,6.84,6.84H207.23a6.84,6.84,0,0,0,6.84-6.84V46.08A6.81,6.81,0,0,0,207.23,39.24ZM96.61,36.74h18.77a6.81,6.81,0,0,0,6.84-6.84V18.18h20.52V29.91a6.84,6.84,0,0,0,6.84,6.84h18.81V52.06H96.61V36.74ZM200.39,246.82H64.61V52.92H82.94v6a6.81,6.81,0,0,0,6.84,6.84h85.45a6.84,6.84,0,0,0,6.84-6.84v-6h18.33V246.82Z"/><path class="cls-2" d="M182.06,52.92v6a6.84,6.84,0,0,1-6.84,6.84H89.78a6.81,6.81,0,0,1-6.84-6.84v-6H64.61V246.82H200.39V52.92H182.06Zm-1.68,72-49.85,57.68-0.24.31a7.49,7.49,0,0,1-1.71,1.44,4.07,4.07,0,0,1-.55.27,7.79,7.79,0,0,1-.79.34,5.22,5.22,0,0,1-1,.24,6.29,6.29,0,0,1-1.13.1,5.21,5.21,0,0,1-1-.1,4.43,4.43,0,0,1-1.16-.27,1.71,1.71,0,0,1-.44-0.17,4.6,4.6,0,0,1-.82-0.41c-0.24-.14-0.48-0.31-0.72-0.48s-0.21-.17-0.31-0.24a5.64,5.64,0,0,1-1.06-1.16L93.43,150.37a6.84,6.84,0,0,1,10.63-8.62l21.2,26.09L170,116A6.85,6.85,0,0,1,180.39,125Z"/><path class="cls-3" d="M168.39,36.74V52.06H96.61V36.74h18.77a6.81,6.81,0,0,0,6.84-6.84V18.18h20.52V29.91a6.84,6.84,0,0,0,6.84,6.84h18.81Z"/><path class="cls-1" d="M180.39,125l-49.85,57.68-0.24.31a7.49,7.49,0,0,1-1.71,1.44,4.07,4.07,0,0,1-.55.27,7.79,7.79,0,0,1-.79.34,5.22,5.22,0,0,1-1,.24,6.29,6.29,0,0,1-1.13.1,5.21,5.21,0,0,1-1-.1,4.43,4.43,0,0,1-1.16-.27,1.71,1.71,0,0,1-.44-0.17,4.6,4.6,0,0,1-.82-0.41c-0.24-.14-0.48-0.31-0.72-0.48s-0.21-.17-0.31-0.24a5.64,5.64,0,0,1-1.06-1.16L93.43,150.37a6.84,6.84,0,0,1,10.63-8.62l21.2,26.09L170,116A6.85,6.85,0,0,1,180.39,125Z"/></svg>