<svg id="Layer_1" data-name="Layer 1" xmlns="http://www.w3.org/2000/svg" viewBox="0 0 265 265"><defs><style>.cls-1{fill:#1d1e1c;}.cls-2{fill:#dddb05;}.cls-3{fill:#43bfef;}</style></defs><title>Iconografia - 256x256</title><path class="cls-1" d="M243.59,69v0A127.75,127.75,0,0,0,144.21,5.08a0,0,0,0,0,0,0h-0.1c-2.94-.31-6.05-0.44-9.54-0.51-0.58,0-1.16,0-1.78,0h-0.41c-0.68,0-1.3,0-1.74,0a0.26,0.26,0,0,0-.14,0h-0.1c-3.42,0-6.46.21-9.37,0.48h-0.17A128,128,0,0,0,21.41,68.93,126.13,126.13,0,0,0,8.79,99.57a129.88,129.88,0,0,0-4.31,33.21A128.25,128.25,0,0,0,130.57,260.5h0.1a6.51,6.51,0,0,0,1.85-.27,6.46,6.46,0,0,0,1.81.27h0.1a128.66,128.66,0,0,0,108.85-63.81,127,127,0,0,0,12.79-30.78,130.05,130.05,0,0,0,4.45-33.41A127.21,127.21,0,0,0,243.59,69Zm-18.5-3.49h-26c-5.71-15.32-13.23-28.28-22-38.23A114.32,114.32,0,0,1,225.09,65.47Zm-21.41,67-6.84.24c0,2.46,0,4.92-.14,7.39,0,0.79-.1,1.57-0.14,2.39q-0.1,2.46-.31,4.92c-0.07,1-.17,1.88-0.24,2.84-0.14,1.47-.27,2.94-0.44,4.41-0.1,1-.24,2-0.38,3-0.17,1.4-.34,2.77-0.55,4.14-0.17,1-.34,2.05-0.51,3-0.24,1.33-.44,2.67-0.72,4-0.17,1-.38,2.05-0.62,3-0.27,1.3-.55,2.56-0.85,3.83-0.21,1-.44,2-0.72,3-0.31,1.27-.65,2.5-1,3.73-0.27,1-.55,1.95-0.82,2.87-0.1.38-.21,0.75-0.31,1.09H75.89c-0.14-.34-0.21-0.72-0.34-1.09-0.27-.92-0.51-1.88-0.79-2.84-0.34-1.23-.68-2.46-1-3.73-0.27-1-.51-2-0.75-3L72.19,172c-0.21-1.09-.44-2.15-0.65-3.25s-0.44-2.39-.65-3.62-0.38-2.33-.55-3.49-0.34-2.29-.48-3.45-0.34-2.5-.48-3.76c-0.1-1.06-.21-2.15-0.31-3.25-0.14-1.33-.27-2.67-0.34-4-0.1-1.09-.14-2.19-0.21-3.28-0.07-1.33-.17-2.67-0.21-4q-0.1-2.41-.1-4.82c0-.85-0.07-1.71-0.07-2.56,0-2.43.07-4.89,0.14-7.32,0-.79.1-1.61,0.14-2.43,0.07-1.61.17-3.21,0.27-4.82,0.07-1,.17-1.92.24-2.84,0.14-1.47.27-2.94,0.44-4.38,0.1-1,.24-2,0.34-3,0.21-1.37.38-2.77,0.58-4.14,0.14-1,.31-2,0.48-3,0.21-1.37.44-2.67,0.72-4,0.17-1,.38-2,0.58-3,0.27-1.3.55-2.6,0.85-3.9,0.21-1,.44-1.92.68-2.87,0.31-1.3.65-2.56,1-3.83,0.24-.92.48-1.88,0.75-2.77l0.31-1.13H189.28l0.31,1.13c0.27,0.89.51,1.81,0.79,2.74,0.34,1.3.68,2.56,1,3.86,0.24,1,.44,1.88.65,2.8,0.31,1.37.62,2.7,0.89,4.07,0.21,0.92.38,1.85,0.55,2.74,0.27,1.47.55,2.94,0.79,4.41,0.14,0.82.27,1.68,0.41,2.53,0.24,1.61.44,3.25,0.65,4.86,0.1,0.75.21,1.47,0.27,2.22,0.21,1.85.38,3.73,0.55,5.57,0,0.55.1,1.09,0.14,1.64,0.17,2.26.27,4.48,0.38,6.74,0,0.24,0,.44,0,0.65,0.1,2.46.14,4.92,0.14,7.39h6.84Zm-77-113.81H138.3c18.33,3,35.12,20.21,46.1,46.78H80.61C91.55,38.9,108.37,21.67,126.7,18.69ZM87.86,27.24c-8.75,10-16.28,22.95-22,38.23h-26A114.53,114.53,0,0,1,87.86,27.24ZM18.16,132.5a114.17,114.17,0,0,1,13.2-53.35H61.49c-0.38,1.37-.72,2.74-1.06,4.1-0.14.62-.31,1.23-0.48,1.85-0.55,2.36-1.09,4.75-1.57,7.15-0.07.38-.1,0.72-0.17,1.09-0.41,2.09-.79,4.17-1.13,6.29-0.1.65-.21,1.3-0.27,2-0.31,1.85-.55,3.73-0.79,5.61-0.07.68-.17,1.4-0.24,2.09-0.21,1.92-.38,3.86-0.55,5.78-0.07.65-.1,1.3-0.17,1.92-0.14,2.15-.27,4.31-0.34,6.46,0,0.44-.07.89-0.07,1.3-0.1,2.56-.17,5.16-0.17,7.73v0.27c0,2.56.07,5.13,0.17,7.66,0,0.85.07,1.68,0.14,2.5,0.07,1.74.17,3.45,0.31,5.2,0.07,0.92.14,1.88,0.21,2.8,0.17,1.64.31,3.25,0.48,4.86,0.1,1,.24,1.88.34,2.84,0.21,1.64.44,3.25,0.68,4.89,0.14,0.85.24,1.71,0.38,2.56,0.31,1.95.68,3.86,1,5.78,0.1,0.51.21,1,.31,1.5,0.48,2.39,1,4.79,1.57,7.11,0.14,0.62.31,1.2,0.44,1.78,0.38,1.4.72,2.8,1.09,4.14h-30A114.19,114.19,0,0,1,18.16,132.5Zm22.13,67.57H66.07c5.64,15,12.93,27.7,21.44,37.48A114.82,114.82,0,0,1,40.29,200.07ZM134,246.86a5.54,5.54,0,0,0-1.5.24,5.79,5.79,0,0,0-1.54-.24c-19.66-.89-38.34-18.57-50.13-46.78H184.15C172.36,228.29,153.69,246,134,246.86Zm43.46-9.3c8.48-9.78,15.8-22.43,21.41-37.48h25.82A114.82,114.82,0,0,1,177.49,237.55Zm55.88-51.16h-30c0.34-1.3.68-2.63,1-4,0.17-.68.34-1.33,0.51-2,0.58-2.33,1.09-4.65,1.57-7l0.41-2.26c0.31-1.64.62-3.28,0.89-5,0.21-1.06.34-2.15,0.51-3.25,0.17-1.33.38-2.7,0.55-4.07q0.26-1.8.41-3.59c0.14-1.3.27-2.56,0.41-3.86s0.21-2.46.31-3.73,0.14-2.67.24-4,0.1-2.36.17-3.56c0.07-2,.1-4,0.1-6,0-.44,0-0.89,0-1.37V132.5c0-2.53,0-5.06-.14-7.63,0-.79-0.07-1.61-0.14-2.43-0.07-1.71-.17-3.45-0.27-5.16-0.07-.92-0.17-1.88-0.24-2.8-0.14-1.61-.27-3.21-0.44-4.79-0.1-1-.24-1.88-0.34-2.84-0.21-1.61-.41-3.21-0.65-4.82-0.14-.85-0.24-1.74-0.38-2.6q-0.46-2.82-1-5.64c-0.1-.55-0.17-1.06-0.27-1.61-0.48-2.39-1-4.72-1.57-7.08-0.14-.65-0.34-1.3-0.51-1.95-0.31-1.33-.65-2.67-1-4H233.6A114.33,114.33,0,0,1,233.36,186.39Z"/><path class="cls-2" d="M184.15,200.07C172.36,228.29,153.69,246,134,246.86a5.54,5.54,0,0,0-1.5.24,5.79,5.79,0,0,0-1.54-.24c-19.66-.89-38.34-18.57-50.13-46.78H184.15Z"/><path class="cls-3" d="M184.39,65.47H80.61c10.94-26.57,27.77-43.81,46.1-46.78H138.3C156.63,21.67,173.42,38.9,184.39,65.47Z"/><path class="cls-1" d="M166.22,125.94H139.34V99.06a6.84,6.84,0,1,0-13.68,0v26.88H98.78a6.84,6.84,0,0,0,0,13.68h26.88V166.5a6.84,6.84,0,1,0,13.68,0V139.62h26.88A6.84,6.84,0,1,0,166.22,125.94Z"/></svg>