<svg id="Layer_1" data-name="Layer 1" xmlns="http://www.w3.org/2000/svg" viewBox="0 0 265 265"><defs><style>.cls-1{fill:#1d1e1c;}.cls-2{fill:#43bfef;}.cls-3{fill:#dddb05;}</style></defs><title>Iconografia - 256x256</title><path class="cls-1" d="M236.36,4.5H28.64a6.86,6.86,0,0,0-6.84,6.84V194.78a6.84,6.84,0,0,0,6.84,6.84H95.32L67.72,250.28a6.84,6.84,0,0,0,2.56,9.33,7.05,7.05,0,0,0,3.39.89A6.88,6.88,0,0,0,79.62,257L111,201.62H154L185.41,257a6.89,6.89,0,0,0,6,3.49,7,7,0,0,0,3.35-.89,6.84,6.84,0,0,0,2.56-9.33l-27.59-48.66h66.64a6.81,6.81,0,0,0,6.84-6.84V11.34A6.84,6.84,0,0,0,236.36,4.5Zm-6.84,183.44h-194V46.39h194V187.94Zm0-155.23h-194V18.18h194V32.71Z"/><path class="cls-2" d="M35.48,46.39V187.94h194V46.39h-194ZM70.12,165.48a6.84,6.84,0,1,1-13.68,0V129.34a6.84,6.84,0,1,1,13.68,0v36.14Zm34.6,0a6.84,6.84,0,1,1-13.68,0V108.82a6.84,6.84,0,0,1,13.68,0v56.66Zm34.64,0a6.84,6.84,0,1,1-13.68,0V85.4a6.84,6.84,0,1,1,13.68,0v80.08Zm34.6,0a6.84,6.84,0,1,1-13.68,0V70.73a6.84,6.84,0,1,1,13.68,0v94.75Zm34.64,0a6.84,6.84,0,1,1-13.68,0V108.82a6.84,6.84,0,0,1,13.68,0v56.66Z"/><rect class="cls-3" x="35.48" y="18.18" width="194.04" height="14.53"/><path class="cls-1" d="M70.12,129.34v36.14a6.84,6.84,0,1,1-13.68,0V129.34A6.84,6.84,0,1,1,70.12,129.34Z"/><path class="cls-1" d="M104.72,108.82v56.66a6.84,6.84,0,1,1-13.68,0V108.82A6.84,6.84,0,0,1,104.72,108.82Z"/><path class="cls-1" d="M139.36,85.4v80.08a6.84,6.84,0,1,1-13.68,0V85.4A6.84,6.84,0,1,1,139.36,85.4Z"/><path class="cls-1" d="M174,70.73v94.75a6.84,6.84,0,1,1-13.68,0V70.73A6.84,6.84,0,1,1,174,70.73Z"/><path class="cls-1" d="M208.6,108.82v56.66a6.84,6.84,0,1,1-13.68,0V108.82A6.84,6.84,0,0,1,208.6,108.82Z"/></svg>