<svg id="Layer_1" data-name="Layer 1" xmlns="http://www.w3.org/2000/svg" viewBox="0 0 265 265"><defs><style>.cls-1{fill:#1d1e1c;}.cls-2{fill:#dddb05;}.cls-3{fill:#43bfef;}</style></defs><title>Iconografia - 256x256</title><path class="cls-1" d="M250.33,78a6.79,6.79,0,0,0-6.84,0l-53.79,31L179.16,103c9.1-13.13,13.75-25.92,13.75-38.1a60.41,60.41,0,0,0-120.82,0c0,12.17,4.62,25,13.71,38.1L75.27,109,21.48,78a6.81,6.81,0,0,0-10.22,5.92V220.66a6.77,6.77,0,0,0,3.42,5.92l57.18,33a5.23,5.23,0,0,0,.65.27,6.58,6.58,0,0,0,2.77.65,6.73,6.73,0,0,0,2.8-.65,3.34,3.34,0,0,0,.62-0.27l53.79-31,53.79,31a3.69,3.69,0,0,0,.65.27,6.58,6.58,0,0,0,2.77.65,6.73,6.73,0,0,0,2.8-.65,4.81,4.81,0,0,0,.62-0.27l57.21-33a6.77,6.77,0,0,0,3.42-5.92V83.94A6.77,6.77,0,0,0,250.33,78ZM68.43,241.83l-43.5-25.1v-121l43.5,25.1v121Zm57.21-25.1-43.53,25.1v-121l11.66-6.7,31.87,44.73v57.83Zm0-81.39-20-28-4-5.57-4-5.61L97.6,96C89.74,84.93,85.77,74.47,85.77,64.89a46.73,46.73,0,0,1,93.46,0c0,9.58-4,20-11.83,31.12l-0.1.1-4,5.61-4,5.57-20,28-6.84,9.61Zm57.21,106.49-43.53-25.1V158.9l31.91-44.73,11.63,6.7v121Zm57.21-25.1-43.53,25.1v-121l43.53-25.1v121Z"/><path class="cls-2" d="M132.48,18.18A46.78,46.78,0,0,0,85.77,64.89c0,9.58,4,20,11.83,31.12l0.07,0.1,4,5.61,4,5.57,20,28,6.84,9.61,6.84-9.61,20-28,4-5.57,4-5.61,0.1-.1c7.83-11.08,11.83-21.54,11.83-31.12A46.78,46.78,0,0,0,132.48,18.18ZM154.61,88.8a32.43,32.43,0,0,1-14.09,7.66,12.22,12.22,0,0,1-1.2.31,32,32,0,0,1-6.84.75,32.48,32.48,0,0,1-6.84-.75c-0.41-.07-0.79-0.21-1.2-0.31a32.45,32.45,0,0,1-8.07-3.25,31.43,31.43,0,0,1-6-4.41A32.61,32.61,0,1,1,154.61,88.8Z"/><path class="cls-1" d="M132.48,32.3A32.55,32.55,0,0,0,110.39,88.8a31.43,31.43,0,0,0,6,4.41,32.45,32.45,0,0,0,8.07,3.25c0.41,0.1.79,0.24,1.2,0.31a32.48,32.48,0,0,0,6.84.75,32,32,0,0,0,6.84-.75,12.22,12.22,0,0,0,1.2-.31,32.43,32.43,0,0,0,14.09-7.66A32.55,32.55,0,0,0,132.48,32.3Zm9.27,49.07a16.47,16.47,0,0,1-2.6,1.23,18.67,18.67,0,0,1-13.34,0,18,18,0,0,1-2.6-1.23A18.95,18.95,0,1,1,141.75,81.38Z"/><path class="cls-3" d="M151.43,64.89a18.89,18.89,0,0,1-9.68,16.48,16.47,16.47,0,0,1-2.6,1.23,18.67,18.67,0,0,1-13.34,0,18,18,0,0,1-2.6-1.23A18.92,18.92,0,1,1,151.43,64.89Z"/></svg>