<svg id="Layer_1" data-name="Layer 1" xmlns="http://www.w3.org/2000/svg" viewBox="0 0 265 265"><defs><style>.cls-1{fill:#1d1e1c;}.cls-2{fill:#dddb05;}.cls-3{fill:#43bfef;}</style></defs><title>Iconografia - 256x256</title><path class="cls-1" d="M120.43,204.66C115,196.39,105.52,192.9,97,190c12.21-16.62,14.81-32,7.69-45.92a34.86,34.86,0,0,0-62,0c-7.08,13.88-4.51,29.3,7.73,45.92-8.55,2.94-18,6.43-23.49,14.7-9.1,13.71-4,44.28-2.94,50.26a6.85,6.85,0,0,0,6.74,5.57h86a6.82,6.82,0,0,0,6.74-5.57C124.46,248.94,129.53,218.37,120.43,204.66Zm-9.64,42.16H36.52c-1.68-12.48-2.09-28.79,1.78-34.6,3.11-4.72,10.43-7.25,17.51-9.68,2.91-1,5.88-2,8.62-3.18a6.81,6.81,0,0,0,2.39-10.8c-13.51-15.18-17.4-27.7-12-38.3a21.19,21.19,0,0,1,37.68,0c5.44,10.6,1.5,23.11-12,38.26a6.86,6.86,0,0,0,2.36,10.84c2.74,1.2,5.74,2.22,8.62,3.18,7.08,2.43,14.39,4.92,17.51,9.68C112.87,218,112.46,234.34,110.79,246.82Z"/><path class="cls-2" d="M110.79,246.82H36.52c-1.68-12.48-2.09-28.79,1.78-34.6,3.11-4.72,10.43-7.25,17.51-9.68,2.91-1,5.88-2,8.62-3.18a6.81,6.81,0,0,0,2.39-10.8c-13.51-15.18-17.4-27.7-12-38.3a21.19,21.19,0,0,1,37.68,0c5.44,10.6,1.5,23.11-12,38.26a6.86,6.86,0,0,0,2.36,10.84c2.74,1.2,5.74,2.22,8.62,3.18,7.08,2.43,14.39,4.92,17.51,9.68C112.87,218,112.46,234.34,110.79,246.82Z"/><path class="cls-1" d="M238.12,204.66c-5.47-8.27-14.91-11.76-23.46-14.7,12.21-16.62,14.81-32,7.69-45.92a34.83,34.83,0,0,0-62,0c-7.11,13.88-4.51,29.3,7.69,45.92-8.55,2.94-18,6.43-23.46,14.7-9.1,13.71-4.07,44.28-2.94,50.26a6.79,6.79,0,0,0,6.7,5.57h86a6.8,6.8,0,0,0,6.74-5.57C242.16,248.94,247.22,218.37,238.12,204.66Zm-9.61,42.16h-74.3c-1.68-12.48-2.09-28.79,1.78-34.6,3.15-4.72,10.46-7.25,17.54-9.68,2.87-1,5.85-2,8.58-3.18a6.84,6.84,0,0,0,2.39-10.84c-13.47-15.15-17.4-27.66-12-38.26a21.16,21.16,0,0,1,37.65,0c5.44,10.6,1.5,23.11-12,38.26a6.84,6.84,0,0,0,2.39,10.84c2.74,1.2,5.71,2.22,8.58,3.18,7.08,2.43,14.39,5,17.54,9.68C230.6,218,230.19,234.34,228.51,246.82Z"/><path class="cls-3" d="M228.51,246.82h-74.3c-1.68-12.48-2.09-28.79,1.78-34.6,3.15-4.72,10.46-7.25,17.54-9.68,2.87-1,5.85-2,8.58-3.18a6.84,6.84,0,0,0,2.39-10.84c-13.47-15.15-17.4-27.66-12-38.26a21.16,21.16,0,0,1,37.65,0c5.44,10.6,1.5,23.11-12,38.26a6.84,6.84,0,0,0,2.39,10.84c2.74,1.2,5.71,2.22,8.58,3.18,7.08,2.43,14.39,5,17.54,9.68C230.6,218,230.19,234.34,228.51,246.82Z"/><path class="cls-1" d="M34,95.55H52.87l16.58,16.58a6.85,6.85,0,0,0,9.68,0L95.67,95.55h74.27l16.58,16.58a6.78,6.78,0,0,0,4.82,2,6.86,6.86,0,0,0,4.86-2l16.55-16.58H231a6.81,6.81,0,0,0,6.84-6.84V11.34A6.84,6.84,0,0,0,231,4.5H34a6.86,6.86,0,0,0-6.84,6.84V88.72A6.84,6.84,0,0,0,34,95.55Zm6.84-77.38H224.17v63.7H209.91a6.72,6.72,0,0,0-4.82,2L191.35,97.64,177.63,83.9a6.86,6.86,0,0,0-4.86-2H92.84a6.72,6.72,0,0,0-4.82,2L74.27,97.64,60.56,83.9a6.86,6.86,0,0,0-4.86-2H40.83V18.18Z"/></svg>