<svg id="Layer_1" data-name="Layer 1" xmlns="http://www.w3.org/2000/svg" viewBox="0 0 265 265"><defs><style>.cls-1{fill:#1d1e1c;}.cls-2{fill:#dddb05;}.cls-3{fill:#43bfef;}</style></defs><title>Iconografia - 256x256</title><path class="cls-1" d="M123.85,186c-0.38-.38-38.16-39.8-54.06-56a18.6,18.6,0,0,0-9.95-5.3V82.32A6,6,0,0,0,59.7,81a17.23,17.23,0,0,0-7.8-10.67c-5.23-3.42-12.17-4.86-17.61-3.69C25.2,68.51,16,75.83,16,86.08c0,26.26,0,78.4,0,78.4a6.8,6.8,0,0,0,1.64,4.44l44,51.19,5.09,34.53a6.87,6.87,0,0,0,6.77,5.85h40.76a6.86,6.86,0,0,0,6.84-6.36l4.62-62.95A6.91,6.91,0,0,0,123.85,186Zm-15.93,60.86H79.43l-4.51-30.67a7,7,0,0,0-1.61-3.45L29.68,162c0-10.77,0-53.07,0-75.87,0-2.67,3.93-5.37,7.49-6.12a11.17,11.17,0,0,1,7.25,1.78,5.36,5.36,0,0,1,1.74,1.64v44.35a19.69,19.69,0,0,0-2.29,1.88,18.67,18.67,0,0,0-.92,25.78c1.33,1.5,7.56,7.86,16.17,16.69l6.53,6.74a6.83,6.83,0,0,0,9.81-9.51l-6.56-6.77c-1.68-1.71-3.52-3.66-5.47-5.61l0,0c-4.68-4.79-9.3-9.61-10.19-10.57a4.86,4.86,0,0,1,.17-6.87,4.33,4.33,0,0,1,1.13-.82,4.86,4.86,0,0,0,1.13-.38l0.27-.1a4.66,4.66,0,0,1,4.1,1.4c13.71,13.92,43.66,45.13,51.84,53.68Z"/><path class="cls-2" d="M111.85,193.24l-3.93,53.58H79.43l-4.51-30.67a7,7,0,0,0-1.61-3.45L29.68,162c0-10.77,0-53.07,0-75.87,0-2.67,3.93-5.37,7.49-6.12a11.17,11.17,0,0,1,7.25,1.78,5.36,5.36,0,0,1,1.74,1.64v44.35a19.69,19.69,0,0,0-2.29,1.88,18.67,18.67,0,0,0-.92,25.78c1.33,1.5,7.56,7.86,16.17,16.69l6.53,6.74a6.83,6.83,0,0,0,9.81-9.51l-6.56-6.77c-1.68-1.71-3.52-3.66-5.47-5.61l0,0c-4.68-4.79-9.3-9.61-10.19-10.57a4.86,4.86,0,0,1,.17-6.87,4.33,4.33,0,0,1,1.13-.82,4.86,4.86,0,0,0,1.13-.38l0.27-.1a4.66,4.66,0,0,1,4.1,1.4C73.72,153.48,103.68,184.7,111.85,193.24Z"/><path class="cls-1" d="M249,86.08c0-10.26-9.23-17.58-18.29-19.49-5.47-1.16-12.38.27-17.64,3.69A17.23,17.23,0,0,0,205.26,81a8.82,8.82,0,0,0-.14,1.37v42.36a18.38,18.38,0,0,0-9.92,5.3c-15.93,16.17-53.68,55.6-54.06,56a6.91,6.91,0,0,0-1.88,5.23l4.62,62.95a6.86,6.86,0,0,0,6.8,6.36h40.76a6.85,6.85,0,0,0,6.77-5.85l5.09-34.53,44-51.19a6.8,6.8,0,0,0,1.64-4.44S249,112.34,249,86.08ZM235.32,162L191.65,212.7a6.66,6.66,0,0,0-1.57,3.45l-4.51,30.67H157.05l-3.93-53.58c8.21-8.55,38.16-39.77,51.84-53.68a4.69,4.69,0,0,1,4.1-1.4l0.27,0.1a4.62,4.62,0,0,0,1.16.38,5,5,0,0,1,1.27,7.69c-0.85,1-5.51,5.78-10.19,10.57-1.91,1.95-3.8,3.93-5.47,5.64l-6.6,6.77a6.83,6.83,0,0,0,9.81,9.51l6.56-6.74c8.62-8.82,14.81-15.18,16.14-16.69a18.64,18.64,0,0,0-.92-25.78,17.2,17.2,0,0,0-2.29-1.88V83.38a5.77,5.77,0,0,1,1.74-1.64A11.1,11.1,0,0,1,227.83,80c3.56,0.75,7.49,3.45,7.49,6.12C235.35,108.89,235.32,151.19,235.32,162Z"/><path class="cls-3" d="M235.32,162L191.65,212.7a6.66,6.66,0,0,0-1.57,3.45l-4.51,30.67H157.05l-3.93-53.58c8.21-8.55,38.16-39.77,51.84-53.68a4.69,4.69,0,0,1,4.1-1.4l0.27,0.1a4.62,4.62,0,0,0,1.16.38,5,5,0,0,1,1.27,7.69c-0.85,1-5.51,5.78-10.19,10.57-1.91,1.95-3.8,3.93-5.47,5.64l-6.6,6.77a6.83,6.83,0,0,0,9.81,9.51l6.56-6.74c8.62-8.82,14.81-15.18,16.14-16.69a18.64,18.64,0,0,0-.92-25.78,17.2,17.2,0,0,0-2.29-1.88V83.38a5.77,5.77,0,0,1,1.74-1.64A11.1,11.1,0,0,1,227.83,80c3.56,0.75,7.49,3.45,7.49,6.12C235.35,108.89,235.32,151.19,235.32,162Z"/><path class="cls-1" d="M144.74,131.94l0.65-.21,2.09-.82c0.51-.21,1-0.38,1.5-0.58,0.92-.41,1.88-0.85,2.67-1.3l1.85-1a46.3,46.3,0,0,0,18.64-22.09,0.48,0.48,0,0,0,.07-0.21c4.1-10.94,2.91-22.77-3.59-36.14a0.18,0.18,0,0,1-.07-0.14c-0.89-1.71-19.9-40.62-29.88-61.1a6.86,6.86,0,0,0-12.31,0C105.15,51.65,98.62,65,96.6,69.64l-0.17-.07c-6.56,13.3-7.76,25.13-3.56,36.35a46.56,46.56,0,0,0,18.91,22.26l1.47,0.79a29.73,29.73,0,0,0,2.77,1.37c0.48,0.21,1,.38,1.5.58l0.75,0.27a1,1,0,0,0,.34.14q0.56,0.26,1.23.51l0.41,0.1,0.51,0.14a39.57,39.57,0,0,0,23.46,0Zm-4.31-13a26.17,26.17,0,0,1-15.87,0,0.78,0.78,0,0,0-.38-0.1l-0.24-.1-0.62-.24-1.06-.41a6.84,6.84,0,0,1-.89-0.34,11.41,11.41,0,0,1-1.47-.72l-1.3-.72a32.3,32.3,0,0,1-13-15.35c-2.7-7.32-1.71-15.63,3.11-25.37a0.26,0.26,0,0,1,.07-0.14c0.68-1.44,13.57-27.8,23.73-48.55,17,34.91,22.12,45.27,23.9,48.62l-0.1.07c4.75,9.78,5.78,18,3.11,25.27a32.32,32.32,0,0,1-12.75,15.32l-1.71.92a9.6,9.6,0,0,1-1.33.65,9.49,9.49,0,0,1-.89.34l-1.91.75A0.69,0.69,0,0,0,140.43,118.94Z"/></svg>