<svg id="Layer_1" data-name="Layer 1" xmlns="http://www.w3.org/2000/svg" viewBox="0 0 265 265"><defs><style>.cls-1{fill:#1d1e1c;}.cls-2{fill:#43bfef;}.cls-3{fill:#dddb05;}</style></defs><title>Iconografia - 256x256</title><path class="cls-1" d="M254.89,161.1L223,129.37a6.89,6.89,0,0,0-4.82-2h-57V107.56H232a6.86,6.86,0,0,0,6.84-6.84V37.26A6.86,6.86,0,0,0,232,30.42H161.14V11.34A6.86,6.86,0,0,0,154.3,4.5H110.7a6.84,6.84,0,0,0-6.84,6.84V30.42h-57a6.83,6.83,0,0,0-4.82,2l-32,31.73a6.85,6.85,0,0,0,0,9.71l32,31.73a6.83,6.83,0,0,0,4.82,2h57v19.83H33a6.84,6.84,0,0,0-6.84,6.84v63.46A6.84,6.84,0,0,0,33,204.53h70.85v49.13a6.84,6.84,0,0,0,6.84,6.84h43.6a6.86,6.86,0,0,0,6.84-6.84V204.53h57a6.89,6.89,0,0,0,4.82-2l31.94-31.73A6.77,6.77,0,0,0,254.89,161.1ZM117.54,18.18h29.92V30.42H117.54V18.18ZM49.67,93.88L24.61,69,49.67,44.1H225.14V93.88H49.67Zm97.79,13.68v19.83H117.54V107.56h29.92Zm0,139.27H117.54v-42.3h29.92v42.3Zm67.84-56H39.86V141.07H215.3L240.39,166Z"/><polygon class="cls-2" points="240.4 165.96 215.3 190.85 39.85 190.85 39.85 141.06 215.3 141.06 240.4 165.96"/><polygon class="cls-3" points="225.15 44.09 225.15 93.88 49.67 93.88 24.61 68.99 49.67 44.09 225.15 44.09"/></svg>