<svg id="Layer_1" data-name="Layer 1" xmlns="http://www.w3.org/2000/svg" viewBox="0 0 265 265"><defs><style>.cls-1{fill:#1d1e1c;}.cls-2{fill:#dddb05;}.cls-3{fill:#43bfef;}</style></defs><title>Iconografia - 256x256</title><path class="cls-1" d="M253.66,125.68h-8.72A112.26,112.26,0,0,0,216.8,57.84L223,51.65A6.83,6.83,0,0,0,213.31,42l-6.19,6.19A112.17,112.17,0,0,0,139.32,20V11.34a6.84,6.84,0,0,0-13.68,0V20A112.17,112.17,0,0,0,57.84,48.2L51.65,42A6.84,6.84,0,0,0,42,51.69l6.19,6.19A112,112,0,0,0,20,125.68H11.34a6.84,6.84,0,0,0,0,13.68H20a112,112,0,0,0,28.14,67.77L42,213.31A6.84,6.84,0,1,0,51.65,223l6.19-6.19A112.17,112.17,0,0,0,125.64,245v8.68a6.84,6.84,0,0,0,13.68,0V245a112.34,112.34,0,0,0,67.8-28.14l6.15,6.15a6.89,6.89,0,0,0,4.86,2A6.86,6.86,0,0,0,223,213.31l-6.15-6.15a112,112,0,0,0,28.14-67.8h8.72A6.84,6.84,0,0,0,253.66,125.68ZM214.34,110.5a6.85,6.85,0,0,0-9.68,0L188,127.22l-0.48.44a10.66,10.66,0,0,0-.79,1,7.45,7.45,0,0,0-.68,1.27,7.72,7.72,0,0,0-.38,1.27v0a6.57,6.57,0,0,0,0,2.67v0a7.73,7.73,0,0,0,.38,1.27,9,9,0,0,0,.68,1.27,7,7,0,0,0,.79.92l17.16,17.16a6.84,6.84,0,0,0,9.68-9.68l-5.47-5.47H231.2a98.08,98.08,0,0,1-24.11,58.09l-15.76-15.76h7.76a6.84,6.84,0,0,0,0-13.68H174.81a3.71,3.71,0,0,0-.62,0H174l-0.58.1a7,7,0,0,0-2,.75,4.09,4.09,0,0,0-.72.44,6.81,6.81,0,0,0-1.4,1.4,7.06,7.06,0,0,0-.51.85,3,3,0,0,0-.27.58,1,1,0,0,0-.14.41,3.84,3.84,0,0,0-.27.89v0.07a5.4,5.4,0,0,0-.14,1.3v24.28a6.84,6.84,0,1,0,13.68,0v-7.76l15.76,15.76a98.08,98.08,0,0,1-58.09,24.11V208.87l5.5,5.5a6.83,6.83,0,1,0,9.64-9.68L137.3,187.53a4.84,4.84,0,0,0-1-.85s-0.07,0-.07,0a6.85,6.85,0,0,0-3.76-1.13,6.68,6.68,0,0,0-3.76,1.13s0,0-.07,0a11.89,11.89,0,0,0-1,.85l-0.48.44-0.07.1L110.46,204.7a6.82,6.82,0,0,0,4.86,11.66,6.78,6.78,0,0,0,4.82-2l5.51-5.5v22.36a97.9,97.9,0,0,1-58.09-24.14l15.76-15.76v7.76a6.84,6.84,0,0,0,13.68,0V174.81a5.31,5.31,0,0,0-.14-1.27,5.39,5.39,0,0,0-.38-1.27,8.26,8.26,0,0,0-.62-1.23,0.11,0.11,0,0,0,0-.07A8.87,8.87,0,0,0,94,169.14a0.12,0.12,0,0,0-.07,0,11.09,11.09,0,0,0-1.09-.58s-0.07,0-.1,0a7.14,7.14,0,0,0-2.56-.51H65.88a6.84,6.84,0,0,0,0,13.68h7.76L57.87,197.41a97.77,97.77,0,0,1-24.11-58.06H56.1l-5.47,5.47a6.84,6.84,0,1,0,9.68,9.68l17.16-17.16a11.84,11.84,0,0,0,.85-1s0-.07,0-0.07a11,11,0,0,0,.58-1.09s0-.07,0-0.1a8,8,0,0,0,.38-1.2v-0.07a5.59,5.59,0,0,0,.14-1.3v-0.07a5.31,5.31,0,0,0-.14-1.27v0a4.07,4.07,0,0,0-.34-1.09,0.49,0.49,0,0,0-.07-0.21,5.94,5.94,0,0,0-.48-0.92,1.39,1.39,0,0,1-.17-0.31,7.15,7.15,0,0,0-.82-1L77,127.22,60.3,110.5a6.84,6.84,0,0,0-9.68,9.68l5.5,5.5H33.77A97.78,97.78,0,0,1,57.87,67.59L73.64,83.35H65.88a6.84,6.84,0,0,0,0,13.68H90.15a7.14,7.14,0,0,0,2.56-.51,0.34,0.34,0,0,0,.1,0A4.2,4.2,0,0,0,93.67,96a1,1,0,0,0,.38-0.21A10.17,10.17,0,0,0,95,95a11.81,11.81,0,0,0,.85-1,0.11,0.11,0,0,0,0-.07,11,11,0,0,0,.58-1.09,0.13,0.13,0,0,0,0-.1,7,7,0,0,0,.38-1.2V91.49a5.59,5.59,0,0,0,.14-1.3V65.91a6.84,6.84,0,0,0-13.68,0v7.76L67.55,57.91a97.9,97.9,0,0,1,58.09-24.14v22.4l-5.51-5.5a6.82,6.82,0,1,0-9.64,9.64l17.16,17.16a7.7,7.7,0,0,0,1,.85,0.12,0.12,0,0,1,.07,0,5.16,5.16,0,0,0,1,.51,0.26,0.26,0,0,0,.14.07,1,1,0,0,0,.34.14,5.7,5.7,0,0,0,1,.27,6.24,6.24,0,0,0,2.6,0h0.07a3.84,3.84,0,0,0,.89-0.27,1.93,1.93,0,0,0,.41-0.14,0.87,0.87,0,0,0,.17-0.07,4.87,4.87,0,0,0,.92-0.51,5,5,0,0,0,1.06-.89h0L154.5,60.3a6.83,6.83,0,0,0-9.68-9.64l-5.5,5.5V33.77a98.08,98.08,0,0,1,58.09,24.11L181.65,73.64V65.91a6.84,6.84,0,1,0-13.68,0V90.19a5.59,5.59,0,0,0,.14,1.3v0.07a3.83,3.83,0,0,0,.27.89,1,1,0,0,0,.14.41,6.87,6.87,0,0,0,.34.72c0.07,0.14.17,0.27,0.27,0.44a0.18,0.18,0,0,0,.07.1A9.41,9.41,0,0,0,170,95a6.83,6.83,0,0,0,.75.65,4.09,4.09,0,0,0,.72.44,6.73,6.73,0,0,0,.85.44,8.27,8.27,0,0,0,1.23.34,5.41,5.41,0,0,0,1.3.14h24.28a6.84,6.84,0,0,0,0-13.68h-7.8l15.8-15.8a98.18,98.18,0,0,1,24.11,58.13H208.83l5.51-5.5A6.85,6.85,0,0,0,214.34,110.5Z"/><path class="cls-2" d="M214.34,144.83a6.84,6.84,0,1,1-9.68,9.68L187.5,137.34a7,7,0,0,1-.79-0.92,9,9,0,0,1-.68-1.27,7.73,7.73,0,0,1-.38-1.27v0a6.57,6.57,0,0,1,0-2.67v0a7.72,7.72,0,0,1,.38-1.27,7.45,7.45,0,0,1,.68-1.27,10.66,10.66,0,0,1,.79-1l0.48-.44,16.69-16.72a6.84,6.84,0,0,1,9.68,9.68l-5.51,5.5H231.2a98.18,98.18,0,0,0-24.11-58.13l-15.8,15.8h7.8a6.84,6.84,0,0,1,0,13.68H174.81a5.41,5.41,0,0,1-1.3-.14,8.27,8.27,0,0,1-1.23-.34,6.73,6.73,0,0,1-.85-0.44,4.09,4.09,0,0,1-.72-0.44A6.83,6.83,0,0,1,170,95a9.41,9.41,0,0,1-.75-0.89,0.18,0.18,0,0,1-.07-0.1c-0.1-.17-0.21-0.31-0.27-0.44a6.87,6.87,0,0,1-.34-0.72,1,1,0,0,1-.14-0.41,3.83,3.83,0,0,1-.27-0.89V91.49a5.59,5.59,0,0,1-.14-1.3V65.91a6.84,6.84,0,1,1,13.68,0v7.73l15.76-15.76a98.08,98.08,0,0,0-58.09-24.11v22.4l5.5-5.5a6.83,6.83,0,0,1,9.68,9.64L137.34,77.47h0a5,5,0,0,1-1.06.89,4.87,4.87,0,0,1-.92.51,0.87,0.87,0,0,1-.17.07,1.93,1.93,0,0,1-.41.14,3.84,3.84,0,0,1-.89.27h-0.07a6.24,6.24,0,0,1-2.6,0,5.7,5.7,0,0,1-1-.27,1,1,0,0,1-.34-0.14,0.26,0.26,0,0,1-.14-0.07,5.16,5.16,0,0,1-1-.51,0.12,0.12,0,0,0-.07,0,7.7,7.7,0,0,1-1-.85L110.5,60.3a6.82,6.82,0,1,1,9.64-9.64l5.51,5.5V33.77A97.9,97.9,0,0,0,67.55,57.91L83.31,73.67V65.91a6.84,6.84,0,0,1,13.68,0V90.19a5.59,5.59,0,0,1-.14,1.3v0.07a7,7,0,0,1-.38,1.2,0.13,0.13,0,0,1,0,.1,11,11,0,0,1-.58,1.09,0.11,0.11,0,0,1,0,.07A11.81,11.81,0,0,1,95,95a10.17,10.17,0,0,1-.92.79,1,1,0,0,1-.38.21,4.2,4.2,0,0,1-.85.48,0.34,0.34,0,0,1-.1,0,7.14,7.14,0,0,1-2.56.51H65.88a6.84,6.84,0,0,1,0-13.68h7.76L57.87,67.59a97.78,97.78,0,0,0-24.11,58.09H56.13l-5.5-5.5a6.84,6.84,0,0,1,9.68-9.68L77,127.22l0.48,0.44a7.15,7.15,0,0,1,.82,1,1.39,1.39,0,0,0,.17.31,5.94,5.94,0,0,1,.48.92,0.49,0.49,0,0,1,.07.21,4.07,4.07,0,0,1,.34,1.09v0a5.31,5.31,0,0,1,.14,1.27v0.07a5.59,5.59,0,0,1-.14,1.3v0.07a8,8,0,0,1-.38,1.2s0,0.07,0,.1a11,11,0,0,1-.58,1.09s0,0,0,.07a11.84,11.84,0,0,1-.85,1L60.3,154.5a6.84,6.84,0,0,1-9.68-9.68l5.47-5.47H33.77a97.77,97.77,0,0,0,24.11,58.06l15.76-15.76H65.88a6.84,6.84,0,0,1,0-13.68H90.15a7.14,7.14,0,0,1,2.56.51s0.1,0,.1,0a11.09,11.09,0,0,1,1.09.58,0.12,0.12,0,0,1,.07,0A8.87,8.87,0,0,1,95.83,171a0.11,0.11,0,0,1,0,.07,8.26,8.26,0,0,1,.62,1.23,5.39,5.39,0,0,1,.38,1.27,5.31,5.31,0,0,1,.14,1.27v24.28a6.84,6.84,0,0,1-13.68,0v-7.76L67.55,207.09a97.9,97.9,0,0,0,58.09,24.14V208.87l-5.51,5.5a6.78,6.78,0,0,1-4.82,2,6.82,6.82,0,0,1-4.86-11.66l16.65-16.62,0.07-.1,0.48-.44a11.89,11.89,0,0,1,1-.85s0.07,0,.07,0a6.68,6.68,0,0,1,3.76-1.13,6.85,6.85,0,0,1,3.76,1.13s0,0,.07,0a4.84,4.84,0,0,1,1,.85l17.16,17.16a6.83,6.83,0,1,1-9.64,9.68l-5.5-5.5v22.36a98.08,98.08,0,0,0,58.09-24.11l-15.76-15.76v7.76a6.84,6.84,0,1,1-13.68,0V174.85a5.4,5.4,0,0,1,.14-1.3v-0.07a3.84,3.84,0,0,1,.27-0.89,1,1,0,0,1,.14-0.41,3,3,0,0,1,.27-0.58,7.06,7.06,0,0,1,.51-0.85,6.81,6.81,0,0,1,1.4-1.4,4.09,4.09,0,0,1,.72-0.44,7,7,0,0,1,2-.75L174,168h0.21a3.71,3.71,0,0,1,.62,0h24.28a6.84,6.84,0,0,1,0,13.68h-7.76l15.76,15.76a98.08,98.08,0,0,0,24.11-58.09H208.87Zm-81.86,21.78a34.09,34.09,0,1,1,34.09-34.09A34.14,34.14,0,0,1,132.48,166.61Z"/><path class="cls-1" d="M132.48,98.43a34.09,34.09,0,1,0,34.09,34.09A34.12,34.12,0,0,0,132.48,98.43Zm0,54.5a20.41,20.41,0,1,1,20.41-20.41A20.44,20.44,0,0,1,132.48,152.93Z"/><path class="cls-3" d="M152.9,132.52a20.41,20.41,0,1,1-20.41-20.41A20.44,20.44,0,0,1,152.9,132.52Z"/></svg>