<svg id="Layer_1" data-name="Layer 1" xmlns="http://www.w3.org/2000/svg" viewBox="0 0 265 265"><defs><style>.cls-1{fill:#fff;}</style></defs><title>Iconografia - 256x256</title><path class="cls-1" d="M251.24,146.4c-6.29-9.47-17.44-13.3-27.25-16.65,14.22-18.91,17.37-36.38,9.37-52a38.51,38.51,0,0,0-68.56,0c-0.34.65-.65,1.33-1,2-2.15-.82-4.34-1.57-6.43-2.29,14.22-18.91,17.37-36.38,9.37-52a38.54,38.54,0,0,0-68.56,0c-8,15.66-4.86,33.13,9.37,52-2.12.72-4.27,1.47-6.46,2.29-0.31-.68-0.58-1.37-0.92-2a38.51,38.51,0,0,0-68.56,0c-8,15.63-4.86,33.1,9.37,52-9.85,3.35-21,7.18-27.25,16.65-10.33,15.56-4,52.11-3.21,56.21a6.88,6.88,0,0,0,6.74,5.61H76.44c-4.38,17.54.07,43.25,0.68,46.67a6.88,6.88,0,0,0,6.74,5.61h97.28a6.82,6.82,0,0,0,6.7-5.61c0.65-3.42,5.09-29.13.72-46.67h59.15a6.82,6.82,0,0,0,6.7-5.61C255.2,198.51,261.56,162,251.24,146.4ZM104.45,93.16c2.46-1,5-1.88,7.59-2.77,3.21-1.09,6.6-2.26,9.64-3.56a6.9,6.9,0,0,0,4-4.82,6.78,6.78,0,0,0-1.57-6c-15.52-17.44-20-32-13.68-44.31a24.84,24.84,0,0,1,44.21,0C160.93,44,156.45,58.56,140.93,76a6.81,6.81,0,0,0,2.39,10.8c3,1.33,6.39,2.5,9.64,3.59,2.56,0.89,5.13,1.78,7.59,2.77-0.65,11.42,3.9,23.66,13.61,36.59-2.12.72-4.27,1.47-6.46,2.29a21.46,21.46,0,0,0-.92-2,38.51,38.51,0,0,0-68.56,0c-0.34.65-.65,1.33-1,2-2.15-.82-4.34-1.57-6.46-2.29C100.55,116.82,105.06,104.58,104.45,93.16ZM83.79,194.54H23.1c-1.91-13.81-2.77-33.34,2.05-40.59,3.73-5.61,12.14-8.48,20.28-11.28,3.25-1.09,6.6-2.26,9.68-3.56a6.9,6.9,0,0,0,4-4.82,7,7,0,0,0-1.57-6C41.94,110.84,37.5,96.34,43.82,84A24.84,24.84,0,0,1,88,84c0.31,0.58.55,1.2,0.82,1.81a25,25,0,0,1,1.81,7.15c0.75,8-2.33,16.79-9.3,26.6-1.95,2.7-4.17,5.5-6.7,8.38a3.42,3.42,0,0,1-.34.38,6.87,6.87,0,0,0,1.13,10.09,7.73,7.73,0,0,0,1.27.75c1.91,0.82,4,1.57,6,2.29,1.2,0.44,2.43.85,3.66,1.27,2.56,0.89,5.13,1.78,7.59,2.77-0.07,1.2-.07,2.43,0,3.66a44,44,0,0,0,.85,6.84c1.74,8.34,6,17,12.79,26.09C99.35,184.83,90.26,188,83.79,194.54Zm91.5,52.28H89.68c-1.78-12.72-2.6-30.26,1-38.6a13.47,13.47,0,0,1,1-2,16.94,16.94,0,0,1,5.3-4.86c4.17-2.67,9.64-4.58,15-6.43,1.2-.41,2.43-0.82,3.66-1.27,2.05-.72,4.07-1.47,6-2.29a8,8,0,0,0,1.3-.75,6.93,6.93,0,0,0,2.67-4.07,6.8,6.8,0,0,0-1.57-6,3.63,3.63,0,0,1-.31-0.38A103.36,103.36,0,0,1,117,171.8a54.3,54.3,0,0,1-8.14-15.87,29.65,29.65,0,0,1-1.2-6.84,21.1,21.1,0,0,1,.07-3.9,27.77,27.77,0,0,1,.48-2.94,23.12,23.12,0,0,1,1.33-4.21,17.26,17.26,0,0,1,.82-1.81,24.84,24.84,0,0,1,44.21,0c0.31,0.58.55,1.2,0.82,1.81a26.1,26.1,0,0,1,1.33,4.21,27.77,27.77,0,0,1,.48,2.94,28.47,28.47,0,0,1-1.13,10.74,53.64,53.64,0,0,1-8.17,15.87,102.6,102.6,0,0,1-6.7,8.38,3.63,3.63,0,0,1-.31.38,6.8,6.8,0,0,0-1.57,6,6.88,6.88,0,0,0,2.67,4.07,8,8,0,0,0,1.3.75c1.91,0.82,3.93,1.57,6,2.29,1.23,0.44,2.46.85,3.66,1.27,5.37,1.85,10.84,3.76,15,6.43a17.19,17.19,0,0,1,5.27,4.86,10.81,10.81,0,0,1,1,2C177.89,216.56,177.07,234.1,175.29,246.82Zm66.57-52.28H181.21c-6.46-6.53-15.59-9.71-23.8-12.51q10.21-13.59,12.75-26.09a40.18,40.18,0,0,0,.85-6.84,32.62,32.62,0,0,0,0-3.66c2.46-1,5-1.88,7.59-2.77,1.2-.41,2.43-0.82,3.66-1.27,2.05-.72,4.07-1.47,6-2.29a8.07,8.07,0,0,0,1.3-.75,7,7,0,0,0,2.67-4.07,6.78,6.78,0,0,0-1.57-6c-0.1-.14-0.21-0.24-0.31-0.38a102.6,102.6,0,0,1-6.7-8.38c-7-9.81-10.09-18.64-9.3-26.6a25,25,0,0,1,1.81-7.15A17.31,17.31,0,0,1,177,84a24.84,24.84,0,0,1,44.21,0c6.33,12.38,1.85,26.88-13.68,44.31a6.8,6.8,0,0,0-1.57,6,6.9,6.9,0,0,0,4,4.82c3,1.3,6.39,2.46,9.64,3.56,8.17,2.8,16.58,5.68,20.31,11.28C244.64,161.2,243.82,180.73,241.87,194.54Z"/></svg>