<svg id="Layer_1" data-name="Layer 1" xmlns="http://www.w3.org/2000/svg" viewBox="0 0 265 265"><defs><style>.cls-1{fill:#fff;}</style></defs><title>Iconografia - 256x256</title><path class="cls-1" d="M236.44,4.5H28.58a7.11,7.11,0,0,0-7.11,7.11V71.81a7.11,7.11,0,0,0,7.11,7.11H236.44a7.11,7.11,0,0,0,7.11-7.11V11.61A7.11,7.11,0,0,0,236.44,4.5Zm-7.11,60.21H35.68v-46H229.33v46Z"/><path class="cls-1" d="M132.52,95.27h-104a7.13,7.13,0,0,0-7.11,7.11v60.2a7.11,7.11,0,0,0,7.11,7.11h104a7.11,7.11,0,0,0,7.11-7.11v-60.2A7.13,7.13,0,0,0,132.52,95.27Zm-7.11,60.2H35.67v-46h89.74v46Z"/><path class="cls-1" d="M97.86,186.08H28.56a7.11,7.11,0,0,0-7.11,7.11v60.2a7.13,7.13,0,0,0,7.11,7.11h69.3a7.13,7.13,0,0,0,7.11-7.11v-60.2A7.11,7.11,0,0,0,97.86,186.08Zm-7.11,60.2H35.67v-46H90.76v46Z"/><path class="cls-1" d="M234.35,95.29a7.11,7.11,0,0,0-7.11,7.11v23.3a17.61,17.61,0,0,1-17.59,17.59H186.25l0.07-.07a7.11,7.11,0,1,0-10.05-10.05l-12.2,12.2h0a7.11,7.11,0,0,0-.88,1.07c-0.06.09-.1,0.2-0.16,0.3a7.12,7.12,0,0,0-.49.92c-0.06.13-.08,0.28-0.13,0.42a6.35,6.35,0,0,0,0,4.58c0.05,0.15.08,0.32,0.14,0.46a7.11,7.11,0,0,0,.46.87c0.07,0.12.12,0.24,0.19,0.35a7.17,7.17,0,0,0,.78,1l0.09,0.11,12.21,12.2a7.11,7.11,0,0,0,10.05-10.05l-0.07-.07h23.41a31.61,31.61,0,0,0,17.59-5.33v63a3.58,3.58,0,0,1,0,1.43,17.61,17.61,0,0,1-17.59,17.59h-58.2l0.22-.22A7.11,7.11,0,1,0,141.62,224l-12.2,12.21a7.08,7.08,0,0,0-2.08,5.1s0,0,0,.07a6.83,6.83,0,0,0,.1.8c0,0.17,0,.35.06,0.52a7.1,7.1,0,0,0,2.74,4.38l11.39,11.39a7.1,7.1,0,0,0,10.11-10h57.92a31.84,31.84,0,0,0,31.81-31.81,3.58,3.58,0,0,1,0-1.43V102.4A7.11,7.11,0,0,0,234.35,95.29Z"/></svg>