<svg id="Layer_1" data-name="Layer 1" xmlns="http://www.w3.org/2000/svg" viewBox="0 0 265 265"><defs><style>.cls-1{fill:#fff;}</style></defs><title>Iconografia - 256x256</title><path class="cls-1" d="M210,212.36a118.44,118.44,0,1,0-155,0L43.63,251.75a6.83,6.83,0,0,0,4.68,8.48,7.14,7.14,0,0,0,1.88.27,6.82,6.82,0,0,0,6.57-5l9.88-34.23a118.07,118.07,0,0,0,131.71,0l9.88,34.23a6.82,6.82,0,0,0,6.56,5,7.6,7.6,0,0,0,1.91-.27,6.84,6.84,0,0,0,4.65-8.48ZM132.5,227.71A104.77,104.77,0,1,1,237.27,122.94,104.91,104.91,0,0,1,132.5,227.71Z"/><path class="cls-1" d="M132.5,41.46A81.46,81.46,0,1,0,214,122.94,81.54,81.54,0,0,0,132.5,41.46Zm0,149.25a67.79,67.79,0,1,1,67.8-67.77A67.84,67.84,0,0,1,132.5,190.71Z"/><path class="cls-1" d="M159.34,119s0-.07,0-0.1c-0.72-1.4-15.11-30.91-20.65-42.23a6.86,6.86,0,0,0-12.31,0c-14,28.69-18.84,38.54-20.52,42.4l-0.17-.07c-4.72,9.61-5.61,18.57-2.53,26.84a34.54,34.54,0,0,0,14.05,16.48l1,0.51c0.68,0.38,1.44.75,2.12,1.06,0.38,0.14.75,0.27,1.16,0.44l0.65,0.24a8.55,8.55,0,0,0,1,.38,4.13,4.13,0,0,0,.62.17,30.58,30.58,0,0,0,8.82,1.37,31,31,0,0,0,8.86-1.37,7.43,7.43,0,0,0,.82-0.24l0.62-.24-2.63-6.33,3,6.19,0.44-.17c0.41-.17.79-0.31,1.16-0.44,0.68-.31,1.44-0.68,2-1l1.37-.75a34.21,34.21,0,0,0,13.75-16.31c0-.07,0-0.1.07-0.17C165,137.58,164.13,128.86,159.34,119Zm-10.19,21.81a20.2,20.2,0,0,1-7.83,9.47l-1.23.68a7.31,7.31,0,0,1-.75.34l-1.68.65a1.06,1.06,0,0,1-.27.07,15.81,15.81,0,0,1-9.74,0,1,1,0,0,1-.31-0.07l-1.68-.65a8.87,8.87,0,0,1-.85-0.41L124,150.5a20.14,20.14,0,0,1-8.1-9.57c-1.68-4.48-1-9.68,2.05-15.87a0.5,0.5,0,0,0,.07-0.14c0.48-1,8.17-16.75,14.5-29.64,9.78,20,13.23,27,14.67,29.71l-0.1.07C150.14,131.35,150.79,136.35,149.15,140.86Z"/></svg>