<svg id="Layer_1" data-name="Layer 1" xmlns="http://www.w3.org/2000/svg" viewBox="0 0 265 265"><defs><style>.cls-1{fill:#fff;}</style></defs><title>Iconografia - 256x256</title><path class="cls-1" d="M184.87,155.73H80.1a6.84,6.84,0,0,0-6.84,6.84v91.09a6.86,6.86,0,0,0,6.84,6.84H184.87a6.84,6.84,0,0,0,6.84-6.84V162.57A6.81,6.81,0,0,0,184.87,155.73ZM178,246.82H86.94V169.41H178v77.41Z"/><path class="cls-1" d="M232.36,64.61H191.7V11.34a6.84,6.84,0,0,0-6.84-6.84H80.1a6.86,6.86,0,0,0-6.84,6.84V64.61H32.64a6.84,6.84,0,0,0-6.84,6.84V172.59a6.84,6.84,0,0,0,6.84,6.84H58.29a6.86,6.86,0,0,0,6.84-6.84V145.41H199.84v27.18a6.86,6.86,0,0,0,6.84,6.84h25.68a6.86,6.86,0,0,0,6.84-6.84V71.45A6.86,6.86,0,0,0,232.36,64.61ZM86.94,18.18H178V64.61H86.94V18.18ZM225.52,165.75h-12V138.57a6.84,6.84,0,0,0-6.84-6.84H58.29a6.86,6.86,0,0,0-6.84,6.84v27.18h-12V78.29h186v87.46Z"/></svg>