<svg id="Layer_1" data-name="Layer 1" xmlns="http://www.w3.org/2000/svg" viewBox="0 0 265 265"><defs><style>.cls-1{fill:#fff;}</style></defs><title>Iconografia - 256x256</title><path class="cls-1" d="M236.36,4.5H28.64a6.86,6.86,0,0,0-6.84,6.84V194.79a6.84,6.84,0,0,0,6.84,6.84H95.32l-27.6,48.66A6.84,6.84,0,1,0,79.61,257L111,201.63h43L185.43,257a6.84,6.84,0,1,0,11.89-6.75l-27.6-48.66h66.64a6.82,6.82,0,0,0,6.84-6.84V11.34A6.84,6.84,0,0,0,236.36,4.5ZM35.48,18.18h194V32.71h-194V18.18Zm194,169.77h-194V46.39h194V187.95Z"/><path class="cls-1" d="M63.27,172.32a6.84,6.84,0,0,0,6.84-6.84V129.34a6.84,6.84,0,1,0-13.68,0v36.14A6.82,6.82,0,0,0,63.27,172.32Z"/><path class="cls-1" d="M97.88,172.32a6.82,6.82,0,0,0,6.84-6.84V108.83a6.84,6.84,0,1,0-13.68,0v56.66A6.84,6.84,0,0,0,97.88,172.32Z"/><path class="cls-1" d="M132.52,172.32a6.84,6.84,0,0,0,6.84-6.84V85.4a6.84,6.84,0,1,0-13.68,0v80.08A6.82,6.82,0,0,0,132.52,172.32Z"/><path class="cls-1" d="M167.12,172.32a6.82,6.82,0,0,0,6.84-6.84V70.73a6.84,6.84,0,0,0-13.68,0v94.75A6.84,6.84,0,0,0,167.12,172.32Z"/><path class="cls-1" d="M201.76,172.32a6.84,6.84,0,0,0,6.84-6.84V108.83a6.84,6.84,0,0,0-13.68,0v56.66A6.82,6.82,0,0,0,201.76,172.32Z"/></svg>