<svg id="Layer_1" data-name="Layer 1" xmlns="http://www.w3.org/2000/svg" viewBox="0 0 265 265"><defs><style>.cls-1{fill:#fff;}</style></defs><title>Iconografia - 256x256</title><path class="cls-1" d="M127,4.5H34.93a6.82,6.82,0,0,0-6.84,6.84V253.66a6.82,6.82,0,0,0,6.84,6.84H127a6.84,6.84,0,0,0,6.84-6.84V11.34A6.84,6.84,0,0,0,127,4.5Zm-6.84,30.26H91.35a6.84,6.84,0,0,0,0,13.68h28.83V65.06H74.25a6.84,6.84,0,0,0,0,13.68h45.93V95.36H91.35a6.84,6.84,0,1,0,0,13.68h28.83v16.62H74.25a6.84,6.84,0,1,0,0,13.68h45.93V156H91.35a6.84,6.84,0,0,0,0,13.68h28.83v16.62H74.25a6.84,6.84,0,0,0,0,13.68h45.93v16.59H91.35a6.84,6.84,0,0,0,0,13.68h28.83v16.62H41.77V18.18h78.41V34.76Z"/><path class="cls-1" d="M230.88,124.22a0.26,0.26,0,0,0-.07-0.14c-0.85-1.74-20-40.87-30-61.42a6.82,6.82,0,0,0-12.28,0c-21.34,43.57-27.91,57-29.92,61.66l-0.21-.1c-6.57,13.37-7.76,25.27-3.56,36.52a46.34,46.34,0,0,0,19,22.36l1.47,0.82a22.86,22.86,0,0,0,2.77,1.33c0.48,0.24,1,.41,1.5.62l0.75,0.27a2.34,2.34,0,0,0,.34.14,13.07,13.07,0,0,0,1.23.48c0.17,0.07.34,0.1,0.51,0.17l0.27,0a40.69,40.69,0,0,0,11.93,1.85,42.79,42.79,0,0,0,12.21-1.88c0.27-.07.51-0.17,0.79-0.24l2.05-.82c0.51-.21,1-0.38,1.54-0.62a26.81,26.81,0,0,0,2.63-1.27l1.88-1a46.69,46.69,0,0,0,18.74-22.23,0.36,0.36,0,0,1,.07-0.17C238.64,149.53,237.44,137.66,230.88,124.22Zm-9.13,31.46a32.53,32.53,0,0,1-12.86,15.39l-1.71.92a12.76,12.76,0,0,1-1.37.68c-0.27.1-.58,0.24-0.89,0.34l-1.85.72c-0.17,0-.38.1-0.44,0.1a25.73,25.73,0,0,1-16.28-.07l-0.31-.1-0.62-.24-1.09-.41c-0.27-.1-0.58-0.24-0.89-0.34a12.09,12.09,0,0,1-1.47-.75l-1.33-.68a32.54,32.54,0,0,1-13.06-15.49c-2.77-7.35-1.74-15.7,3.08-25.51a0.26,0.26,0,0,0,.07-0.14l23.9-48.87c17.1,34.95,22.26,45.48,24.07,48.94l-0.1,0C223.39,140.06,224.41,148.4,221.75,155.69Z"/></svg>