<svg id="Layer_1" data-name="Layer 1" xmlns="http://www.w3.org/2000/svg" viewBox="0 0 265 265"><defs><style>.cls-1{fill:#fff;}</style></defs><title>Iconografia - 256x256</title><path class="cls-1" d="M187.89,169.17a91.65,91.65,0,1,0-110.75,0L52.8,234.24a6.86,6.86,0,0,0,9.3,8.62l25.06-11.63,11.28,25.2a6.8,6.8,0,0,0,6.22,4.07h0.24a6.89,6.89,0,0,0,6.19-4.44l21.44-57.31L154,256.06a6.82,6.82,0,0,0,6.19,4.44h0.21a6.76,6.76,0,0,0,6.22-4.07l11.28-25.2,25.06,11.63a6.84,6.84,0,0,0,9.27-8.62Zm-10.53,46.71a6.86,6.86,0,0,0-5.27-.17,6.76,6.76,0,0,0-3.86,3.59l-7.32,16.34-18.09-48.45c1.23-.14,2.5-0.31,3.73-0.48,0.51-.1,1.06-0.17,1.57-0.27,1-.17,2-0.34,3-0.58a5.31,5.31,0,0,0,.72-0.14c1.23-.27,2.5-0.55,3.73-0.85a0.68,0.68,0,0,1,.31-0.07c2.77-.75,5.51-1.61,8.21-2.6a0.36,0.36,0,0,0,.17-0.07c1.2-.44,2.36-0.92,3.56-1.4,1.47-.62,2.94-1.27,4.41-2,1.23-.58,2.46-1.23,3.69-1.88l0.21-.1,17.47,46.64ZM96.8,219.3A6.7,6.7,0,0,0,93,215.71a6.58,6.58,0,0,0-2.39-.44,7.16,7.16,0,0,0-2.91.62l-16.24,7.56L88.9,176.76c0.27,0.14.55,0.31,0.85,0.44s0.92,0.48,1.37.68q1,0.56,2.05,1c2,1,4,1.85,6.12,2.63,1,0.41,2,.75,3,1.13l0.34,0.1c1,0.34,1.91.65,2.91,1,1.5,0.48,3,.89,4.58,1.27,0.92,0.24,1.85.48,2.77,0.65,1.85,0.41,3.73.75,5.61,1.06,1.23,0.17,2.46.34,3.73,0.48l-18.12,48.45ZM132.53,18.18a78,78,0,0,1,.62,155.92h-1.23A78,78,0,0,1,132.53,18.18Z"/><path class="cls-1" d="M73.24,86.32l24.69,24.07-5.85,34a6.85,6.85,0,0,0,9.95,7.18l30.47-16,30.5,16a6.73,6.73,0,0,0,3.18.79,6.84,6.84,0,0,0,6.77-8l-5.85-34,24.69-24.07A6.85,6.85,0,0,0,188,74.66l-34.09-5L138.65,38.83a6.83,6.83,0,0,0-12.28,0L111.13,69.71,77,74.66A6.85,6.85,0,0,0,73.24,86.32ZM121.8,79l10.7-21.68L143.24,79a6.8,6.8,0,0,0,5.13,3.76l23.93,3.49L155,103.08a6.9,6.9,0,0,0-2,6.05l4.1,23.87-21.4-11.25a6.83,6.83,0,0,0-6.39,0L107.92,133l4.1-23.87a6.9,6.9,0,0,0-2-6.05L92.73,86.22l23.93-3.49A6.8,6.8,0,0,0,121.8,79Z"/></svg>