<svg id="Layer_1" data-name="Layer 1" xmlns="http://www.w3.org/2000/svg" viewBox="0 0 265 265"><defs><style>.cls-1{fill:#fff;}</style></defs><title>Iconografia - 256x256</title><path class="cls-1" d="M122.62,55a6.82,6.82,0,0,1-6.84,6.84H68.18a6.84,6.84,0,0,1,0-13.68h47.6A6.84,6.84,0,0,1,122.62,55Z"/><path class="cls-1" d="M170.25,87.6a6.86,6.86,0,0,1-6.84,6.84H68.18a6.84,6.84,0,0,1,0-13.68h95.24A6.84,6.84,0,0,1,170.25,87.6Z"/><path class="cls-1" d="M170.25,120.19a6.84,6.84,0,0,1-6.84,6.84H68.18a6.84,6.84,0,0,1,0-13.68h95.24A6.86,6.86,0,0,1,170.25,120.19Z"/><path class="cls-1" d="M170.25,152.81a6.86,6.86,0,0,1-6.84,6.84H68.18a6.84,6.84,0,0,1,0-13.68h95.24A6.84,6.84,0,0,1,170.25,152.81Z"/><path class="cls-1" d="M170.25,185.4a6.84,6.84,0,0,1-6.84,6.84H68.18a6.84,6.84,0,0,1,0-13.68h95.24A6.86,6.86,0,0,1,170.25,185.4Z"/><path class="cls-1" d="M224.42,28.06H197.82V11.34A6.82,6.82,0,0,0,191,4.5H40.58a6.84,6.84,0,0,0-6.84,6.84V220.25a6.86,6.86,0,0,0,6.84,6.84H57.33v26.57a6.82,6.82,0,0,0,6.84,6.84H224.42a6.84,6.84,0,0,0,6.84-6.84V34.9A6.86,6.86,0,0,0,224.42,28.06Zm-177,185.35V18.18H184.14V213.41H47.42Zm170.16,33.41H71V227.09H191a6.84,6.84,0,0,0,6.84-6.84V41.74h19.77V246.82Z"/></svg>