<svg id="Layer_1" data-name="Layer 1" xmlns="http://www.w3.org/2000/svg" viewBox="0 0 265 265"><defs><style>.cls-1{fill:#fff;}</style></defs><title>Iconografia - 256x256</title><path class="cls-1" d="M216.55,104.62H190V54C190,26.73,164.23,4.5,132.5,4.5S75,26.73,75,54v50.61H48.45a6.84,6.84,0,0,0-6.84,6.84V253.66a6.86,6.86,0,0,0,6.84,6.84H216.55a6.84,6.84,0,0,0,6.84-6.84V111.45A6.81,6.81,0,0,0,216.55,104.62ZM88.7,54c0-19.76,19.66-35.83,43.8-35.83S176.33,34.25,176.33,54v50.61H88.7V54Zm121,192.81H55.29V118.29H209.71V246.82Z"/><path class="cls-1" d="M160,208.7l-10-27a21.7,21.7,0,1,0-35,0l-10,27a6.86,6.86,0,0,0,6.43,9.2h42.09a6.82,6.82,0,0,0,5.61-2.94A6.9,6.9,0,0,0,160,208.7Zm-38.71-4.48,8-21.71a6.83,6.83,0,0,0-2-7.56,8,8,0,1,1,10.39,0,6.87,6.87,0,0,0-1.95,7.56l8,21.71H121.28Z"/></svg>