<svg id="Layer_1" data-name="Layer 1" xmlns="http://www.w3.org/2000/svg" viewBox="0 0 16 16"><title>Iconografia - 16x16</title><path d="M14.65,8.78a2.77,2.77,0,0,0-1.53-.93,2.65,2.65,0,0,0,.53-2.91,2.16,2.16,0,0,0-3.84,0L9.76,5,9.4,4.92A2.66,2.66,0,0,0,9.92,2,2.16,2.16,0,0,0,6.08,2,2.66,2.66,0,0,0,6.6,4.92L6.24,5,6.19,4.93a2.16,2.16,0,0,0-3.84,0,2.65,2.65,0,0,0,.53,2.91,2.76,2.76,0,0,0-1.53.93c-0.58.87-.22,2.92-0.18,3.15a0.39,0.39,0,0,0,.38.31H4.86a7.49,7.49,0,0,0,0,2.62,0.39,0.39,0,0,0,.38.31h5.45a0.38,0.38,0,0,0,.38-0.31,7.43,7.43,0,0,0,0-2.62h3.31a0.38,0.38,0,0,0,.38-0.31C14.88,11.7,15.23,9.65,14.65,8.78Zm-8.23-3,0.43-.16,0.54-.2a0.39,0.39,0,0,0,.22-0.27,0.38,0.38,0,0,0-.09-0.34C6.66,3.86,6.41,3,6.76,2.35a1.39,1.39,0,0,1,2.48,0c0.35,0.69.1,1.51-.77,2.48a0.38,0.38,0,0,0,.13.61C8.78,5.51,9,5.58,9.15,5.64L9.57,5.8a3.17,3.17,0,0,0,.76,2.05L10,8,9.92,7.86a2.16,2.16,0,0,0-3.84,0L6,8,5.66,7.85A3.17,3.17,0,0,0,6.43,5.8ZM5.27,11.48H1.87A4.39,4.39,0,0,1,2,9.2a2.22,2.22,0,0,1,1.14-.63l0.54-.2A0.39,0.39,0,0,0,3.89,8.1,0.39,0.39,0,0,0,3.8,7.76C2.93,6.79,2.68,6,3,5.28a1.39,1.39,0,0,1,2.48,0l0,0.1a1.4,1.4,0,0,1,.1.4,2.26,2.26,0,0,1-.52,1.49C5,7.42,4.9,7.58,4.76,7.74l0,0a0.39,0.39,0,0,0,.06.57l0.07,0L5.21,8.5,5.42,8.57,5.84,8.73c0,0.07,0,.14,0,0.21a2.46,2.46,0,0,0,0,.38,3.75,3.75,0,0,0,.72,1.46A3.32,3.32,0,0,0,5.27,11.48Zm5.13,2.93H5.6a5.07,5.07,0,0,1,.06-2.16l0.06-.11A1,1,0,0,1,6,11.86a4.07,4.07,0,0,1,.84-0.36l0.21-.07,0.34-.13,0.07,0A0.39,0.39,0,0,0,7.62,11a0.38,0.38,0,0,0-.09-0.34l0,0a5.79,5.79,0,0,1-.38-0.47,3,3,0,0,1-.46-0.89,1.66,1.66,0,0,1-.07-0.38,1.18,1.18,0,0,1,0-.22,1.56,1.56,0,0,1,0-.16,1.3,1.3,0,0,1,.07-0.24l0-.1a1.39,1.39,0,0,1,2.48,0l0,0.1a1.46,1.46,0,0,1,.07.24,1.56,1.56,0,0,1,0,.16,1.6,1.6,0,0,1-.06.6,3,3,0,0,1-.46.89,5.75,5.75,0,0,1-.38.47l0,0a0.38,0.38,0,0,0-.09.34,0.39,0.39,0,0,0,.15.23l0.07,0,0.34,0.13L9.15,11.5a4.07,4.07,0,0,1,.84.36,1,1,0,0,1,.3.27,0.61,0.61,0,0,1,.06.11A5.07,5.07,0,0,1,10.4,14.41Zm3.73-2.93h-3.4a3.33,3.33,0,0,0-1.33-.7,3.72,3.72,0,0,0,.71-1.46,2.25,2.25,0,0,0,0-.38,1.83,1.83,0,0,0,0-.21l0.43-.16,0.21-.07,0.34-.13,0.07,0a0.39,0.39,0,0,0,.15-0.23,0.38,0.38,0,0,0-.09-0.34l0,0a5.75,5.75,0,0,1-.38-0.47,2.24,2.24,0,0,1-.52-1.49,1.4,1.4,0,0,1,.1-0.4l0-.1a1.39,1.39,0,0,1,2.48,0c0.35,0.69.1,1.51-.77,2.48a0.38,0.38,0,0,0-.09.34,0.39,0.39,0,0,0,.22.27l0.54,0.2A2.22,2.22,0,0,1,14,9.2,4.39,4.39,0,0,1,14.13,11.48Z"/></svg>