<svg id="Layer_1" data-name="Layer 1" xmlns="http://www.w3.org/2000/svg" viewBox="0 0 16 16"><title>Iconografia - 16x16</title><path d="M13.82,0.83H2.18a0.4,0.4,0,0,0-.4.4V4.6a0.4,0.4,0,0,0,.4.4H13.82a0.4,0.4,0,0,0,.4-0.4V1.23A0.4,0.4,0,0,0,13.82.83ZM13.43,4.2H2.57V1.62H13.43V4.2Z"/><path d="M8,5.91H2.18a0.4,0.4,0,0,0-.4.4V9.69a0.4,0.4,0,0,0,.4.4H8a0.4,0.4,0,0,0,.4-0.4V6.31A0.4,0.4,0,0,0,8,5.91ZM7.6,9.29h-5V6.71h5V9.29Z"/><path d="M6.06,11H2.18a0.4,0.4,0,0,0-.4.4v3.37a0.4,0.4,0,0,0,.4.4H6.06a0.4,0.4,0,0,0,.4-0.4V11.4A0.4,0.4,0,0,0,6.06,11Zm-0.4,3.37H2.57V11.8H5.66v2.58Z"/><path d="M13.71,5.91a0.4,0.4,0,0,0-.4.4V7.62a1,1,0,0,1-1,1H11A0.4,0.4,0,0,0,10.45,8l-0.68.68h0l0,0.06v0l0,0.05v0l0,0.05a0.39,0.39,0,0,0,0,.16V9.16l0,0v0l0,0.05h0L10.45,10A0.4,0.4,0,0,0,11,9.41h1.31a1.77,1.77,0,0,0,1-.3v3.53a0.2,0.2,0,0,1,0,.08,1,1,0,0,1-1,1H9.07a0.4,0.4,0,1,0-.56-0.56l-0.68.68a0.4,0.4,0,0,0-.12.29h0a0.38,0.38,0,0,0,0,0v0a0.4,0.4,0,0,0,.15.25l0.64,0.64a0.4,0.4,0,0,0,.57-0.56h3.25a1.78,1.78,0,0,0,1.78-1.78,0.2,0.2,0,0,1,0-.08V6.31A0.4,0.4,0,0,0,13.71,5.91Z"/></svg>