<svg id="Layer_1" data-name="Layer 1" xmlns="http://www.w3.org/2000/svg" viewBox="0 0 16 16"><title>Iconografia - 16x16</title><path d="M14.23,4.44h0A7.16,7.16,0,0,0,8.66.86h0l-0.53,0H7.88l-0.53,0h0A7.17,7.17,0,0,0,1.77,4.44a7.07,7.07,0,0,0-.71,1.72A7.28,7.28,0,0,0,.83,8a7.19,7.19,0,0,0,7.07,7.16h0l0.1,0,0.1,0h0a7.21,7.21,0,0,0,6.1-3.58,7.12,7.12,0,0,0,.72-1.72A7.29,7.29,0,0,0,15.17,8,7.13,7.13,0,0,0,14.23,4.44Zm-1-.2H11.73A6.84,6.84,0,0,0,10.5,2.1,6.41,6.41,0,0,1,13.19,4.24ZM12,8H11.61c0,0.14,0,.28,0,0.41s0,0.09,0,.13,0,0.18,0,.28V9c0,0.08,0,.16,0,0.25s0,0.11,0,.17,0,0.16,0,.23l0,0.17c0,0.07,0,.15,0,0.22s0,0.11,0,.17l0,0.21,0,0.17-0.06.21,0,0.16,0,0.06H4.83l0-.06,0-.16-0.06-.21,0-.17,0-.21,0-.18,0-.2,0-.2,0-.19c0-.07,0-0.14,0-0.21l0-.18c0-.07,0-0.15,0-0.22s0-.12,0-0.18,0-.15,0-0.22,0-.18,0-0.27,0-.1,0-0.14,0-.27,0-0.41,0-.09,0-0.14,0-.18,0-0.27V7c0-.08,0-0.16,0-0.25l0-.17,0-.23,0-.17c0-.08,0-0.15,0-0.22l0-.17,0-.22,0-.16,0.06-.21,0-.16,0-.06h6.36l0,0.06,0,0.15L11.3,5.44l0,0.16,0,0.23,0,0.15,0,0.25,0,0.14c0,0.09,0,.18,0,0.27s0,0.08,0,.12,0,0.21,0,.31V7.17c0,0.13,0,.25,0,0.38s0,0,0,0,0,0.28,0,.41H12ZM7.68,1.62H8.32a3.87,3.87,0,0,1,2.58,2.62H5.09A3.86,3.86,0,0,1,7.68,1.62ZM5.5,2.1A6.88,6.88,0,0,0,4.27,4.24H2.81A6.42,6.42,0,0,1,5.5,2.1ZM1.59,8a6.4,6.4,0,0,1,.74-3H4L4,5.24l0,0.1c0,0.13-.06.27-0.09,0.4V5.81c0,0.12,0,.23-0.06.35s0,0.07,0,.11,0,0.21,0,.31V6.7c0,0.11,0,.22,0,0.32V7.13c0,0.12,0,.24,0,0.36s0,0,0,.07,0,0.29,0,.43h0c0,0.14,0,.29,0,0.43s0,0.09,0,.14,0,0.19,0,.29V9l0,0.27,0,0.16,0,0.27,0,0.14c0,0.11,0,.22.06,0.32l0,0.08c0,0.13.06,0.27,0.09,0.4l0,0.1L4,11H2.35A6.4,6.4,0,0,1,1.59,8Zm1.24,3.79H4.28a6.85,6.85,0,0,0,1.2,2.1A6.43,6.43,0,0,1,2.83,11.79Zm5.25,2.62H7.91c-1.1,0-2.15-1-2.81-2.62h5.79C10.23,13.37,9.19,14.36,8.09,14.41Zm2.44-.52a6.85,6.85,0,0,0,1.2-2.1h1.45A6.43,6.43,0,0,1,10.52,13.89ZM13.65,11H12L12,10.8l0-.11c0-.13.06-0.26,0.09-0.39l0-.13,0-.28c0-.06,0-0.12,0-0.18l0-.23q0-.1,0-0.2l0-.22,0-.21c0-.07,0-0.15,0-0.22s0-.13,0-0.2,0-.22,0-0.34,0,0,0-.08h0c0-.14,0-0.28,0-0.43s0-.09,0-0.14,0-.19,0-0.29V7c0-.09,0-0.18,0-0.27l0-.16,0-.27,0-.15q0-.16-0.06-0.32l0-.09c0-.13-0.06-0.26-0.09-0.4l0-.11L12,5h1.68A6.41,6.41,0,0,1,13.65,11Z"/><path d="M9.89,7.63H8.38V6.13a0.38,0.38,0,0,0-.77,0V7.63H6.11a0.38,0.38,0,0,0,0,.77H7.62V9.91a0.38,0.38,0,1,0,.77,0V8.4H9.89A0.38,0.38,0,0,0,9.89,7.63Z"/></svg>