<svg id="Layer_1" data-name="Layer 1" xmlns="http://www.w3.org/2000/svg" viewBox="0 0 16 16"><title>Iconografia - 16x16</title><path d="M9.67,8.39L7.4,11,6.34,9.71a0.38,0.38,0,1,0-.59.48l1.34,1.64L7.14,11.9a0.39,0.39,0,0,0,.12.07H7.53l0.05,0h0l0,0,0,0v0l2.55-3A0.38,0.38,0,1,0,9.67,8.39Z"/><path d="M15.29,5.52A0.38,0.38,0,0,0,15,5.4H14.77V2.12a0.38,0.38,0,0,0-.38-0.38h-7V1.21A0.38,0.38,0,0,0,7,.83H1.61a0.38,0.38,0,0,0-.38.38V5.4H1a0.38,0.38,0,0,0-.28.12,0.38,0.38,0,0,0-.1.29l0.7,9a0.38,0.38,0,0,0,.38.35H14.31a0.38,0.38,0,0,0,.38-0.35l0.7-9A0.39,0.39,0,0,0,15.29,5.52ZM2,1.59H6.6V2.12A0.38,0.38,0,0,0,7,2.5h7V3.82H7.36V3.3A0.38,0.38,0,0,0,7,2.91H2V1.59ZM2,3.68H6.6V4.21A0.38,0.38,0,0,0,7,4.59h7V5.4H2V3.68ZM14,14.41H2L1.41,6.17H14.59Z"/></svg>