<svg id="Layer_1" data-name="Layer 1" xmlns="http://www.w3.org/2000/svg" viewBox="0 0 16 16"><title>Iconografia - 16x16</title><path d="M5.18,8.18a0.38,0.38,0,0,0,.38.38H6.09c-0.39.81-.56,1.14-0.62,1.3h0a1.45,1.45,0,0,0-.11,1.19,1.51,1.51,0,0,0,.62.73l0,0,0.1,0,0.05,0h0l0,0h0a1.34,1.34,0,0,0,.78,0h0l0,0h0l0,0,0.09,0,0.06,0A1.5,1.5,0,0,0,8,11.05H8a1.46,1.46,0,0,0-.11-1.18h0L7.22,8.57H7.75a0.38,0.38,0,0,0,.38-0.38A3.93,3.93,0,0,0,4.73,4.29v-1H5A1.24,1.24,0,1,0,5,.83H2A1.24,1.24,0,1,0,2,3.31H2.25V4.26H1.13a0.38,0.38,0,0,0,0,.77H4.21A3.16,3.16,0,0,1,7.35,7.8H5.91a1.74,1.74,0,0,0-1.7-1.36H1.13a0.38,0.38,0,0,0,0,.77H4.21A1,1,0,0,1,5.18,8.18Zm2.07,2.59a0.74,0.74,0,0,1-.28.34l0,0h0l0,0h0a0.56,0.56,0,0,1-.34,0h0l-0.06,0h0l0,0a0.74,0.74,0,0,1-.29-0.34,0.69,0.69,0,0,1,.08-0.58h0l0.51-1,0.52,1h0A0.74,0.74,0,0,1,7.25,10.77ZM1.52,2.07A0.47,0.47,0,0,1,2,1.59H5a0.47,0.47,0,1,1,0,.95H2A0.48,0.48,0,0,1,1.52,2.07ZM3,3.31H4V4.26H3V3.31Z"/><path d="M14.9,9.45L11.49,9.2a0.39,0.39,0,0,0-.29.11s-2.15,2.06-3,2.93a1,1,0,0,0-.29.53H5.51a0.94,0.94,0,0,0-.58.43,1.34,1.34,0,0,0-.2,1,1.18,1.18,0,0,0,1.07,1H10a0.38,0.38,0,0,0,.25-0.09l2.77-2.38,1.87-.28A0.38,0.38,0,0,0,15.25,12V9.84A0.38,0.38,0,0,0,14.9,9.45Zm-0.41,2.26L12.84,12a0.36,0.36,0,0,0-.19.09L9.9,14.41H5.79A0.47,0.47,0,0,1,5.48,14a0.59,0.59,0,0,1,.09-0.39,0.28,0.28,0,0,1,.08-0.09H8l0.1,0.12a1,1,0,0,0,1.41,0l0.89-.86,0.38-.37a0.38,0.38,0,1,0-.53-0.55l-0.38.37-0.32.31L9,13.13a0.25,0.25,0,0,1-.35,0l0-.06a0.25,0.25,0,0,0,0-.06h0a0.24,0.24,0,0,1,.07-0.21c0.75-.74,2.43-2.36,2.9-2.8l2.88,0.21v1.52Z"/></svg>