<svg id="Layer_1" data-name="Layer 1" xmlns="http://www.w3.org/2000/svg" viewBox="0 0 16 16"><title>Iconografia - 16x16</title><path d="M13.82,0.83H2.18a0.38,0.38,0,0,0-.38.38V11.49a0.38,0.38,0,0,0,.38.38H5.92L4.37,14.6A0.38,0.38,0,1,0,5,15l1.76-3.1H9.2L11,15a0.38,0.38,0,1,0,.67-0.38l-1.55-2.73h3.73a0.38,0.38,0,0,0,.38-0.38V1.21A0.38,0.38,0,0,0,13.82.83ZM2.56,1.59H13.44V2.41H2.56V1.59Zm10.87,9.51H2.56V3.17H13.44v7.93Z"/><path d="M4.12,10.23A0.38,0.38,0,0,0,4.5,9.85v-2a0.38,0.38,0,0,0-.77,0v2A0.38,0.38,0,0,0,4.12,10.23Z"/><path d="M6.06,10.23a0.38,0.38,0,0,0,.38-0.38V6.67a0.38,0.38,0,1,0-.77,0V9.85A0.38,0.38,0,0,0,6.06,10.23Z"/><path d="M8,10.23a0.38,0.38,0,0,0,.38-0.38V5.36a0.38,0.38,0,0,0-.77,0V9.85A0.38,0.38,0,0,0,8,10.23Z"/><path d="M9.94,10.23a0.38,0.38,0,0,0,.38-0.38V4.54a0.38,0.38,0,0,0-.77,0V9.85A0.38,0.38,0,0,0,9.94,10.23Z"/><path d="M11.88,10.23a0.38,0.38,0,0,0,.38-0.38V6.67a0.38,0.38,0,1,0-.77,0V9.85A0.38,0.38,0,0,0,11.88,10.23Z"/></svg>