<svg id="Layer_1" data-name="Layer 1" xmlns="http://www.w3.org/2000/svg" viewBox="0 0 16 16"><title>Iconografia - 16x16</title><path d="M1.54,10.65a1.88,1.88,0,0,0,3.77,0,1.83,1.83,0,0,0-.1-0.6L7.62,8.63v2.81a1.88,1.88,0,1,0,.77,0V8.63l2.41,1.42a1.89,1.89,0,1,0,.39-0.66L8.76,8l2.43-1.43a1.88,1.88,0,1,0-.49-1.26,1.92,1.92,0,0,0,.1.6L8.38,7.3V4.55a1.88,1.88,0,1,0-.77,0V7.3L5.2,5.88a1.9,1.9,0,1,0-.39.66L7.24,8,4.81,9.39A1.88,1.88,0,0,0,1.54,10.65Zm3-5.37a1.11,1.11,0,0,1-.15.56A1.12,1.12,0,1,1,4.53,5.28Zm6.93,0a1.12,1.12,0,1,1,.16.57h0A1.1,1.1,0,0,1,11.47,5.28Zm0,5.37a1.12,1.12,0,1,1,1.12,1.12A1.12,1.12,0,0,1,11.47,10.65ZM8,12.17a1.12,1.12,0,1,1-1.12,1.12A1.12,1.12,0,0,1,8,12.17ZM6.88,2.71a1.12,1.12,0,1,1,1.9.79A1.11,1.11,0,0,1,8,3.83,1.12,1.12,0,0,1,6.88,2.71ZM2.3,10.65A1.12,1.12,0,0,1,4,9.68a1.15,1.15,0,0,1,.41.4A1.12,1.12,0,1,1,2.3,10.65Z"/></svg>