<svg id="Layer_1" data-name="Layer 1" xmlns="http://www.w3.org/2000/svg" viewBox="0 0 16 16"><title>Iconografia - 16x16</title><path d="M7.45,3.66A0.38,0.38,0,0,1,7.06,4H4.4a0.38,0.38,0,0,1,0-.77H7.06A0.38,0.38,0,0,1,7.45,3.66Z"/><path d="M10.12,5.48a0.38,0.38,0,0,1-.38.38H4.4a0.38,0.38,0,0,1,0-.77H9.73A0.38,0.38,0,0,1,10.12,5.48Z"/><path d="M10.12,7.31a0.38,0.38,0,0,1-.38.38H4.4a0.38,0.38,0,0,1,0-.77H9.73A0.38,0.38,0,0,1,10.12,7.31Z"/><path d="M10.12,9.14a0.38,0.38,0,0,1-.38.38H4.4a0.38,0.38,0,0,1,0-.77H9.73A0.38,0.38,0,0,1,10.12,9.14Z"/><path d="M10.12,11a0.38,0.38,0,0,1-.38.38H4.4a0.38,0.38,0,1,1,0-.77H9.73A0.38,0.38,0,0,1,10.12,11Z"/><path d="M13.15,2.15H11.66V1.21A0.38,0.38,0,0,0,11.28.83H2.85a0.38,0.38,0,0,0-.38.38V12.92a0.38,0.38,0,0,0,.38.38H3.79v1.49a0.38,0.38,0,0,0,.38.38h9a0.38,0.38,0,0,0,.38-0.38V2.53A0.38,0.38,0,0,0,13.15,2.15ZM3.23,12.53V1.59h7.66V12.53H3.23Zm9.54,1.87H4.55V13.3h6.72a0.38,0.38,0,0,0,.38-0.38v-10h1.11V14.41Z"/></svg>