<svg id="Layer_1" data-name="Layer 1" xmlns="http://www.w3.org/2000/svg" viewBox="0 0 16 16"><title>Iconografia - 16x16</title><path d="M12.71,6.44H11.22V3.6A3,3,0,0,0,8,.83,3,3,0,0,0,4.78,3.6V6.44H3.29a0.38,0.38,0,0,0-.38.38v8a0.38,0.38,0,0,0,.38.38h9.42a0.38,0.38,0,0,0,.38-0.38v-8A0.38,0.38,0,0,0,12.71,6.44ZM5.55,3.6A2.27,2.27,0,0,1,8,1.59a2.27,2.27,0,0,1,2.46,2V6.44H5.55V3.6Zm6.78,10.81H3.67V7.2h8.65v7.2Z"/><path d="M9.54,12.27L9,10.76a1.22,1.22,0,1,0-2,0L6.46,12.27a0.38,0.38,0,0,0,.36.52H9.18a0.38,0.38,0,0,0,.31-0.16A0.39,0.39,0,0,0,9.54,12.27ZM7.37,12L7.82,10.8a0.38,0.38,0,0,0-.11-0.42,0.45,0.45,0,1,1,.58,0,0.38,0.38,0,0,0-.11.42L8.63,12H7.37Z"/></svg>