<svg id="Layer_1" data-name="Layer 1" xmlns="http://www.w3.org/2000/svg" viewBox="0 0 16 16"><title>Iconografia - 16x16</title><path d="M13.86,7.12a0.38,0.38,0,0,0-.54.07L8.38,13.73A1.7,1.7,0,0,1,6,14.06a1.7,1.7,0,0,1-.45-2.2A1.73,1.73,0,0,0,6.3,12l0.24,0a1.71,1.71,0,0,0,1.14-.67l0.88-1.16A0.37,0.37,0,0,0,8.63,9.9a0.38,0.38,0,0,0-.15-0.25l-0.3-.22,0.56-.73a0.38,0.38,0,1,0-.61-0.46L7.58,9,7.15,8.64l0.56-.73A0.38,0.38,0,1,0,7.1,7.44l-0.56.73L6.25,8A0.38,0.38,0,0,0,5.71,8L4.83,9.19a1.73,1.73,0,0,0,.1,2.21A2.47,2.47,0,0,0,7,15.17l0.34,0a2.45,2.45,0,0,0,1.63-1l4.94-6.54A0.38,0.38,0,0,0,13.86,7.12ZM5.44,9.65L6.09,8.8,7.71,10l-0.65.86a1,1,0,0,1-1.35.19L5.63,11A1,1,0,0,1,5.44,9.65Z"/><path d="M10.94,4.79A2.47,2.47,0,1,0,7,1.81L2.06,8.34a0.38,0.38,0,0,0,.07.54A0.39,0.39,0,0,0,2.37,9a0.38,0.38,0,0,0,.3-0.15L7.62,2.27A1.7,1.7,0,0,1,10,1.94a1.7,1.7,0,0,1,.33,2.38l0,0a1.73,1.73,0,0,0-2.13.51L7.31,6a0.38,0.38,0,0,0,.07.54L9.61,8.26a0.38,0.38,0,0,0,.54-0.07L11,7a1.73,1.73,0,0,0-.11-2.21ZM10.42,6.56l-0.65.85L8.15,6.19,8.8,5.33a1,1,0,0,1,1.35-.19l0.09,0.07A1,1,0,0,1,10.42,6.56Z"/></svg>