<svg id="Layer_1" data-name="Layer 1" xmlns="http://www.w3.org/2000/svg" viewBox="0 0 16 16"><title>Iconografia - 16x16</title><path d="M15.94,7.77a0.73,0.73,0,0,0-.67-0.45H15A7.28,7.28,0,0,0,8.54.86c-0.24,0-.49,0-0.73,0A7.2,7.2,0,0,0,2.34,3.31a0.73,0.73,0,0,0-.17.6,0.73,0.73,0,0,0,.35.51L3.7,5.09A0.72,0.72,0,0,0,4.59,5,4.45,4.45,0,0,1,9.3,3.83a4.77,4.77,0,0,1,2.94,3.49H12a0.73,0.73,0,0,0-.52,1.24l0,0,1.58,1.61a0.72,0.72,0,0,0,.51.22h0a0.73,0.73,0,0,0,.51-0.21l1.64-1.64A0.73,0.73,0,0,0,15.94,7.77ZM13.64,9.68L12,8h0.91c0.33-1.78-1.34-4.18-3.4-4.91A5.18,5.18,0,0,0,4.07,4.46L2.9,3.78A6.49,6.49,0,0,1,7.81,1.55c0.22,0,.44,0,0.66,0A6.54,6.54,0,0,1,14.32,8h1Z"/><path d="M13.46,11.58l-1.18-.68a0.73,0.73,0,0,0-.89.13,4.48,4.48,0,0,1-3.23,1.39A4.44,4.44,0,0,1,3.78,8.67H3.93a0.73,0.73,0,0,0,.51-1.24L2.85,5.84a0.73,0.73,0,0,0-1,0l-1.6,1.6A0.73,0.73,0,0,0,.73,8.68H1A7.29,7.29,0,0,0,2.8,12.77a7.19,7.19,0,0,0,4.29,2.32,7.64,7.64,0,0,0,1.09.08,7.17,7.17,0,0,0,5.47-2.49A0.73,0.73,0,0,0,13.46,11.58ZM8.18,14.45a6.83,6.83,0,0,1-1-.07A6.53,6.53,0,0,1,1.67,8H0.73l1.6-1.6L3.93,7.95H3a5,5,0,0,0,3.34,4.89,5.16,5.16,0,0,0,5.53-1.3l1.18,0.68A6.49,6.49,0,0,1,8.18,14.45Z"/><path d="M6.86,9.23a0.36,0.36,0,0,0-.73,0,1.68,1.68,0,0,0,1.5,1.56v0.53a0.36,0.36,0,0,0,.73,0V10.79a1.68,1.68,0,0,0,1.5-1.56,1.68,1.68,0,0,0-1.5-1.56V6a0.92,0.92,0,0,1,.77.82,0.36,0.36,0,1,0,.73,0,1.68,1.68,0,0,0-1.5-1.56V4.69a0.36,0.36,0,0,0-.73,0V5.21a1.68,1.68,0,0,0-1.5,1.56,1.68,1.68,0,0,0,1.5,1.56V10A0.92,0.92,0,0,1,6.86,9.23Zm2.27,0a0.92,0.92,0,0,1-.77.82V8.41A0.92,0.92,0,0,1,9.14,9.23ZM6.86,6.77A0.92,0.92,0,0,1,7.64,6V7.59A0.92,0.92,0,0,1,6.86,6.77Z"/></svg>