<svg id="Layer_1" data-name="Layer 1" xmlns="http://www.w3.org/2000/svg" viewBox="0 0 16 16"><title>Iconografia - 16x16</title><path d="M4.49,7.86a1,1,0,0,0-.56-0.3V5.19a0.34,0.34,0,0,0,0-.08,1,1,0,0,0-.44-0.6,1.38,1.38,0,0,0-1-.21,1.21,1.21,0,0,0-1,1.09c0,1.47,0,4.39,0,4.39a0.38,0.38,0,0,0,.09.25L4,12.91l0.29,1.94a0.39,0.39,0,0,0,.38.33H7a0.38,0.38,0,0,0,.38-0.36l0.26-3.53A0.39,0.39,0,0,0,7.52,11S5.38,8.77,4.49,7.86Zm2.14,6.55H5L4.77,12.69a0.39,0.39,0,0,0-.09-0.19L2.24,9.65c0-.6,0-3,0-4.25a0.5,0.5,0,0,1,.42-0.34,0.63,0.63,0,0,1,.41.1,0.3,0.3,0,0,1,.1.09V7.73L3,7.84A1,1,0,0,0,3,9.28l0.91,0.94L4.25,10.6a0.38,0.38,0,0,0,.55-0.53L4.44,9.68,4.13,9.37h0L3.56,8.78a0.27,0.27,0,0,1,0-.39l0.06,0,0.06,0h0a0.26,0.26,0,0,1,.23.08c0.77,0.78,2.45,2.53,2.9,3Z"/><path d="M14.53,5.4a1.21,1.21,0,0,0-1-1.09,1.39,1.39,0,0,0-1,.21,1,1,0,0,0-.44.6,0.49,0.49,0,0,0,0,.08V7.56a1,1,0,0,0-.56.3c-0.89.91-3,3.12-3,3.14a0.39,0.39,0,0,0-.11.29l0.26,3.53a0.38,0.38,0,0,0,.38.36H11.3a0.38,0.38,0,0,0,.38-0.33L12,12.91,14.44,10a0.38,0.38,0,0,0,.09-0.25S14.53,6.87,14.53,5.4Zm-3.55,9H9.38l-0.22-3c0.46-.48,2.14-2.23,2.9-3a0.26,0.26,0,0,1,.23-0.08h0l0.07,0,0.06,0a0.27,0.27,0,0,1,0,.39l-0.57.59-0.31.32-0.37.38a0.38,0.38,0,0,0,.55.53l0.37-.38L13,9.28A1,1,0,0,0,13,7.84l-0.13-.11V5.25a0.32,0.32,0,0,1,.1-0.09,0.62,0.62,0,0,1,.41-0.1,0.5,0.5,0,0,1,.42.34c0,1.28,0,3.65,0,4.25l-2.45,2.84a0.37,0.37,0,0,0-.09.19Z"/><path d="M8.69,8h0l0.12,0,0.08,0,0.15-.07,0.1-.06a2.59,2.59,0,0,0,1-1.24h0a2.49,2.49,0,0,0-.2-2h0L8.34,1a0.38,0.38,0,0,0-.69,0C6.47,3.47,6.1,4.22,6,4.48H6a2.47,2.47,0,0,0-.2,2A2.61,2.61,0,0,0,6.84,7.76l0.08,0L7.08,7.88l0.08,0,0,0h0L7.29,8H7.34A2.22,2.22,0,0,0,8.66,8h0ZM8.44,7.24a1.47,1.47,0,0,1-.89,0H7.49l-0.06,0,0,0-0.08,0-0.07,0a1.81,1.81,0,0,1-.73-0.86,1.76,1.76,0,0,1,.17-1.42h0L8,2.08C9,4,9.24,4.62,9.34,4.81h0a1.77,1.77,0,0,1,.17,1.42,1.81,1.81,0,0,1-.71.86l-0.1.05-0.07,0,0,0-0.11,0h0Z"/></svg>