<svg id="Layer_1" data-name="Layer 1" xmlns="http://www.w3.org/2000/svg" viewBox="0 0 16 16"><title>Iconografia - 16x16</title><path d="M14.86,9.6L13.07,7.82a0.39,0.39,0,0,0-.27-0.11H9.6V6.6h4A0.38,0.38,0,0,0,14,6.22V2.66a0.38,0.38,0,0,0-.38-0.38h-4V1.21A0.38,0.38,0,0,0,9.22.83H6.78a0.38,0.38,0,0,0-.38.38V2.28H3.2a0.38,0.38,0,0,0-.27.11L1.14,4.17a0.38,0.38,0,0,0,0,.54L2.93,6.49a0.38,0.38,0,0,0,.27.11H6.4V7.71h-4A0.38,0.38,0,0,0,2,8.1v3.56a0.38,0.38,0,0,0,.38.38h4v2.75a0.38,0.38,0,0,0,.38.38H9.22a0.38,0.38,0,0,0,.38-0.38V12H12.8a0.39,0.39,0,0,0,.27-0.11l1.79-1.78A0.38,0.38,0,0,0,14.86,9.6Zm-7.7-8H8.84V2.28H7.16V1.59ZM3.36,5.84L2,4.44,3.36,3h9.83V5.84H3.36ZM8.84,6.6V7.71H7.16V6.6H8.84Zm0,7.8H7.16V12H8.84v2.37Zm3.8-3.14H2.81V8.48h9.83L14,9.87Z"/></svg>