<svg id="Layer_1" data-name="Layer 1" xmlns="http://www.w3.org/2000/svg" viewBox="0 0 16 16"><title>Iconografia - 16x16</title><path d="M14.79,7.62H14.3a6.29,6.29,0,0,0-1.58-3.8l0.35-.35a0.38,0.38,0,0,0-.54-0.54l-0.35.35A6.29,6.29,0,0,0,8.38,1.7V1.21a0.38,0.38,0,0,0-.77,0V1.7a6.29,6.29,0,0,0-3.8,1.58L3.47,2.93a0.38,0.38,0,0,0-.54.54L3.27,3.82A6.27,6.27,0,0,0,1.7,7.62H1.21a0.38,0.38,0,0,0,0,.77H1.7a6.28,6.28,0,0,0,1.58,3.8l-0.35.35a0.38,0.38,0,1,0,.54.54l0.35-.35a6.29,6.29,0,0,0,3.8,1.58v0.49a0.38,0.38,0,0,0,.77,0V14.3a6.3,6.3,0,0,0,3.8-1.58l0.34,0.34a0.39,0.39,0,0,0,.27.11,0.38,0.38,0,0,0,.27-0.66l-0.34-.34a6.28,6.28,0,0,0,1.58-3.8h0.49A0.38,0.38,0,0,0,14.79,7.62Zm-2.61,4-0.88-.88h0.43a0.38,0.38,0,0,0,0-.77H10.29l-0.11,0,0,0,0,0,0,0,0,0,0,0v0l0,0h0a0.3,0.3,0,0,0,0,.07v1.36a0.38,0.38,0,1,0,.77,0V11.3l0.88,0.88a5.5,5.5,0,0,1-3.26,1.35V12.28l0.31,0.31A0.38,0.38,0,0,0,9.23,12l-0.94-.94,0,0L8.21,11h0A0.38,0.38,0,0,0,8,11a0.37,0.37,0,0,0-.21.06h0l-0.06,0,0,0h0L6.77,12A0.38,0.38,0,0,0,7,12.7a0.38,0.38,0,0,0,.27-0.11l0.31-.31v1.25a5.49,5.49,0,0,1-3.26-1.35l0.88-.88v0.43a0.38,0.38,0,0,0,.77,0V10.37H6a0.3,0.3,0,0,0,0-.07,0.3,0.3,0,0,0,0-.07l0-.07h0l0-.06-0.06,0h0L5.78,10h0L5.7,10H4.27a0.38,0.38,0,0,0,0,.77H4.7l-0.88.88A5.48,5.48,0,0,1,2.47,8.38H3.72l-0.31.31A0.38,0.38,0,1,0,4,9.23l1-1,0-.06H5l0-.06H5l0-.07H5A0.31,0.31,0,0,0,5,8H5a0.3,0.3,0,0,0,0-.07H5a0.23,0.23,0,0,0,0-.06H5L5,7.8v0l0-.05,0,0L4,6.77a0.38,0.38,0,1,0-.54.54L3.72,7.62H2.47A5.48,5.48,0,0,1,3.82,4.36L4.7,5.25H4.27a0.38,0.38,0,0,0,0,.77H5.7L5.77,6h0l0,0h0l0.05,0,0-.06h0l0-.06H6l0-.07H6a0.31,0.31,0,0,0,0-.07V4.27a0.38,0.38,0,0,0-.77,0V4.7L4.36,3.82A5.49,5.49,0,0,1,7.62,2.47V3.72L7.31,3.41A0.38,0.38,0,0,0,6.77,4L7.7,4.89l0,0L7.78,5h0L7.84,5h0L7.93,5H8.08l0,0h0L8.21,5l0.06,0h0l1-1a0.38,0.38,0,0,0-.54-0.54l-0.31.31V2.47a5.5,5.5,0,0,1,3.26,1.35l-0.88.88V4.27a0.38,0.38,0,0,0-.77,0V5.63a0.31,0.31,0,0,0,0,.07h0l0,0v0l0,0,0,0h0l0,0,0,0,0,0,0,0L10.3,6h1.43a0.38,0.38,0,0,0,0-.77H11.29l0.89-.89a5.5,5.5,0,0,1,1.35,3.26H12.28l0.31-.31A0.38,0.38,0,1,0,12,6.77l-0.94.94,0,0,0,0.05,0,0.07,0,0.07h0a0.37,0.37,0,0,0,0,.15h0l0,0.07,0,0.07,0,0.05,1,1a0.38,0.38,0,0,0,.54-0.54l-0.31-.31h1.25A5.5,5.5,0,0,1,12.18,11.64Z"/><path d="M8,6.09A1.91,1.91,0,1,0,9.91,8,1.91,1.91,0,0,0,8,6.09ZM8,9.14A1.14,1.14,0,1,1,9.14,8,1.15,1.15,0,0,1,8,9.14Z"/></svg>